<svg width="700" height="550" viewBox="0 0 700 550" fill="none" xmlns="http://www.w3.org/2000/svg">
<path d="M383.209 214.486C381.411 212.344 379.837 210.024 378.511 207.562C377.1 205.071 376.138 202.35 375.671 199.526C375.647 199.356 375.682 199.183 375.769 199.036L375.783 199.014C377.017 196.947 378.401 194.973 379.923 193.108C381.435 191.23 383.114 189.492 384.939 187.917C386.764 186.303 388.838 184.996 391.082 184.048C393.32 183.063 395.823 182.852 398.194 183.447C395.866 183.314 393.548 183.845 391.51 184.98C390.502 185.53 389.534 186.151 388.613 186.838C387.696 187.535 386.83 188.299 385.98 189.08C384.303 190.684 382.736 192.399 381.29 194.215C379.831 196.022 378.471 197.908 377.216 199.863L377.327 199.352C377.686 202.018 378.433 204.617 379.544 207.067C380.069 208.332 380.667 209.57 381.274 210.809C381.896 212.04 382.528 213.273 383.209 214.486Z" fill="#3F5CEA"/>
<path d="M443.489 166.231L441.54 179.361L441.472 179.351C440.766 180.85 440.207 182.414 439.803 184.021C439.572 184.802 439.437 185.603 439.244 186.394L438.829 188.787C438.594 190.392 438.446 192.009 438.385 193.63C438.3 195.283 438.377 196.941 438.617 198.579L438.684 198.589L436.176 215.53L416.205 212.568C417.257 211.324 419.08 209.896 419.09 207.754C419.09 207.754 425.043 203.142 422.804 198.608C422.804 198.608 436.658 197.267 437.382 192.385C438.105 187.504 420.807 191.999 420.807 191.999C420.807 191.999 409.278 195.955 404.454 194.305C403.171 193.871 401.879 193.726 401.83 191.903L402.149 189.723L403.519 180.48L406.452 160.731L443.489 166.231Z" fill="#3F5CEA"/>
<path d="M450.425 180.683L449.962 183.809L449.885 183.799C449.29 184.637 448.828 185.561 448.515 186.539C448.322 187.002 448.235 187.485 448.091 187.948C447.985 188.43 447.907 188.903 447.821 189.385C447.679 190.349 447.624 191.325 447.657 192.299C447.678 193.326 447.853 194.344 448.178 195.318L448.245 195.328V195.338L447.57 199.911L438.761 198.599L440.257 188.999L441.617 179.38L441.54 179.361L450.425 180.683Z" fill="#3F5CEA"/>
<path d="M455.307 189.935C455.062 192.098 454.379 194.189 453.3 196.08L448.322 195.347L448.245 195.337V195.328L449.962 183.809L450.03 183.818L455.008 184.561C455.414 186.322 455.515 188.14 455.307 189.935Z" fill="#3F5CEA"/>
<path d="M434.049 160.327L425.334 159.034L424.68 163.439L433.396 164.732L434.049 160.327Z" fill="#3F5CEA"/>
<path d="M446.061 169.499L441.703 168.852L441.049 173.257L445.407 173.904L446.061 169.499Z" fill="#3F5CEA"/>
<path d="M422.492 143.9C422.872 144.885 423.162 145.903 423.36 146.94C423.571 147.958 423.728 148.986 423.828 150.02C423.935 151.054 423.985 152.093 423.978 153.132C423.99 154.188 423.905 155.243 423.725 156.284C423.343 155.299 423.052 154.282 422.855 153.244C422.643 152.227 422.488 151.198 422.389 150.164C422.283 149.13 422.234 148.091 422.24 147.052C422.229 145.996 422.314 144.941 422.492 143.9Z" fill="#3F5CEA"/>
<path d="M430.633 142.115C430.73 143.38 430.732 144.65 430.638 145.914C430.568 147.17 430.415 148.414 430.246 149.655C430.049 150.892 429.835 152.126 429.537 153.348C429.26 154.586 428.889 155.801 428.427 156.982C428.328 155.717 428.326 154.447 428.42 153.182C428.49 151.927 428.644 150.683 428.815 149.442C429.013 148.206 429.227 146.971 429.525 145.749C429.803 144.512 430.173 143.297 430.633 142.115Z" fill="#3F5CEA"/>
<path d="M433.755 156.161C433.847 155.241 434.032 154.333 434.309 153.45C434.563 152.581 434.871 151.729 435.231 150.898C435.585 150.065 435.992 149.255 436.447 148.472C436.897 147.664 437.43 146.905 438.036 146.207C437.947 147.127 437.762 148.036 437.485 148.918C437.23 149.787 436.922 150.639 436.56 151.47C436.205 152.302 435.798 153.112 435.342 153.895C434.892 154.702 434.36 155.462 433.755 156.161Z" fill="#3F5CEA"/>
<path d="M473.5 184.862C472.48 185.222 471.431 185.492 470.364 185.668C469.316 185.859 468.259 185.994 467.197 186.074C466.135 186.16 465.07 186.189 464.005 186.161C462.923 186.152 461.845 186.045 460.782 185.844C461.801 185.482 462.851 185.211 463.918 185.035C464.966 184.845 466.023 184.71 467.085 184.632C468.147 184.547 469.212 184.519 470.277 184.546C471.358 184.557 472.437 184.662 473.5 184.862Z" fill="#3F5CEA"/>
<path d="M475.319 192.822C474.019 192.902 472.714 192.886 471.416 192.775C470.126 192.688 468.85 192.518 467.576 192.331C466.306 192.118 465.039 191.886 463.785 191.572C462.516 191.278 461.27 190.89 460.058 190.412C461.359 190.33 462.663 190.345 463.962 190.456C465.251 190.544 466.528 190.714 467.802 190.902C469.071 191.117 470.338 191.349 471.592 191.664C472.861 191.958 474.107 192.345 475.319 192.822Z" fill="#3F5CEA"/>
<path d="M460.893 195.615C461.834 195.712 462.763 195.902 463.666 196.184C464.557 196.443 465.43 196.757 466.283 197.122C467.138 197.481 467.97 197.893 468.774 198.354C469.604 198.809 470.386 199.347 471.107 199.959C470.165 199.865 469.236 199.675 468.332 199.393C467.442 199.133 466.569 198.82 465.717 198.453C464.862 198.092 464.031 197.68 463.226 197.219C462.397 196.764 461.615 196.226 460.893 195.615Z" fill="#3F5CEA"/>
<path d="M378.41 206.38C379.71 205.558 380.863 204.522 381.82 203.317C382.286 202.72 382.698 202.083 383.052 201.414C383.4 200.757 383.685 200.046 384.01 199.323C385.28 196.463 386.515 193.573 388.05 190.783C388.813 189.347 389.724 187.994 390.768 186.747C391.845 185.504 393.076 184.404 394.433 183.475C395.766 182.54 397.187 181.74 398.678 181.087C400.166 180.411 401.718 179.889 403.312 179.528L403.323 179.525C403.573 179.47 403.835 179.517 404.05 179.655C404.266 179.793 404.418 180.01 404.473 180.26C404.499 180.38 404.502 180.503 404.483 180.623C403.98 183.697 403.381 186.757 402.835 189.824L402.827 189.865L402.819 189.899C402.528 190.697 402.416 191.549 402.49 192.395C402.517 192.558 402.579 192.713 402.67 192.85C402.762 192.988 402.881 193.104 403.021 193.192C403.394 193.41 403.793 193.582 404.208 193.704C404.686 193.887 405.078 193.977 405.515 194.107C405.967 194.155 406.409 194.26 406.874 194.265C407.805 194.32 408.739 194.3 409.667 194.204C413.423 193.765 417.116 192.894 420.672 191.607L420.696 191.6L420.703 191.598C423.503 190.817 426.344 190.193 429.213 189.729C430.674 189.486 432.151 189.357 433.632 189.341C434.421 189.332 435.207 189.418 435.976 189.595C436.421 189.704 436.843 189.89 437.225 190.143C437.705 190.45 438.055 190.922 438.21 191.47C438.313 191.957 438.31 192.46 438.199 192.945C438.089 193.431 437.875 193.886 437.571 194.28C437.071 194.956 436.452 195.537 435.746 195.993C434.453 196.818 433.054 197.464 431.587 197.914C428.762 198.804 425.858 199.423 422.916 199.764L423.845 198.095C424.324 199.09 424.539 200.192 424.472 201.295C424.371 202.337 424.065 203.35 423.572 204.274C423.117 205.142 422.56 205.954 421.913 206.691C421.285 207.429 420.59 208.108 419.839 208.721L420.313 207.76C420.289 208.844 419.942 209.897 419.315 210.782C418.785 211.521 418.193 212.213 417.544 212.85C417.288 213.111 417.047 213.387 416.822 213.676C416.756 213.764 416.7 213.859 416.656 213.96C416.645 213.983 416.638 214.007 416.634 214.032L416.597 214.3C416.54 215.242 416.344 216.17 416.016 217.055C415.219 218.781 413.949 220.245 412.353 221.277C411.985 221.529 411.613 221.772 411.238 222.007C410.833 222.231 410.531 222.436 410.042 222.675C409.577 222.872 409.089 223.009 408.59 223.085C408.144 223.16 407.707 223.215 407.274 223.262C405.548 223.44 403.857 223.483 402.171 223.519L399.657 223.593L399.036 223.624C398.86 223.643 398.685 223.673 398.513 223.713C398.129 223.795 397.725 223.905 397.328 224.019C394.141 224.976 390.899 225.998 387.79 227.217L387.777 227.222C387.751 227.233 387.721 227.233 387.694 227.222C387.667 227.211 387.646 227.191 387.633 227.165C387.621 227.139 387.619 227.109 387.627 227.082C387.636 227.054 387.655 227.031 387.68 227.017C389.169 226.173 390.714 225.509 392.258 224.815C393.807 224.135 395.357 223.467 396.965 222.892C397.369 222.747 397.77 222.605 398.202 222.48C398.435 222.409 398.673 222.353 398.914 222.314L399.552 222.237L402.08 221.986C403.755 221.819 405.429 221.679 407.048 221.455C407.451 221.395 407.847 221.327 408.228 221.245C408.56 221.182 408.883 221.081 409.192 220.944C409.454 220.804 409.851 220.532 410.173 220.334C410.502 220.107 410.827 219.875 411.144 219.638C412.366 218.788 413.326 217.612 413.914 216.244C414.136 215.535 414.263 214.8 414.291 214.057L414.332 213.699C414.357 213.515 414.402 213.334 414.465 213.16C414.574 212.868 414.719 212.591 414.898 212.336C415.178 211.951 415.482 211.584 415.809 211.237C416.999 209.996 417.884 208.876 417.867 207.749C417.864 207.571 417.902 207.396 417.977 207.235C418.052 207.074 418.162 206.932 418.3 206.821L418.341 206.788C418.963 206.277 419.539 205.714 420.064 205.103C420.591 204.509 421.045 203.854 421.416 203.152C421.764 202.511 421.994 201.812 422.096 201.089C422.148 200.416 422.034 199.741 421.763 199.122L421.737 199.058C421.618 198.774 421.617 198.454 421.733 198.169C421.85 197.884 422.076 197.656 422.36 197.537C422.466 197.493 422.578 197.465 422.692 197.453C425.487 197.195 428.25 196.675 430.946 195.899C432.246 195.528 433.497 195.002 434.671 194.334C435.192 194.03 435.656 193.638 436.042 193.174C436.34 192.833 436.495 192.391 436.476 191.938C436.482 191.712 436.085 191.416 435.503 191.235C434.875 191.051 434.228 190.942 433.574 190.909C432.173 190.836 430.767 190.871 429.371 191.014C426.525 191.3 423.7 191.764 420.912 192.401L420.942 192.392C419.105 192.966 417.264 193.462 415.401 193.906C413.536 194.358 411.647 194.703 409.743 194.941C408.779 195.063 407.809 195.119 406.838 195.108C406.35 195.122 405.852 195.032 405.358 194.997C404.875 194.883 404.331 194.787 403.911 194.654C403.403 194.539 402.912 194.361 402.449 194.124C402.177 193.97 401.938 193.764 401.746 193.517C401.555 193.27 401.415 192.987 401.335 192.685C401.138 191.642 401.187 190.567 401.478 189.546L401.463 189.621C401.829 186.527 402.144 183.425 402.555 180.338L403.725 181.433C400.83 182.226 398.079 183.473 395.573 185.126C394.334 185.948 393.201 186.92 392.201 188.021C391.197 189.14 390.311 190.36 389.559 191.662C387.957 194.286 386.508 197.054 385.072 199.832C383.773 202.798 381.445 205.196 378.518 206.581C378.491 206.593 378.462 206.594 378.434 206.585C378.407 206.576 378.384 206.556 378.37 206.531C378.357 206.505 378.353 206.476 378.36 206.448C378.368 206.42 378.385 206.396 378.41 206.38V206.38Z" fill="#3F5CEA"/>
<path d="M422.887 199.57L413.991 199.366L422.722 197.647C422.847 197.622 422.976 197.622 423.101 197.647C423.226 197.672 423.345 197.721 423.451 197.792C423.557 197.863 423.648 197.955 423.719 198.061C423.79 198.167 423.839 198.286 423.864 198.411C423.888 198.537 423.888 198.666 423.863 198.791C423.837 198.916 423.788 199.035 423.717 199.141C423.645 199.246 423.554 199.337 423.447 199.408C423.341 199.478 423.222 199.527 423.096 199.551C423.027 199.565 422.957 199.571 422.887 199.57Z" fill="#3F5CEA"/>
<path d="M379.467 208.082C376.968 204.966 376.187 197.2 376.187 197.2C368.768 199.418 350.273 218.135 343.076 211.555C330.322 199.881 317.172 181.32 311.808 175.174C308.538 171.44 305.73 173.148 304.032 175.049C302.998 176.252 302.325 177.724 302.093 179.294C298.986 197.923 278.803 164.243 278.803 164.243C231.646 203.866 234.212 248.843 234.646 261.598C234.697 265.073 235.229 268.524 236.228 271.853C236.421 271.583 236.537 271.438 236.537 271.438C246.871 281.644 260.01 288.543 274.279 291.255C275.388 290.222 288.827 284.858 305.064 280.478C307.564 273.909 309.409 267.11 310.573 260.179C306.048 257.044 301.639 253.764 297.346 250.339C293.024 246.943 288.818 243.402 284.679 239.784C280.569 236.128 276.527 232.394 272.706 228.41C270.796 226.422 268.944 224.377 267.226 222.206C266.367 221.12 265.565 219.99 264.824 218.82C263.997 217.704 263.49 216.383 263.358 215C263.469 215.662 263.718 216.293 264.091 216.852C264.436 217.436 264.819 217.997 265.239 218.531C266.087 219.595 266.989 220.615 267.94 221.589C269.802 223.576 271.78 225.467 273.767 227.339C277.762 231.072 281.843 234.719 285.952 238.337L298.301 249.191C302.431 252.799 306.521 256.462 310.573 260.179C323.877 268.997 332.252 269.74 332.252 269.74C348.267 270.377 374.161 241.077 374.161 241.077L387.185 228.892C389.626 226.451 381.966 211.198 379.467 208.082ZM265.017 195.27C264.129 196.496 263.372 197.812 262.76 199.197C262.119 200.573 261.612 202.007 261.245 203.48C260.865 205.011 260.582 206.564 260.396 208.131C259.827 206.57 259.613 204.902 259.769 203.249C259.875 201.57 260.291 199.924 260.994 198.396C261.684 196.856 262.659 195.462 263.869 194.286C265.037 193.111 266.432 192.185 267.969 191.565C266.927 192.858 265.876 193.987 265.017 195.27ZM373.235 210.571C371.469 211.854 369.733 213.166 367.948 214.421C364.378 216.91 360.751 219.351 357.017 221.608C353.293 223.875 349.501 226.056 345.613 228.043C343.655 229.027 341.687 229.992 339.69 230.889C337.681 231.813 335.627 232.634 333.535 233.349L332.975 233.542L332.551 233.089C328.701 228.95 324.852 224.811 320.954 220.72C319.025 218.656 317.047 216.64 315.079 214.613C313.13 212.559 311.123 210.571 309.136 208.555C307.158 206.548 305.113 204.599 303.106 202.612C301.061 200.663 299.006 198.724 296.922 196.823C294.838 194.903 292.703 193.054 290.516 191.276C289.406 190.408 288.297 189.53 287.139 188.719C286.017 187.862 284.8 187.137 283.512 186.558C284.843 187.057 286.112 187.707 287.293 188.497C288.499 189.24 289.647 190.08 290.805 190.9C293.082 192.588 295.32 194.344 297.491 196.158C301.852 199.795 306.039 203.625 310.139 207.532C314.249 211.44 318.275 215.427 322.218 219.495C326.058 223.374 329.772 227.368 333.515 231.333C337.355 229.888 341.113 228.236 344.774 226.384C348.643 224.464 352.454 222.399 356.216 220.257L359.043 218.637L361.841 216.968C363.712 215.887 365.545 214.72 367.398 213.591L372.926 210.127C374.74 208.931 376.553 207.744 378.396 206.577C376.689 207.928 374.968 209.259 373.235 210.571L373.235 210.571Z" fill="#3F5CEA"/>
<path d="M373.823 425.231C370.225 422.771 365.507 419.472 361.001 416.288H360.992L357.422 417.485C356.264 417.899 355.107 418.285 354.016 418.787C352.912 419.243 351.852 419.801 350.852 420.456C349.842 421.147 348.927 421.967 348.131 422.897C348.448 421.608 349.132 420.438 350.1 419.53C351.072 418.632 352.191 417.908 353.409 417.388C354.604 416.882 355.859 416.529 357.142 416.336C358.416 416.127 359.713 416.111 360.992 416.288C358.3 414.387 355.685 412.535 353.428 410.924C351.141 412.004 348.855 412.796 346.646 413.731C345.548 414.17 344.481 414.683 343.452 415.265C342.387 415.781 341.527 416.641 341.011 417.706C340.948 417.041 341.104 416.374 341.455 415.806C341.803 415.238 342.24 414.73 342.748 414.3C343.743 413.478 344.86 412.815 346.057 412.333C347.226 411.856 348.437 411.491 349.675 411.242C350.908 410.981 352.169 410.874 353.428 410.924C349.222 407.943 346.231 405.791 346.231 405.791C345.594 405.926 344.977 405.955 344.359 406.062C343.751 406.168 343.144 406.226 342.555 406.361C342.256 406.428 341.967 406.486 341.667 406.534L340.799 406.766C340.222 406.907 339.652 407.078 339.092 407.277C337.96 407.661 336.863 408.138 335.811 408.705C334.72 409.278 333.672 409.929 332.676 410.654C333.269 409.495 334.121 408.489 335.165 407.711C336.197 406.906 337.354 406.274 338.59 405.84C339.83 405.417 341.129 405.195 342.439 405.184C343.729 405.157 345.014 405.363 346.231 405.791C346.231 405.791 346.79 396.028 340.24 397.485C338.88 397.804 337.66 398.552 336.757 399.617C334.866 401.788 330.119 406.091 323.366 404.161C321.858 403.72 320.466 402.951 319.289 401.911C318.111 400.87 317.178 399.583 316.555 398.141C315.32 395.324 312.995 391.638 309.367 391.995C303.569 392.565 304.428 402.55 304.428 402.55C304.428 402.55 303.752 408.502 300.453 411.59C299.133 412.726 298.111 414.167 297.474 415.787C296.837 417.408 296.604 419.159 296.796 420.89C297.433 425.251 300.723 429.582 311.866 428.184C311.866 428.184 319.661 426.707 336.477 434.551C353.303 442.395 376.631 449.187 380.21 435.689C380.285 435.05 380.164 434.403 379.865 433.833C379.565 433.263 379.1 432.797 378.531 432.496C377.941 432.271 377.298 432.218 376.679 432.342C376.051 432.423 375.444 432.615 374.884 432.911C374.044 433.345 373.317 433.969 372.762 434.734C372.559 434.985 372.357 435.284 372.125 435.525C371.209 436.552 370.11 437.399 368.884 438.024C366.413 439.202 363.687 439.746 360.953 439.606C358.258 439.463 355.593 438.973 353.023 438.15H353.003L352.955 438.13C348.585 436.336 344.166 434.609 339.719 433.027C337.49 432.236 335.252 431.483 332.994 430.817C330.793 430.098 328.512 429.648 326.202 429.476C323.783 429.318 321.389 428.894 319.063 428.213C316.753 427.594 314.476 426.857 312.242 426.003C310.001 425.171 307.822 424.181 305.72 423.041C304.665 422.478 303.65 421.843 302.681 421.141C302.194 420.796 301.736 420.412 301.311 419.993C300.875 419.583 300.493 419.119 300.173 418.613C300.92 419.534 301.825 420.314 302.845 420.919C303.842 421.548 304.88 422.109 305.952 422.598C308.098 423.576 310.294 424.439 312.532 425.183C314.765 425.936 317.035 426.577 319.333 427.103C321.596 427.657 323.905 428.002 326.231 428.135C326.791 428.155 327.476 428.193 328.084 428.251C328.682 428.357 329.29 428.425 329.888 428.55L331.653 428.946L333.399 429.409C335.696 430.074 337.963 430.817 340.22 431.599C344.706 433.21 349.138 434.956 353.515 436.837C355.944 437.647 358.46 438.165 361.011 438.381C363.56 438.613 366.127 438.205 368.478 437.195C369.626 436.658 370.666 435.916 371.546 435.005C371.778 434.773 371.961 434.532 372.193 434.281C372.416 434.017 372.658 433.769 372.916 433.538C373.427 433.073 374.01 432.695 374.643 432.419C375.27 432.134 375.943 431.964 376.631 431.917C377.321 431.832 378.021 431.936 378.657 432.216C378.971 432.363 379.252 432.572 379.482 432.831C379.713 433.089 379.888 433.392 379.998 433.721C380.212 434.354 380.284 435.026 380.21 435.69C380.21 435.69 383.558 431.869 373.823 425.231ZM325.72 418.179C324.61 420.128 319.208 421.488 316.526 418.131C313.419 414.224 310.264 412.989 311.374 411.049C312.493 409.11 316.603 409.13 320.568 411.098C324.533 413.075 326.839 416.24 325.72 418.179Z" fill="#3F5CEA"/>
<path d="M337.664 391.716L337.191 395.391C337.027 396.781 336.825 398.16 336.757 399.617C336.106 398.29 335.745 396.84 335.696 395.362C335.599 394.074 335.619 392.779 335.754 391.494C336.4 391.571 337.037 391.648 337.664 391.716Z" fill="#3F5CEA"/>
<path d="M315.744 388.638C315.571 389.4 315.378 390.152 315.137 390.905C314.816 391.941 314.392 392.943 313.873 393.896C313.663 392.829 313.585 391.74 313.641 390.654C313.674 389.882 313.752 389.112 313.873 388.348C314.49 388.445 315.108 388.541 315.744 388.638Z" fill="#3F5CEA"/>
<path d="M279.083 430.567C278.651 429.867 278.07 429.271 277.381 428.821C276.692 428.371 275.913 428.077 275.099 427.962C273.468 427.75 271.713 427.721 270.024 427.499C268.326 427.296 266.635 427.016 264.95 426.659C261.539 425.995 258.265 424.763 255.263 423.013C254.262 422.395 253.333 421.667 252.494 420.842C259.074 430.094 268.645 436.577 277.154 434.464C277.163 434.464 277.173 434.455 277.183 434.455C277.947 434.112 278.602 433.565 279.074 432.872C279.29 432.527 279.406 432.128 279.408 431.721C279.409 431.313 279.297 430.914 279.083 430.567ZM281.264 422.762C277.183 417.639 272.369 417.658 273.044 413.326C273.189 412.42 273.333 411.503 273.478 410.596L270.593 408.203C269.638 407.441 268.693 406.689 267.689 406.033C266.7 405.377 265.662 404.799 264.583 404.306C263.447 403.848 262.267 403.508 261.062 403.293C262.325 402.912 263.666 402.872 264.95 403.177C266.226 403.505 267.439 404.043 268.538 404.769C269.605 405.506 270.575 406.374 271.423 407.355C272.277 408.314 272.971 409.406 273.478 410.586C273.97 407.49 274.462 404.46 274.896 401.846C272.774 400.476 270.892 398.961 268.924 397.61C267.968 396.922 266.962 396.306 265.914 395.768C264.884 395.186 263.708 394.915 262.528 394.986C263.073 394.61 263.718 394.405 264.38 394.398C265.043 394.382 265.703 394.47 266.339 394.658C267.569 395.039 268.732 395.612 269.783 396.356C270.815 397.086 271.771 397.916 272.639 398.836C273.519 399.736 274.278 400.748 274.896 401.846C275.687 396.983 276.266 393.51 276.266 393.51C275.456 392.526 274.761 391.561 273.931 390.703C273.15 389.835 272.291 389.041 271.365 388.329C270.45 387.595 269.471 386.943 268.442 386.38C267.377 385.792 266.282 385.261 265.162 384.789C266.435 384.683 267.716 384.858 268.915 385.3C271.378 386.134 273.481 387.785 274.877 389.979C275.568 391.053 276.04 392.253 276.266 393.51C276.266 393.51 285.74 389.265 281.215 384.615C280.207 383.636 278.913 383.004 277.52 382.811C274.578 382.309 268.23 380.505 266.802 374.07C266.509 372.572 266.574 371.025 266.991 369.557C267.409 368.088 268.167 366.739 269.204 365.619C271.259 363.255 273.613 359.589 271.529 356.801C268.201 352.344 259.209 357.853 259.209 357.853C259.209 357.853 253.276 360.158 248.78 358.952C247.023 358.429 245.175 358.291 243.36 358.547C241.545 358.803 239.807 359.448 238.264 360.438C234.453 363.062 231.964 367.838 238.631 376.241C238.631 376.241 243.773 381.894 244.477 399.385C244.866 405.192 246.554 410.836 249.417 415.902C249.279 415.472 249.167 415.034 249.079 414.59V414.561L249.069 414.523C248.664 410.085 248.162 405.637 247.506 401.238C247.188 399.038 246.822 396.839 246.349 394.677C245.975 392.535 245.293 390.459 244.323 388.512C243.32 386.451 242.565 384.278 242.075 382.039C241.552 379.841 241.152 377.615 240.879 375.372C240.579 373.138 240.463 370.882 240.531 368.629C240.558 367.5 240.668 366.375 240.859 365.262C241.029 364.142 241.427 363.068 242.027 362.107C241.522 363.102 241.22 364.188 241.139 365.3C241.022 366.406 240.986 367.518 241.033 368.629C241.128 370.848 241.363 373.058 241.737 375.247C242.094 377.44 242.574 379.611 243.175 381.75C243.739 383.862 244.518 385.912 245.5 387.866L245.915 388.619C246.059 388.889 246.175 389.159 246.301 389.429C246.522 389.97 246.715 390.519 246.889 391.06C247.246 392.16 247.535 393.259 247.777 394.359C248.278 396.568 248.664 398.787 249.002 401.016C249.658 405.444 250.14 409.872 250.468 414.339L250.478 414.407C250.772 415.959 251.416 417.424 252.359 418.691C253.359 419.977 254.565 421.089 255.929 421.98C258.771 423.751 261.893 425.026 265.162 425.752C268.476 426.494 271.829 427.051 275.205 427.421C276.074 427.59 276.896 427.946 277.613 428.466C278.33 428.986 278.924 429.657 279.353 430.432C279.563 430.829 279.666 431.275 279.653 431.724C279.626 432.173 279.472 432.604 279.209 432.969C278.695 433.624 278.015 434.13 277.241 434.435C278.225 434.107 287.593 430.692 281.264 422.762V422.762ZM254.723 382.743C252.359 382.762 248.471 379.01 250.353 375.218C252.543 370.799 252.176 367.625 254.549 367.606C256.913 367.577 258.872 370.944 258.92 375.131C258.968 379.309 257.087 382.714 254.723 382.743Z" fill="#3F5CEA"/>
<path d="M283.724 380.428L281.727 381.171C280.337 381.701 278.939 382.174 277.52 382.811C278.501 381.592 279.711 380.576 281.08 379.82C281.785 379.405 282.498 379.01 283.232 378.662L283.724 380.428Z" fill="#3F5CEA"/>
<path d="M278.167 360.332C277.231 360.602 276.285 360.843 275.33 361.027C274.207 361.259 273.063 361.379 271.915 361.383C272.826 360.678 273.813 360.076 274.858 359.589C275.766 359.161 276.701 358.791 277.655 358.479L278.167 360.332Z" fill="#3F5CEA"/>
<path d="M305.028 280.345C312.099 278.178 319.294 276.439 326.574 275.137C330.227 274.526 333.91 274.047 337.623 273.789C341.364 273.483 345.126 273.526 348.86 273.919C350.766 274.184 352.635 274.673 354.427 275.376C355.33 275.729 356.21 276.139 357.062 276.601C358.749 277.574 360.306 278.758 361.694 280.125C363.716 282.216 365.354 284.646 366.533 287.304C368.056 290.8 369.049 294.504 369.48 298.293C369.958 302.055 370.006 305.859 369.624 309.632L368.745 308.295C370.665 308.88 372.454 309.829 374.015 311.091C375.524 312.378 376.796 313.919 377.775 315.645C378.711 317.339 379.433 319.143 379.927 321.015C380.421 322.877 380.712 324.788 380.793 326.713L380.786 326.621C381.186 330.365 381.131 334.143 380.622 337.873C380.361 339.744 379.948 341.59 379.387 343.393C378.799 345.192 378.052 346.934 377.153 348.599C375.311 351.908 372.779 354.783 369.728 357.027C366.704 359.283 363.237 360.874 359.554 361.698L359.921 361.307C359.334 366.473 358.728 371.637 358.197 376.81L356.551 392.322L356.522 392.602L356.28 392.719C355.652 392.988 354.985 393.155 354.304 393.212C353.666 393.286 353.035 393.326 352.407 393.344C351.15 393.383 349.902 393.364 348.659 393.314C346.17 393.22 343.696 393.025 341.225 392.804C336.287 392.383 331.38 391.694 326.469 391.073C321.562 390.414 316.631 389.89 311.744 389.088L297.072 386.756L295.861 386.563L296.085 385.324L297.417 377.964L299.113 379.392C296.663 380.237 294.148 380.878 291.593 381.311C289.079 381.773 286.582 382.135 284.032 382.423L282.905 382.55L282.589 381.426L275.948 357.805L277.519 358.88C272.411 359.434 267.249 359.226 262.201 358.263C257.144 357.243 252.301 355.36 247.882 352.697C243.479 350.038 239.554 346.656 236.274 342.693C235.455 341.707 234.674 340.688 233.945 339.624C233.577 339.094 233.228 338.55 232.888 337.984C232.508 337.356 232.297 336.832 231.993 336.251C231.423 335.118 230.86 333.983 230.372 332.814L229.609 331.076L228.928 329.303C225.214 319.833 223.915 309.587 225.147 299.49C225.776 294.488 227.03 289.585 228.881 284.896C230.687 280.213 233.122 275.798 236.117 271.771L236.339 271.935C230.909 280.251 227.588 289.766 226.667 299.656C226.217 304.55 226.383 309.481 227.162 314.333C227.918 319.178 229.236 323.918 231.089 328.457L231.781 330.159L232.552 331.827C233.046 332.949 233.612 334.035 234.183 335.116C234.465 335.634 234.749 336.257 235.028 336.687C235.34 337.182 235.672 337.682 236.025 338.168C236.724 339.145 237.478 340.091 238.268 341.005C243.006 346.537 249.048 350.8 255.848 353.411C262.647 356.021 269.99 356.896 277.213 355.956L278.457 355.824L278.784 357.031L285.206 380.722L283.764 379.725C286.211 379.477 288.695 379.145 291.129 378.724C293.536 378.344 295.909 377.77 298.223 377.006L300.342 376.259L299.919 378.434L298.492 385.776L297.505 384.345L312.088 386.949C314.515 387.41 316.957 387.756 319.395 388.146L326.712 389.299C331.593 390.058 336.46 390.896 341.368 391.431C343.816 391.711 346.268 391.967 348.718 392.121C349.943 392.201 351.169 392.25 352.384 392.243C352.992 392.241 353.596 392.217 354.188 392.163C354.743 392.134 355.289 392.015 355.805 391.812L355.534 392.209L357.323 376.713C357.936 371.55 358.475 366.378 359.033 361.209L359.067 360.893L359.4 360.818C362.92 359.973 366.219 358.386 369.075 356.163C371.923 353.948 374.253 351.139 375.905 347.932C376.706 346.328 377.362 344.655 377.866 342.934C378.345 341.202 378.684 339.435 378.878 337.649C379.257 334.058 379.2 330.434 378.708 326.856L378.707 326.853L378.701 326.764C378.568 325.02 378.25 323.295 377.751 321.619C377.273 319.946 376.597 318.336 375.736 316.824C374.876 315.363 373.768 314.063 372.462 312.981C371.155 311.935 369.66 311.148 368.058 310.662L367.081 310.321L367.178 309.325C367.508 305.752 367.465 302.154 367.051 298.589C366.677 295.035 365.776 291.557 364.378 288.268C363.673 286.657 362.794 285.128 361.755 283.709C361.237 283.007 360.68 282.335 360.085 281.696C358.862 280.455 357.487 279.373 355.993 278.476C355.231 278.047 354.444 277.666 353.635 277.334C352 276.669 350.298 276.183 348.558 275.883C344.965 275.405 341.334 275.26 337.714 275.452C334.064 275.598 330.412 275.964 326.777 276.465C319.486 277.482 312.252 278.866 305.1 280.611L305.028 280.345Z" fill="#3F5CEA"/>
<path d="M251.945 298.61C254.861 297.793 257.658 296.596 260.263 295.052C261.496 294.276 262.617 293.335 263.594 292.254C264.592 291.102 265.463 289.846 266.191 288.507C266.123 290.143 265.625 291.731 264.746 293.113C263.86 294.524 262.666 295.717 261.254 296.603C259.864 297.471 258.334 298.091 256.732 298.435C255.163 298.803 253.537 298.863 251.945 298.61Z" fill="#3F5CEA"/>
<path d="M262.594 298.61C264.355 297.116 266.225 295.758 268.19 294.545C270.132 293.297 272.166 292.198 274.275 291.258C272.516 292.753 270.645 294.112 268.68 295.323C266.737 296.57 264.702 297.668 262.594 298.61Z" fill="#3F5CEA"/>
<path d="M252.082 283.09L251.523 296.407C251.356 300.841 251.188 305.273 251.162 309.685C251.136 311.89 251.187 314.093 251.335 316.243L251.489 317.828C251.596 318.324 251.65 318.774 251.789 319.309C252.085 320.394 252.358 321.455 252.675 322.483C253.192 324.474 254.089 326.346 255.317 327.997C255.908 328.734 256.657 329.328 257.509 329.736C258.36 330.144 259.293 330.355 260.238 330.353C262.318 330.33 264.375 329.906 266.295 329.105C268.32 328.298 270.277 327.331 272.148 326.213C275.991 324.032 279.762 321.668 283.519 319.294C287.27 316.909 291.026 314.525 294.834 312.216C298.652 309.925 302.494 307.646 306.542 305.716C310.574 303.665 314.838 302.107 319.242 301.075C321.539 300.497 323.927 300.377 326.27 300.721C328.649 301.085 330.922 301.952 332.939 303.266C334.981 304.584 336.699 306.345 337.968 308.419C339.248 310.521 339.99 312.906 340.128 315.364C340.175 316.521 340.163 317.679 340.091 318.835C340.023 319.955 339.972 321.078 339.879 322.195C339.719 324.432 339.507 326.662 339.242 328.885C336.886 346.586 332.657 363.987 326.626 380.795L326.361 380.716C330.545 363.442 334.376 346.095 336.316 328.552C336.551 326.361 336.787 324.17 336.943 321.976C337.037 320.879 337.089 319.782 337.16 318.685C337.198 317.603 337.307 316.444 337.253 315.497C337.156 313.485 336.585 311.524 335.586 309.775C334.587 308.025 333.188 306.537 331.504 305.431C329.782 304.281 327.844 303.492 325.808 303.113C323.771 302.734 321.68 302.772 319.659 303.225C315.367 304.058 311.179 305.355 307.167 307.093C299.065 310.689 291.312 315.025 284.006 320.046L278.486 323.781C276.655 325.045 274.824 326.311 272.946 327.527C271.073 328.804 269.099 329.927 267.043 330.885C264.909 331.93 262.584 332.53 260.211 332.651C258.931 332.667 257.663 332.415 256.487 331.912C255.308 331.376 254.267 330.581 253.44 329.585C251.963 327.694 250.904 325.512 250.331 323.182C250.01 322.082 249.747 320.986 249.474 319.924C249.341 319.383 249.246 318.729 249.138 318.136L248.995 316.402C248.894 314.117 248.928 311.873 249.023 309.638C249.471 300.735 250.4 291.864 251.807 283.062L252.082 283.09Z" fill="#3F5CEA"/>
<path d="M277.367 357.422C280.371 355.454 283.28 353.362 286.096 351.149C288.919 348.949 291.667 346.663 294.341 344.292C297 341.908 299.611 339.472 302.096 336.915C304.605 334.379 306.985 331.725 309.312 329.027L311.688 326.271L310.887 329.821C309.972 333.876 308.986 337.915 308.033 341.962L305.065 354.077C304.054 358.11 303.02 362.138 301.964 366.161C300.871 370.175 299.825 374.2 298.667 378.199C299.398 374.1 300.242 370.028 301.038 365.944C301.868 361.869 302.724 357.8 303.605 353.736L306.305 341.559C307.242 337.508 308.146 333.45 309.12 329.408L310.695 330.202C308.312 332.917 305.898 335.611 303.284 338.105C300.719 340.647 298.013 343.041 295.229 345.333C292.459 347.642 289.557 349.787 286.588 351.825C283.627 353.869 280.547 355.738 277.367 357.422Z" fill="#3F5CEA"/>
<path d="M368.406 309.478C368.037 313.857 367.489 318.206 366.878 322.544C366.278 326.884 365.573 331.206 364.846 335.524C364.086 339.836 363.303 344.145 362.415 348.435C361.537 352.727 360.596 357.008 359.474 361.258C359.84 356.878 360.388 352.529 360.999 348.191C361.599 343.851 362.305 339.529 363.033 335.211C363.796 330.899 364.579 326.591 365.468 322.301C366.345 318.009 367.286 313.728 368.406 309.478Z" fill="#3F5CEA"/>
<path d="M227.064 299.924C228.83 299.763 230.597 299.634 232.363 299.538L232.676 299.52L232.746 299.876C233.308 302.763 233.906 305.652 234.544 308.521C235.16 311.396 235.86 314.248 236.593 317.084C237.348 319.914 238.144 322.731 239.146 325.461C239.606 326.845 240.175 328.176 240.76 329.497L241.71 331.437L242.83 333.26L243.126 333.742L242.782 334.08C242.199 334.66 241.653 335.276 241.147 335.925C240.635 336.581 240.158 337.263 239.717 337.968C239.289 338.684 238.913 339.43 238.592 340.2C238.287 340.988 238.074 341.807 237.957 342.643C237.919 341.781 237.998 340.917 238.193 340.076C238.403 339.232 238.69 338.408 239.051 337.617C239.415 336.825 239.835 336.061 240.309 335.33C240.781 334.588 241.302 333.877 241.869 333.204L241.821 334.024C240.001 331.601 238.55 328.922 237.516 326.074C236.439 323.289 235.546 320.436 234.844 317.534C234.109 314.65 233.526 311.735 233.045 308.808C232.582 305.875 232.194 302.938 231.98 299.972L232.363 300.31C230.597 300.21 228.83 300.082 227.064 299.924Z" fill="#3F5CEA"/>
<path d="M320.201 124.387C320.201 124.387 326.553 123.215 323.295 115.985C320.037 108.756 302.235 104.3 283.596 107.873C264.957 111.445 269.614 123.361 270.839 128.702C272.064 134.043 276.635 159.689 281.697 152.403C281.697 152.403 285.662 145.393 285.656 144.501C285.65 143.61 281.664 138.106 282.463 133.676C282.96 130.913 286.256 128.843 288.873 132.437C290.183 134.291 290.822 136.536 290.686 138.802C290.541 141.441 290.236 144.07 289.772 146.673C288.514 154.051 290.145 157.963 291.736 160.3C293.327 162.637 307.599 176.636 313.32 172.403C313.32 172.403 321.629 159.742 320.861 156.032C320.093 152.323 316.642 156.18 314.863 156.786C313.084 157.392 304.16 160.632 297.744 152.295C297.744 152.295 292.497 145.347 295.196 140.157C297.895 134.968 295.259 127.527 296.195 125.321C297.132 123.116 297.186 122.402 300.275 122.144C307.001 121.502 313.787 122.266 320.201 124.387Z" fill="#3F5CEA"/>
<path d="M320.201 124.387C322.042 126.991 323.133 130.051 323.356 133.233C323.406 134.037 323.395 134.843 323.325 135.645L323.163 137.95C323.053 139.484 322.94 141.018 322.896 142.539C322.862 143.297 322.837 144.061 322.866 144.778C322.868 145.017 322.895 145.255 322.947 145.489C323.074 145.686 323.352 145.993 323.589 146.274C324.733 147.436 325.687 148.772 326.415 150.231C326.633 150.711 326.692 151.248 326.585 151.764C326.46 152.295 326.136 152.758 325.68 153.057C325.294 153.264 324.883 153.422 324.457 153.525L323.329 153.853C322.949 153.952 322.566 154.045 322.173 154.123C321.978 154.161 321.767 154.196 321.567 154.216C321.509 154.221 321.454 154.238 321.404 154.267C321.353 154.296 321.31 154.335 321.277 154.383C321.092 154.686 320.984 155.029 320.962 155.383C320.911 155.765 320.893 156.151 320.909 156.536C320.634 155.761 320.615 154.917 320.855 154.13C320.913 154.006 320.998 153.897 321.103 153.811C321.209 153.724 321.332 153.662 321.465 153.628C321.645 153.581 321.811 153.525 321.99 153.46C322.341 153.33 322.694 153.182 323.045 153.029L324.1 152.569C324.416 152.451 324.717 152.298 324.999 152.113C325.178 151.956 325.295 151.74 325.33 151.505C325.348 151.252 325.283 151 325.146 150.787C324.363 149.544 323.422 148.408 322.347 147.407C322.039 147.099 321.756 146.767 321.503 146.413C321.336 146.144 321.232 145.842 321.199 145.528C321.163 145.292 321.146 145.082 321.133 144.873C321.086 144.045 321.098 143.26 321.122 142.471C321.203 140.901 321.324 139.348 321.493 137.799L321.781 135.484C321.876 134.714 321.955 134.015 321.976 133.264C321.974 130.217 321.371 127.2 320.201 124.387Z" fill="#3F5CEA"/>
<path d="M315.781 144.501C316.126 144.489 316.453 144.343 316.693 144.095C316.933 143.846 317.068 143.514 317.068 143.169C317.068 142.823 316.933 142.491 316.693 142.243C316.453 141.994 316.126 141.849 315.781 141.837C315.436 141.849 315.109 141.994 314.869 142.243C314.629 142.491 314.495 142.823 314.495 143.169C314.495 143.514 314.629 143.846 314.869 144.095C315.109 144.343 315.436 144.489 315.781 144.501Z" fill="#3F5CEA"/>
<path d="M322.655 141.392C322.649 141.213 322.602 141.037 322.52 140.877C322.437 140.718 322.319 140.579 322.175 140.471C322.031 140.363 321.865 140.289 321.689 140.254C321.513 140.219 321.331 140.224 321.157 140.268C320.593 140.077 320.029 139.883 319.467 139.697C317.817 139.138 316.147 138.656 314.491 138.142L309.485 136.734C306.136 135.834 302.753 135.044 299.358 134.334C295.946 133.603 292.499 133.047 289.031 132.667C292.229 134.058 295.495 135.286 298.817 136.345C302.121 137.428 305.447 138.424 308.798 139.307L313.843 140.576C315.537 140.954 317.225 141.374 318.927 141.699L318.991 141.711C317.552 143.143 316.233 145.673 316.562 150.109C316.591 150.676 316.836 151.21 317.246 151.602C318.163 152.435 319.998 152.587 322.194 144.668C322.494 143.602 322.649 142.5 322.655 141.392Z" fill="#3F5CEA"/>
<path d="M288.49 147.598C287.66 147.482 286.879 147.138 286.233 146.605C285.562 146.045 285.049 145.319 284.744 144.5L285.597 144.255C285.73 145.003 286.056 145.703 286.542 146.287C287.057 146.895 287.732 147.349 288.49 147.598Z" fill="#3F5CEA"/>
<path d="M280.584 153.496C280.554 156.72 280.197 159.933 279.516 163.084C279.186 164.67 278.735 166.228 278.165 167.745C277.879 168.509 277.526 169.248 277.111 169.952C276.717 170.677 276.124 171.276 275.402 171.677C275.999 171.157 276.454 170.494 276.725 169.75C277.031 169.023 277.293 168.278 277.51 167.52C277.954 166.002 278.319 164.454 278.649 162.897C279.326 159.784 279.884 156.641 280.584 153.496Z" fill="#3F5CEA"/>
</svg>
