<svg width="700" height="550" viewBox="0 0 700 550" fill="none" xmlns="http://www.w3.org/2000/svg">
<path d="M419.389 439.028C408.976 440.266 394.237 441.021 373.41 440.779L373.885 431.886C373.885 431.886 403.944 430.773 406.799 433.995C406.799 433.995 407.253 423.224 403.16 421.172C403.16 421.172 409.15 421.008 416.641 421.472L416.902 435.495C416.915 436.266 417.159 437.014 417.602 437.644C418.046 438.274 418.668 438.756 419.389 439.028Z" fill="#3F5CEA"/>
<path d="M440.825 433.657V426.331C442.045 426.934 443.157 427.735 444.116 428.702C444.116 428.702 445.325 431.034 440.825 433.657Z" fill="#3F5CEA"/>
<path d="M401.572 336.367C400.866 341.283 399.966 346.151 398.998 350.999C398.049 355.848 396.985 360.677 395.901 365.506C394.778 370.316 393.627 375.126 392.378 379.916C392.156 380.787 391.923 381.668 391.681 382.539C394.846 382.403 398.04 382.21 401.195 381.91C402.937 381.736 404.679 381.552 406.382 381.233C407.237 381.077 408.083 380.877 408.917 380.633C409.743 380.432 410.497 380.006 411.095 379.403L411.105 379.394C411.118 379.378 411.135 379.365 411.153 379.355L401.572 336.367ZM384.578 389.449C381.828 390.314 378.954 390.72 376.071 390.649C373.258 390.582 370.455 390.284 367.69 389.759C364.932 389.265 362.213 388.694 359.484 388.113C353.986 387.127 348.568 385.739 343.274 383.962C338.005 382.116 332.9 379.834 328.012 377.139L328.002 377.129C325.099 382.636 322.873 386.187 321.963 386.187C321.963 386.187 379.623 415.453 385.894 403.607L388.333 394.201C388.701 391.655 389.127 389.12 389.581 386.594C388.132 387.885 386.427 388.858 384.578 389.449ZM328.05 386.246C327.674 386.232 327.318 386.073 327.057 385.803C326.796 385.532 326.65 385.17 326.65 384.794C326.65 384.418 326.796 384.056 327.057 383.785C327.318 383.514 327.674 383.356 328.05 383.342C328.427 383.356 328.783 383.514 329.044 383.785C329.305 384.056 329.451 384.418 329.451 384.794C329.451 385.17 329.305 385.532 329.044 385.803C328.783 386.073 328.427 386.232 328.05 386.246ZM333.102 388.684C332.726 388.671 332.37 388.512 332.109 388.241C331.848 387.971 331.702 387.609 331.702 387.233C331.702 386.856 331.848 386.495 332.109 386.224C332.37 385.953 332.726 385.794 333.102 385.781C333.478 385.794 333.834 385.953 334.096 386.224C334.357 386.495 334.503 386.856 334.503 387.233C334.503 387.609 334.357 387.971 334.096 388.241C333.834 388.512 333.478 388.671 333.102 388.684H333.102ZM338.677 390.949C338.301 390.935 337.944 390.777 337.683 390.506C337.422 390.235 337.276 389.874 337.276 389.497C337.276 389.121 337.422 388.759 337.683 388.489C337.944 388.218 338.301 388.059 338.677 388.046C339.053 388.059 339.409 388.218 339.67 388.489C339.932 388.759 340.078 389.121 340.078 389.497C340.078 389.874 339.932 390.235 339.67 390.506C339.409 390.777 339.053 390.936 338.677 390.949H338.677ZM344.599 393.388C344.223 393.374 343.867 393.216 343.606 392.945C343.345 392.674 343.199 392.312 343.199 391.936C343.199 391.56 343.345 391.198 343.606 390.927C343.867 390.657 344.223 390.498 344.599 390.484C344.975 390.498 345.332 390.657 345.593 390.927C345.854 391.198 346 391.56 346 391.936C346 392.312 345.854 392.674 345.593 392.945C345.332 393.215 344.975 393.374 344.599 393.388H344.599ZM350.696 396.001C350.32 395.987 349.964 395.828 349.703 395.558C349.442 395.287 349.296 394.925 349.296 394.549C349.296 394.173 349.442 393.811 349.703 393.54C349.964 393.27 350.32 393.111 350.696 393.097C351.072 393.111 351.428 393.27 351.69 393.54C351.951 393.811 352.097 394.173 352.097 394.549C352.097 394.925 351.951 395.287 351.69 395.558C351.428 395.828 351.072 395.987 350.696 396.001L350.696 396.001ZM357.839 398.614C357.462 398.6 357.106 398.441 356.845 398.171C356.584 397.9 356.438 397.538 356.438 397.162C356.438 396.786 356.584 396.424 356.845 396.153C357.106 395.883 357.462 395.724 357.839 395.71C358.215 395.724 358.571 395.883 358.832 396.153C359.093 396.424 359.239 396.786 359.239 397.162C359.239 397.538 359.093 397.9 358.832 398.171C358.571 398.441 358.215 398.6 357.839 398.614L357.839 398.614ZM365.155 401.052C364.779 401.039 364.423 400.88 364.161 400.609C363.9 400.339 363.754 399.977 363.754 399.601C363.754 399.225 363.9 398.863 364.161 398.592C364.423 398.321 364.779 398.163 365.155 398.149C365.531 398.163 365.887 398.321 366.148 398.592C366.41 398.863 366.555 399.225 366.555 399.601C366.555 399.977 366.409 400.339 366.148 400.609C365.887 400.88 365.531 401.039 365.155 401.052H365.155ZM372.645 402.794C372.269 402.781 371.913 402.622 371.652 402.351C371.391 402.081 371.245 401.719 371.245 401.343C371.245 400.967 371.391 400.605 371.652 400.334C371.913 400.063 372.269 399.905 372.645 399.891C373.021 399.905 373.377 400.064 373.639 400.334C373.9 400.605 374.046 400.967 374.046 401.343C374.046 401.719 373.9 402.081 373.639 402.351C373.377 402.622 373.021 402.781 372.645 402.794L372.645 402.794ZM380.136 403.491C379.76 403.478 379.404 403.319 379.142 403.048C378.881 402.777 378.735 402.416 378.735 402.04C378.735 401.663 378.881 401.302 379.142 401.031C379.404 400.76 379.76 400.601 380.136 400.588C380.512 400.602 380.868 400.761 381.129 401.031C381.39 401.302 381.536 401.663 381.536 402.04C381.536 402.416 381.39 402.777 381.129 403.048C380.868 403.319 380.512 403.478 380.136 403.491V403.491ZM411.201 379.587C410.684 380.311 409.968 380.869 409.14 381.194C408.325 381.581 407.48 381.905 406.614 382.161C404.892 382.665 403.15 383.062 401.398 383.391C398.071 383.972 394.714 384.369 391.343 384.581C391.239 384.745 391.126 384.903 391.004 385.055C390.665 386.313 390.317 387.571 389.949 388.82C390.184 388.647 390.47 388.558 390.762 388.568C391.138 388.582 391.494 388.74 391.756 389.011C392.017 389.282 392.163 389.644 392.163 390.02C392.163 390.396 392.017 390.758 391.756 391.029C391.494 391.299 391.138 391.458 390.762 391.472C390.472 391.483 390.187 391.4 389.949 391.234C389.711 391.068 389.534 390.828 389.446 390.552C389.088 391.772 388.72 392.991 388.333 394.201C388.333 394.201 412.372 394.549 413.766 391.065L411.201 379.587ZM397.033 390.6C396.657 390.587 396.301 390.428 396.04 390.157C395.779 389.887 395.633 389.525 395.633 389.149C395.633 388.773 395.779 388.411 396.04 388.14C396.301 387.869 396.657 387.711 397.033 387.697C397.409 387.711 397.765 387.869 398.027 388.14C398.288 388.411 398.434 388.773 398.434 389.149C398.434 389.525 398.288 389.887 398.027 390.158C397.765 390.428 397.409 390.587 397.033 390.6H397.033ZM403.13 389.729C402.754 389.716 402.398 389.557 402.137 389.286C401.876 389.016 401.729 388.654 401.729 388.278C401.729 387.902 401.876 387.54 402.137 387.269C402.398 386.998 402.754 386.84 403.13 386.826C403.506 386.84 403.862 386.999 404.124 387.269C404.385 387.54 404.531 387.902 404.531 388.278C404.531 388.654 404.385 389.016 404.123 389.286C403.862 389.557 403.506 389.716 403.13 389.729H403.13ZM409.401 388.51C409.025 388.497 408.669 388.338 408.408 388.067C408.147 387.796 408.001 387.435 408.001 387.059C408.001 386.682 408.147 386.321 408.408 386.05C408.669 385.779 409.025 385.62 409.401 385.607C409.777 385.62 410.134 385.779 410.395 386.05C410.656 386.321 410.802 386.682 410.802 387.059C410.802 387.435 410.656 387.796 410.395 388.067C410.134 388.338 409.777 388.497 409.401 388.51L409.401 388.51ZM401.921 285.501C392.485 278.9 354.635 271.661 331.167 267.664C325.629 266.725 320.54 264.027 316.657 259.969C312.773 255.91 310.3 250.709 309.605 245.135L305.134 245.532C281.762 334.847 248.703 289.536 248.703 289.536L249.177 291.781C251.655 302.185 257.539 310.779 269.529 313.372C269.529 313.372 296.356 322.779 350.358 316.856L355.932 316.508C355.932 316.508 338.086 358.006 328.099 376.955L343.845 382.336C349.1 384.029 354.229 386.197 359.619 387.513C362.307 388.188 365.045 388.648 367.807 388.888C370.544 389.147 373.296 389.208 376.042 389.071C378.725 388.978 381.38 388.489 383.92 387.62C386.348 386.78 388.441 385.182 389.891 383.062L389.901 383.042C390.004 382.899 390.14 382.783 390.298 382.704C390.501 381.658 390.704 380.623 390.907 379.578C391.865 374.729 392.93 369.9 394.014 365.071C395.127 360.261 396.278 355.441 397.527 350.661C398.766 345.87 400.082 341.099 401.572 336.367C401.572 336.367 415.856 295.256 401.92 285.501L401.921 285.501Z" fill="#3F5CEA"/>
<path d="M328.099 376.955C328.07 377.015 328.038 377.073 328.002 377.129C327.982 377.116 327.967 377.095 327.962 377.072C327.956 377.048 327.96 377.024 327.973 377.003C327.985 376.984 328.003 376.969 328.024 376.961C328.044 376.952 328.067 376.95 328.089 376.955H328.099Z" fill="white"/>
<path d="M411.259 379.5C411.243 379.531 411.224 379.56 411.201 379.587L411.153 379.355C411.183 379.352 411.214 379.359 411.24 379.374C411.255 379.391 411.265 379.412 411.269 379.434C411.272 379.456 411.269 379.479 411.259 379.5Z" fill="white"/>
<path d="M320.377 219.663C320.793 220.921 321.209 222.179 321.615 223.447C321.025 223.456 320.454 223.456 319.883 223.456C319.564 222.343 319.244 221.23 318.935 220.108C317.164 213.866 315.512 207.591 313.98 201.285C316.234 207.372 318.367 213.498 320.377 219.663Z" fill="#3F5CEA"/>
<path d="M336.674 275.687C334.429 269.6 332.296 263.474 330.277 257.309C328.748 252.683 327.277 248.038 325.825 243.392C326.493 243.315 327.132 243.238 327.741 243.16C329.106 247.718 330.451 252.286 331.728 256.864C333.5 263.106 335.148 269.38 336.674 275.687Z" fill="#3F5CEA"/>
<path d="M268.01 204.749L264.439 211.766H264.468C265.253 212.07 266.077 212.263 266.916 212.337C268.194 212.462 269.694 212.569 271.339 212.637C270.226 210.004 269.103 207.382 268.01 204.749ZM275.365 205.272L272.016 212.666C274.233 212.753 276.7 212.801 279.226 212.801L275.365 205.272ZM286.601 212.714L283.455 205.504L280.078 212.811C282.255 212.811 284.472 212.791 286.62 212.762C286.62 212.743 286.61 212.733 286.601 212.714H286.601ZM290.375 205.32L287.433 212.704C287.425 212.722 287.416 212.738 287.404 212.753C289.01 212.724 290.569 212.695 292.03 212.656L294.217 212.724L290.375 205.32ZM297.653 204.798L294.807 212.704C294.798 212.714 294.798 212.733 294.788 212.743L296.704 212.801C296.704 212.801 296.714 212.704 296.733 212.52C299.888 212.424 301.93 212.337 301.93 212.337L297.653 204.798ZM304.717 195.613C301.93 181.329 302.627 175.755 302.627 175.755C302.785 174.131 302.834 172.498 302.772 170.868C302.327 169.59 302.85 164.345 302.975 165.08C303.14 164.197 303.352 163.194 303.568 162.225C303.847 160.972 303.721 159.664 303.209 158.487C302.696 157.311 301.824 156.327 300.717 155.678L280.329 143.702C280.329 143.702 258.381 155.548 256.639 175.406C254.897 195.265 253.503 221.046 253.503 221.046L263.065 222.595L264.439 211.766L267.865 204.246C267.879 204.215 267.903 204.188 267.932 204.17C267.961 204.151 267.995 204.142 268.029 204.142C268.064 204.142 268.097 204.151 268.127 204.17C268.156 204.188 268.179 204.215 268.194 204.246V204.256C269.374 206.791 270.526 209.336 271.678 211.882L274.968 204.159C275.013 204.06 275.094 203.982 275.196 203.942C275.297 203.902 275.41 203.904 275.51 203.946C275.594 203.983 275.662 204.048 275.704 204.13L275.713 204.139L279.623 211.63L283.03 204.13C283.055 204.072 283.092 204.019 283.138 203.975C283.184 203.931 283.239 203.897 283.298 203.875C283.358 203.852 283.421 203.842 283.485 203.844C283.548 203.846 283.611 203.861 283.668 203.888C283.776 203.941 283.862 204.03 283.91 204.139L287.007 211.378L289.94 204.168H289.949C289.989 204.067 290.068 203.986 290.167 203.942C290.267 203.899 290.38 203.897 290.481 203.936C290.574 203.977 290.649 204.049 290.694 204.139L294.478 211.804L297.43 204.256H297.44C297.448 204.231 297.461 204.208 297.478 204.189C297.496 204.169 297.517 204.154 297.54 204.143C297.564 204.132 297.59 204.126 297.616 204.126C297.642 204.125 297.667 204.13 297.691 204.139C297.733 204.161 297.766 204.195 297.788 204.236L301.93 212.336C301.93 212.336 307.505 209.898 304.717 195.613H304.717ZM268.01 178.194C267.726 180.054 267.616 181.936 267.681 183.816C267.69 184.755 267.807 185.674 267.874 186.623C267.971 187.6 268.058 188.587 268.087 189.584C268.175 191.609 267.973 193.636 267.487 195.604C267.213 196.632 266.775 197.609 266.19 198.497C266.03 198.727 265.855 198.947 265.668 199.156L265.184 199.678C264.872 200.014 264.578 200.366 264.303 200.733C263.746 201.457 263.282 202.247 262.919 203.085C262.541 203.936 262.242 204.82 262.029 205.727C261.731 206.614 261.67 207.564 261.851 208.482C262.033 209.4 262.451 210.255 263.064 210.962C262.224 210.401 261.607 209.562 261.322 208.591C261.048 207.61 260.969 206.584 261.09 205.572C261.209 204.576 261.423 203.594 261.729 202.64C262.049 201.662 262.499 200.731 263.065 199.872C263.335 199.446 263.635 199.03 263.945 198.633L264.419 198.062C264.545 197.907 264.661 197.733 264.777 197.559C265.217 196.807 265.534 195.991 265.716 195.139C266.104 193.334 266.254 191.486 266.161 189.642C266.142 188.704 266.074 187.755 265.997 186.816C265.948 185.839 265.813 184.833 265.852 183.836C265.859 181.843 266.086 179.856 266.529 177.913C267.348 174.046 269.095 170.435 271.62 167.393C269.78 170.749 268.558 174.407 268.01 178.194H268.01ZM285.672 158.422C284.588 158.78 283.533 159.187 282.497 159.622C280.397 160.474 278.394 161.49 276.149 162.516C276.763 161.433 277.585 160.483 278.568 159.719C279.535 158.943 280.607 158.308 281.752 157.832C282.897 157.344 284.112 157.041 285.352 156.932C286.593 156.798 287.848 156.92 289.039 157.29C287.859 157.735 286.746 158.016 285.672 158.422H285.672Z" fill="#3F5CEA"/>
<path d="M255.664 216.675C256.045 220.656 256.132 224.637 256.148 228.618C256.134 232.599 256.047 236.58 255.664 240.561C255.282 236.58 255.194 232.599 255.181 228.618C255.197 224.637 255.284 220.656 255.664 216.675Z" fill="#3F5CEA"/>
<path d="M326.708 388.518C324.784 393.717 322.761 398.874 320.764 404.042L319.236 407.912C318.709 409.225 318.088 410.498 317.379 411.722C315.889 413.921 314.983 416.464 314.749 419.11C314.678 420.347 314.96 421.578 315.561 422.661C316.257 423.733 317.143 424.669 318.175 425.422C320.34 427.076 322.611 428.587 324.972 429.945C329.714 432.709 334.646 435.224 339.606 437.594L338.473 437.861C340.51 435.32 342.578 432.803 344.648 430.287L344.851 431.537C342.196 429.561 340.163 426.865 338.993 423.768C338.402 422.252 338.026 420.662 337.875 419.042C337.7 417.407 337.85 415.754 338.319 414.178C338.793 412.642 339.48 411.18 340.361 409.835L342.753 405.805C344.346 403.117 345.938 400.428 347.572 397.763C346.179 400.562 344.743 403.337 343.309 406.113L341.161 410.278C340.808 410.982 340.421 411.655 340.131 412.34C339.832 413.029 339.591 413.742 339.411 414.47C339.048 415.915 338.975 417.417 339.196 418.89C339.38 420.38 339.771 421.838 340.358 423.219C340.937 424.596 341.7 425.888 342.626 427.06C343.522 428.223 344.584 429.249 345.778 430.104L345.789 430.111C345.882 430.175 345.962 430.258 346.024 430.353C346.086 430.448 346.128 430.554 346.149 430.666C346.169 430.778 346.168 430.892 346.144 431.003C346.121 431.114 346.075 431.22 346.011 431.313L345.981 431.354C343.982 433.926 341.98 436.495 339.947 439.041C339.815 439.205 339.632 439.321 339.427 439.37C339.222 439.418 339.006 439.396 338.815 439.308C333.752 436.979 328.812 434.394 324.012 431.563C321.574 430.153 319.246 428.562 317.046 426.803C316.487 426.341 315.954 425.85 315.448 425.331C314.905 424.784 314.442 424.164 314.07 423.49C313.34 422.124 313.011 420.58 313.124 419.035C313.449 416.142 314.509 413.381 316.204 411.015C317.58 408.646 318.785 406.182 319.809 403.642C322.093 398.594 324.35 393.535 326.708 388.518Z" fill="#3F5CEA"/>
<path d="M306.461 429.044L310.99 421.379C310.99 421.379 338.165 434.27 339.21 438.451C339.21 438.451 344.591 429.107 341.901 425.392C341.901 425.392 371.611 439.844 374.747 450.993C374.747 450.993 374.747 465.626 306.461 429.044Z" fill="#3F5CEA"/>
<path d="M348.687 249.025L348.831 250.045C348.848 250.382 348.925 250.714 349.057 251.024C349.318 251.637 349.8 252.129 350.406 252.404C350.701 252.536 351.018 252.611 351.34 252.626C351.642 252.635 352.064 252.606 352.42 252.598L354.65 252.522C357.624 252.409 360.598 252.325 363.572 252.269C369.519 252.156 375.467 251.968 381.414 251.916C393.309 251.766 405.204 251.669 417.099 251.856L419.282 251.9C419.633 251.897 419.976 251.795 420.271 251.604C420.566 251.414 420.801 251.144 420.949 250.826C421.06 250.568 421.13 250.295 421.155 250.016L421.52 247.815L422.984 239.012L424.45 230.21L425.82 221.393C427.6 209.632 429.089 197.829 430.518 186.017C430.637 185.361 430.688 184.694 430.67 184.027C430.589 183.504 430.309 183.033 429.888 182.711C429.485 182.398 428.979 182.249 428.471 182.294C427.963 182.339 427.491 182.574 427.149 182.952C426.987 183.136 426.861 183.349 426.778 183.58C426.691 183.854 426.64 184.137 426.626 184.424L426.37 186.64L425.834 191.069C425.124 196.975 424.409 202.88 423.644 208.778C422.146 220.579 420.666 232.382 419.025 244.163L418.867 245.267C418.836 245.514 418.789 245.759 418.727 245.999C418.656 246.273 418.557 246.538 418.433 246.792C417.937 247.816 417.072 248.615 416.011 249.027C415.496 249.223 414.95 249.325 414.4 249.33L413.284 249.346L411.053 249.378C408.079 249.424 405.105 249.467 402.13 249.478L384.282 249.594C378.333 249.635 372.383 249.578 366.435 249.574C364.956 249.561 363.443 249.587 361.992 249.537L357.638 249.372L348.687 249.025ZM348.482 248.82L357.374 248.473L361.942 248.308L366.418 248.107C372.362 247.85 378.305 247.54 384.248 247.328L402.077 246.686C405.049 246.57 408.02 246.486 410.992 246.406L413.221 246.344L414.336 246.312C414.53 246.312 414.723 246.275 414.904 246.203C415.242 246.064 415.516 245.802 415.669 245.47C415.708 245.39 415.738 245.305 415.758 245.218C415.785 245.098 415.805 244.976 415.817 244.854L415.959 243.748C417.516 231.955 419.233 220.184 420.931 208.41C421.765 202.521 422.649 196.639 423.538 190.758L424.201 186.346L424.544 184.142C424.596 183.688 424.706 183.242 424.872 182.816C425.066 182.355 425.344 181.934 425.693 181.575C426.392 180.86 427.336 180.436 428.335 180.391C429.322 180.344 430.289 180.675 431.04 181.317C431.785 181.947 432.26 182.838 432.367 183.807C432.411 184.254 432.387 184.705 432.297 185.144L432.115 186.245C430.188 197.985 428.321 209.734 426.745 221.525L425.598 230.373L424.547 239.235L423.494 248.096L423.229 250.311C423.193 250.774 423.09 251.23 422.924 251.664C422.734 252.136 422.455 252.568 422.103 252.937C421.387 253.686 420.413 254.136 419.378 254.196L417.099 254.251C405.204 254.438 393.309 254.341 381.414 254.191C375.467 254.14 369.519 253.952 363.572 253.839C360.598 253.786 357.624 253.702 354.651 253.586L352.42 253.509C352.033 253.49 351.711 253.497 351.271 253.457C350.851 253.409 350.443 253.282 350.07 253.083C349.518 252.795 349.062 252.353 348.755 251.812C348.448 251.271 348.303 250.652 348.339 250.031C348.373 249.601 348.435 249.189 348.482 248.82V248.82Z" fill="#3F5CEA"/>
<path d="M332.068 125.416C332.068 125.416 315.171 125.938 310.99 123.674C310.99 123.674 312.384 117.577 307.854 118.099C303.325 118.622 305.038 127.506 307.317 127.506C307.317 127.506 300.712 134.126 294.964 132.21C294.964 132.21 285.898 107.473 305.499 101.028C325.1 94.5826 329.455 107.822 329.455 107.822C329.455 107.822 348.965 117.403 332.068 125.416" fill="#3F5CEA"/>
<path d="M294.875 132.171C295.359 131.078 296.139 130.144 297.128 129.473C298.108 128.805 299.187 128.296 300.326 127.964C301.46 127.629 302.62 127.389 303.794 127.246C304.975 127.098 306.165 127.041 307.354 127.074C307.468 127.077 307.576 127.126 307.655 127.209C307.733 127.292 307.776 127.402 307.774 127.516C307.771 127.63 307.724 127.739 307.642 127.818C307.559 127.898 307.449 127.942 307.335 127.94L307.317 127.94C307.048 127.925 306.786 127.852 306.548 127.727C306.309 127.602 306.1 127.428 305.934 127.216C305.64 126.872 305.396 126.489 305.208 126.078C304.843 125.293 304.591 124.46 304.459 123.604C304.312 122.738 304.295 121.855 304.41 120.984C304.513 120.021 304.905 119.112 305.536 118.377C305.895 117.988 306.334 117.682 306.824 117.48C307.296 117.3 307.795 117.2 308.299 117.183C308.823 117.159 309.346 117.239 309.838 117.42C310.372 117.62 310.842 117.962 311.196 118.41C311.789 119.224 312.121 120.198 312.15 121.205C312.202 122.106 312.138 123.01 311.959 123.895L311.463 122.8C312.096 123.083 312.764 123.277 313.45 123.376C314.187 123.507 314.954 123.59 315.725 123.655C317.271 123.789 318.843 123.852 320.421 123.882C323.585 123.939 326.743 123.902 329.988 124.002C330.397 124.02 330.808 124.043 331.244 124.09C331.484 124.115 331.722 124.154 331.958 124.209C332.159 124.254 332.352 124.333 332.527 124.441C332.639 124.516 332.738 124.608 332.819 124.715C332.945 124.886 333.017 125.092 333.024 125.305C333.031 125.519 332.973 125.729 332.857 125.908L332.813 125.976C332.465 126.61 332.176 127.274 331.949 127.96C331.424 129.386 331.049 130.863 330.832 132.368C330.796 132.631 330.798 132.898 330.839 133.161L331.298 134.251L331.763 135.352L331.998 135.913C332.161 136.309 332.22 136.74 332.169 137.165C332.119 137.591 331.961 137.996 331.71 138.343C331.381 138.791 330.912 139.116 330.377 139.268L328.09 139.96L328.477 139.603C327.613 141.429 326.599 143.18 325.444 144.837C324.864 145.672 324.216 146.458 323.507 147.187C322.789 147.951 321.926 148.563 320.968 148.988C319.97 149.329 318.903 149.414 317.865 149.235C316.862 149.091 315.876 148.85 314.92 148.516C313.024 147.862 311.188 147.046 309.433 146.076L309.851 145.997C307.014 149.713 304.292 153.52 301.5 157.271C301.416 157.385 301.299 157.469 301.164 157.512C301.03 157.555 300.885 157.554 300.751 157.511L300.745 157.509C298.854 156.825 297.041 155.942 295.336 154.875C293.633 153.89 291.997 152.813 290.361 151.742C287.116 149.557 283.957 147.256 280.887 144.839L280.853 144.812C280.794 144.766 280.744 144.708 280.707 144.643C280.671 144.577 280.647 144.505 280.638 144.431C280.629 144.356 280.635 144.28 280.656 144.208C280.676 144.136 280.71 144.068 280.757 144.009C280.794 143.962 280.839 143.921 280.889 143.887C283.432 142.191 285.941 140.414 288.38 138.557C289.604 137.632 290.775 136.64 291.915 135.618C293.081 134.636 294.08 133.471 294.875 132.171ZM295.052 132.248C294.26 133.583 293.261 134.784 292.093 135.806C291 136.894 289.835 137.901 288.689 138.932C286.38 140.975 284.003 142.93 281.572 144.841L281.574 143.888L291.321 150.293C292.934 151.371 294.571 152.411 296.201 153.446C297.017 153.961 297.845 154.454 298.671 154.934C299.464 155.414 300.295 155.829 301.156 156.173L300.4 156.41C303.372 152.799 306.415 149.244 309.341 145.597C309.39 145.536 309.459 145.495 309.536 145.48C309.613 145.466 309.692 145.479 309.76 145.517C311.453 146.51 313.246 147.323 315.108 147.943C316.031 148.247 316.98 148.462 317.944 148.584C318.871 148.731 319.82 148.643 320.704 148.33C321.555 147.927 322.307 147.343 322.908 146.619C323.549 145.894 324.128 145.117 324.641 144.297C325.676 142.645 326.565 140.907 327.297 139.1C327.329 139.021 327.378 138.948 327.441 138.888C327.503 138.829 327.577 138.782 327.658 138.753L327.684 138.743L329.929 137.925C330.16 137.858 330.36 137.713 330.495 137.515C330.631 137.317 330.694 137.078 330.674 136.839C330.663 136.727 330.633 136.617 330.586 136.514L330.34 135.983L329.835 134.9L329.328 133.807C329.216 133.53 329.154 133.236 329.145 132.938C329.132 132.705 329.134 132.471 329.15 132.238C329.32 130.579 329.685 128.945 330.237 127.371C330.493 126.539 330.831 125.735 331.249 124.971C331.258 124.955 331.306 124.882 331.284 124.913C331.206 125.032 331.164 125.171 331.162 125.314C331.157 125.499 331.213 125.68 331.323 125.829C331.371 125.898 331.433 125.957 331.505 126.002C331.618 126.07 331.561 126.033 331.517 126.029C331.363 125.999 331.208 125.977 331.051 125.965C330.695 125.934 330.31 125.919 329.924 125.91C326.801 125.861 323.588 126.022 320.383 125.945C318.777 125.915 317.165 125.864 315.538 125.715C314.724 125.633 313.907 125.531 313.079 125.37C312.189 125.223 311.326 124.946 310.517 124.547C310.328 124.449 310.177 124.291 310.086 124.099C309.996 123.907 309.97 123.69 310.014 123.482L310.021 123.452C310.306 122.111 310.331 120.398 309.724 119.557C309.559 119.35 309.345 119.186 309.101 119.082C308.858 118.977 308.592 118.934 308.328 118.957C308.035 118.932 307.74 118.967 307.462 119.061C307.184 119.155 306.928 119.305 306.711 119.503C306.288 120.061 305.982 120.698 305.81 121.376C305.637 122.055 305.603 122.761 305.708 123.453C305.761 124.206 305.919 124.947 306.179 125.656C306.413 126.332 306.895 127.042 307.317 127.072L307.28 127.938C306.139 127.823 304.992 127.794 303.847 127.852C302.694 127.895 301.549 128.056 300.43 128.335C299.307 128.599 298.239 129.054 297.272 129.681C296.306 130.312 295.537 131.202 295.052 132.248V132.248Z" fill="#3F5CEA"/>
<path d="M307.854 130.119L307.642 132.884C307.579 133.783 307.563 134.684 307.595 135.585C307.622 136.471 307.729 137.354 307.915 138.221C308.135 139.101 308.466 139.949 308.9 140.745C308.138 140.145 307.55 139.354 307.196 138.452C306.852 137.545 306.66 136.589 306.628 135.62C306.599 134.666 306.689 133.712 306.897 132.78C307.085 131.851 307.408 130.955 307.854 130.119Z" fill="#3F5CEA"/>
<path d="M293.078 116.361C293.078 116.361 278.24 107.244 291.131 99.2585C304.022 91.2726 305.499 101.028 305.499 101.028" fill="#3F5CEA"/>
<path d="M257.437 170.802C253.497 170.385 249.524 170.403 245.588 170.856C241.69 171.267 237.867 172.213 234.226 173.666L232.883 174.227L231.593 174.893C231.169 175.124 230.721 175.314 230.317 175.578L229.099 176.355C227.491 177.359 226.04 178.594 224.792 180.02C222.313 182.88 220.701 186.388 220.145 190.132C219.861 191.99 219.837 193.878 220.071 195.743C220.314 197.548 220.818 199.564 221.183 201.504C221.968 205.414 222.751 209.324 223.479 213.245C224.96 221.093 226.247 228.946 227.804 236.757C230.839 252.408 234.531 267.923 238.482 283.37C242.455 298.813 246.327 314.28 250.101 329.768L248.947 328.687C253.096 329.346 257.276 329.955 261.449 330.538C265.622 331.137 269.797 331.725 273.977 332.269C282.331 333.407 290.697 334.421 299.077 335.309C307.455 336.19 315.855 336.833 324.258 337.117C328.453 337.262 332.652 337.18 336.838 336.871C338.923 336.724 340.992 336.415 343.028 335.946C344.036 335.705 345.022 335.378 345.974 334.967C346.931 334.582 347.784 333.981 348.468 333.21C348.48 333.195 348.495 333.182 348.511 333.173C348.528 333.163 348.546 333.157 348.565 333.155C348.584 333.152 348.603 333.154 348.621 333.159C348.64 333.164 348.657 333.173 348.672 333.184C348.7 333.208 348.719 333.241 348.725 333.278C348.73 333.314 348.722 333.352 348.701 333.383C348.045 334.256 347.194 334.965 346.216 335.453C345.262 335.952 344.263 336.361 343.232 336.674C341.184 337.288 339.09 337.74 336.971 338.027C332.753 338.585 328.505 338.882 324.25 338.917C315.755 339.1 307.283 338.593 298.836 337.975C290.386 337.358 281.969 336.412 273.572 335.35C269.377 334.79 265.185 334.21 261.001 333.576C256.818 332.922 252.648 332.246 248.466 331.512L248.45 331.509C248.175 331.461 247.921 331.333 247.719 331.141C247.516 330.949 247.375 330.702 247.312 330.43C243.724 314.893 240.299 299.318 237.038 283.707C233.767 268.096 230.226 252.547 226.415 237.061C225.471 233.188 224.551 229.295 223.683 225.398C222.817 221.507 221.903 217.627 221.076 213.729C220.224 209.837 219.426 205.934 218.63 202.03C218.244 200.058 217.811 198.19 217.53 196.044C217.291 193.945 217.343 191.823 217.686 189.738C218.37 185.551 220.263 181.655 223.131 178.528C224.546 176.979 226.199 175.667 228.029 174.639L229.366 173.866C229.81 173.606 230.292 173.422 230.753 173.196L232.15 172.552L233.589 172.02C237.416 170.643 241.429 169.856 245.492 169.684C249.51 169.463 253.54 169.743 257.49 170.517C257.526 170.524 257.558 170.546 257.579 170.576C257.6 170.607 257.609 170.644 257.603 170.681C257.598 170.718 257.578 170.751 257.549 170.774C257.519 170.796 257.482 170.807 257.445 170.803L257.437 170.802Z" fill="#3F5CEA"/>
<path d="M253.585 306.292C251.486 299.645 249.611 292.945 247.875 286.211C246.14 279.478 244.478 272.726 243.082 265.913L241.141 255.659C240.514 252.237 239.882 248.816 239.165 245.414C237.757 238.605 236.059 231.863 234.458 225.079C232.807 218.322 231.228 211.553 229.768 204.76L228.664 199.667C228.226 197.902 227.94 196.102 227.808 194.288C227.615 190.547 228.362 186.818 229.979 183.441C231.629 180.072 234.131 177.193 237.237 175.09C240.274 173.115 243.616 171.652 247.128 170.762C254.018 169.065 261.206 168.98 268.134 170.512C268.17 170.52 268.201 170.541 268.222 170.571C268.244 170.601 268.252 170.638 268.247 170.675C268.242 170.711 268.223 170.744 268.194 170.767C268.165 170.79 268.129 170.801 268.092 170.798L268.081 170.797C261.235 170.183 254.336 170.916 247.772 172.956C244.59 173.979 241.582 175.477 238.847 177.398C236.234 179.308 234.145 181.847 232.772 184.778C231.4 187.712 230.736 190.926 230.832 194.164C230.907 195.82 231.125 197.466 231.482 199.085L232.444 204.212C233.739 211.046 234.914 217.903 236.017 224.772C237.117 231.626 238.473 238.438 240.084 245.208L241.354 250.264L242.716 255.3L245.437 265.371C247.162 272.105 248.644 278.895 250.066 285.7C251.487 292.505 252.783 299.34 253.867 306.226C253.873 306.262 253.865 306.299 253.844 306.329C253.824 306.36 253.793 306.382 253.757 306.39C253.721 306.398 253.684 306.393 253.652 306.375C253.62 306.357 253.596 306.327 253.585 306.292H253.585Z" fill="#3F5CEA"/>
<path d="M238.871 288.305C241.153 290.919 243.368 293.503 245.621 296.032C247.875 298.558 250.196 300.991 252.606 303.301C254.986 305.61 257.571 307.699 260.328 309.543C263.113 311.414 266.241 312.717 269.531 313.376C265.986 313.837 262.386 313.189 259.225 311.522C256.054 309.939 253.147 307.875 250.606 305.405C248.089 302.982 245.824 300.31 243.848 297.428C241.839 294.591 240.169 291.529 238.871 288.305Z" fill="#3F5CEA"/>
<path d="M248.842 330.151C245.742 339.739 242.529 349.279 239.201 358.773L234.212 373.013C232.556 377.763 230.858 382.496 229.116 387.213C225.622 396.644 222.004 406.039 218.851 415.591C217.306 420.376 215.843 425.189 214.582 430.05C213.967 432.483 213.351 434.92 212.904 437.379C212.362 439.77 212.097 442.215 212.115 444.666L210.653 444.395C214.761 434.99 218.879 425.589 223.088 416.232L235.669 388.145L248.466 360.164C250.572 355.491 252.76 350.849 254.792 346.145C256.876 341.459 258.913 336.763 260.709 331.96L260.712 331.952C260.725 331.917 260.751 331.889 260.785 331.873C260.819 331.856 260.857 331.854 260.893 331.865C260.929 331.877 260.958 331.902 260.976 331.935C260.994 331.968 260.998 332.006 260.988 332.042C260.299 334.516 259.601 337.007 258.737 339.427L257.499 343.084L256.161 346.7C255.273 349.114 254.358 351.515 253.415 353.905C252.484 356.3 251.565 358.702 250.577 361.072C246.742 370.606 242.641 380.023 238.501 389.42C234.32 398.799 229.929 408.08 225.552 417.367C221.179 426.656 216.652 435.871 212.043 445.049L212.012 445.112C211.936 445.263 211.811 445.385 211.657 445.457C211.504 445.529 211.33 445.547 211.165 445.508C211 445.47 210.853 445.377 210.747 445.244C210.641 445.112 210.583 444.948 210.582 444.778C210.66 442.192 211.046 439.625 211.731 437.13C212.316 434.664 212.971 432.228 213.655 429.801C215.024 424.947 216.479 420.125 217.941 415.305C220.834 405.657 223.694 395.991 226.818 386.411C229.994 376.851 233.482 367.401 237.097 358.002C240.716 348.604 244.505 339.27 248.571 330.047C248.586 330.013 248.613 329.986 248.648 329.972C248.682 329.957 248.721 329.957 248.756 329.97C248.791 329.983 248.819 330.01 248.835 330.043C248.851 330.077 248.854 330.116 248.842 330.151L248.842 330.151Z" fill="#3F5CEA"/>
<path d="M272.801 333.672C272.885 339.779 272.692 345.862 272.459 351.942C272.337 354.982 272.189 358.019 272.015 361.054C271.863 364.091 271.655 367.124 271.391 370.153C270.878 376.212 270.078 382.258 269.708 388.328C269.523 391.362 269.416 394.401 269.406 397.437C269.42 398.954 269.418 400.472 269.51 401.98C269.553 402.734 269.605 403.486 269.684 404.224C269.725 404.591 269.772 404.958 269.837 405.301C269.866 405.462 269.904 405.62 269.951 405.775C269.965 405.825 269.984 405.873 270.009 405.919C270.018 405.937 270.015 405.919 269.99 405.887C269.945 405.832 269.89 405.786 269.828 405.753C269.765 405.719 269.697 405.699 269.626 405.692L270.225 406.157C270.249 406.194 270.342 406.328 270.385 406.341C270.441 406.371 270.423 406.358 270.415 406.34C270.558 406.241 270.689 406.125 270.805 405.995C271.231 405.439 271.588 404.832 271.868 404.19C272.473 402.785 272.992 401.345 273.422 399.878C274.318 396.915 275.098 393.889 275.819 390.847C277.243 384.754 278.447 378.593 279.669 372.433L283.431 353.948C284.707 347.784 285.997 341.617 287.446 335.469C287.455 335.433 287.476 335.402 287.507 335.381C287.537 335.36 287.574 335.352 287.611 335.358C287.647 335.363 287.68 335.383 287.703 335.411C287.725 335.44 287.736 335.477 287.733 335.513C287.232 341.809 286.556 348.083 285.706 354.336C284.876 360.591 283.881 366.822 282.722 373.031C281.52 379.231 280.122 385.4 278.445 391.517C277.6 394.574 276.707 397.626 275.553 400.619C274.989 402.141 274.317 403.621 273.541 405.047C273.125 405.818 272.609 406.532 272.008 407.169C271.588 407.625 271.004 407.896 270.385 407.922C269.998 407.91 269.63 407.754 269.354 407.483C269.126 407.268 268.949 407.004 268.836 406.711L269.435 407.176C269.199 407.139 268.986 407.014 268.84 406.826C268.773 406.741 268.718 406.648 268.676 406.549C268.621 406.422 268.578 406.29 268.547 406.154C268.499 405.942 268.464 405.727 268.441 405.51C268.394 405.101 268.374 404.709 268.36 404.318C268.333 403.539 268.337 402.77 268.349 402.003C268.385 400.47 268.403 398.945 268.467 397.421L268.732 388.287C268.87 382.2 268.739 376.095 268.948 370.007C269.045 366.963 269.215 363.924 269.46 360.889C269.677 357.853 269.934 354.82 270.229 351.789C270.83 345.73 271.506 339.676 272.511 333.65C272.517 333.614 272.536 333.581 272.565 333.559C272.594 333.536 272.63 333.525 272.666 333.528C272.702 333.531 272.736 333.547 272.761 333.574C272.786 333.6 272.8 333.635 272.801 333.672L272.801 333.672Z" fill="#3F5CEA"/>
<path d="M359.571 402.142C361.18 406.101 362.496 410.133 363.756 414.18C364.993 418.233 366.188 422.296 367.112 426.432C368.017 430.572 368.698 434.778 369.822 438.86C370.368 440.906 370.986 442.929 371.676 444.93C372.007 445.933 372.402 446.916 372.786 447.893C372.98 448.381 373.18 448.866 373.39 449.335C373.494 449.569 373.602 449.802 373.714 450.013C373.769 450.124 373.827 450.213 373.88 450.301C373.9 450.323 373.938 450.375 373.938 450.375C373.931 450.359 373.921 450.345 373.908 450.335C373.896 450.324 373.92 450.348 373.878 450.309C373.837 450.272 373.791 450.24 373.741 450.215C373.639 450.163 373.525 450.139 373.41 450.146C373.383 450.148 373.359 450.16 373.341 450.18C373.323 450.2 373.314 450.226 373.315 450.253C373.316 450.28 373.328 450.305 373.347 450.323C373.367 450.341 373.393 450.351 373.42 450.351L373.948 450.338C373.967 450.338 374.103 450.357 374.035 450.327C373.975 450.318 373.943 450.336 373.995 450.26C374.134 449.924 374.214 449.567 374.233 449.204C374.301 448.257 374.29 447.305 374.2 446.36C374.045 444.395 373.748 442.401 373.41 440.413C372.698 436.435 371.813 432.464 370.972 428.478C370.155 424.486 369.282 420.497 368.493 416.48C367.694 412.466 366.915 408.439 366.28 404.365C366.274 404.329 366.282 404.293 366.301 404.263C366.321 404.232 366.351 404.21 366.385 404.201C366.42 404.191 366.457 404.195 366.489 404.211C366.521 404.227 366.547 404.254 366.56 404.288C368.09 408.115 369.465 411.992 370.687 415.918C371.927 419.838 373.024 423.802 373.978 427.809C374.926 431.833 375.654 435.906 376.158 440.009C376.431 442.089 376.579 444.184 376.602 446.282C376.605 447.384 376.498 448.484 376.282 449.565C376.161 450.219 375.899 450.84 375.513 451.383C375.357 451.586 375.162 451.755 374.939 451.88C374.716 452.005 374.47 452.083 374.215 452.109C373.961 452.129 373.705 452.09 373.467 451.997C373.25 451.916 373.049 451.798 372.872 451.648L373.409 451.841C373.189 451.828 372.979 451.747 372.807 451.611C372.784 451.593 372.763 451.573 372.744 451.55C372.688 451.489 372.636 451.424 372.587 451.357C372.516 451.249 372.487 451.183 372.438 451.093C372.37 450.945 372.305 450.799 372.258 450.666C372.152 450.394 372.065 450.134 371.981 449.873C371.814 449.353 371.664 448.837 371.521 448.321L370.69 445.233C370.138 443.181 369.56 441.142 368.934 439.116C367.718 435.054 366.138 431.093 364.812 427.059C363.507 423.02 362.505 418.898 361.567 414.762C360.651 410.619 359.812 406.457 359.29 402.215C359.286 402.179 359.294 402.144 359.314 402.114C359.334 402.085 359.364 402.064 359.399 402.055C359.433 402.046 359.47 402.05 359.501 402.066C359.533 402.082 359.558 402.109 359.571 402.142L359.571 402.142Z" fill="#3F5CEA"/>
<path d="M440.97 267.5C441.507 282.612 441.744 297.723 441.95 312.835C442.111 327.946 442.203 343.058 442.034 358.17L441.634 380.837C441.484 388.393 441.344 395.949 441.296 403.504C441.238 411.06 441.289 418.616 441.336 426.172L441.367 431.839L441.408 434.672L441.418 435.38C441.42 435.651 441.4 435.921 441.359 436.188C441.271 436.73 441.085 437.251 440.809 437.725C440.247 438.688 439.352 439.41 438.293 439.755C437.776 439.913 437.237 439.988 436.696 439.978L435.28 439.999L429.613 440.084L423.946 440.182L421.112 440.231L420.755 440.237C420.609 440.238 420.463 440.233 420.316 440.222C420.019 440.199 419.724 440.147 419.437 440.067C418.87 439.905 418.335 439.647 417.856 439.304C416.879 438.595 416.2 437.547 415.954 436.365C415.894 436.074 415.859 435.779 415.85 435.482L415.824 434.774L415.775 433.358L415.605 427.694L414.965 405.035C414.58 389.928 414.173 374.821 413.928 359.712C413.504 329.491 413.27 299.267 413.621 269.032C413.622 268.994 413.637 268.958 413.664 268.931C413.69 268.904 413.726 268.889 413.764 268.888C413.802 268.887 413.838 268.901 413.866 268.927C413.893 268.953 413.91 268.989 413.912 269.026C415.402 299.227 416.308 329.438 417.024 359.653C417.348 374.762 417.511 389.873 417.696 404.984L417.908 427.651L417.949 433.319L417.952 434.735L417.953 435.444C417.952 435.62 417.966 435.795 417.995 435.969C418.114 436.661 418.487 437.284 419.041 437.716C419.325 437.933 419.643 438.101 419.983 438.213C420.149 438.266 420.32 438.302 420.493 438.322C420.582 438.332 420.672 438.339 420.762 438.341L421.113 438.347L423.946 438.396L429.613 438.494L435.28 438.579L436.696 438.601C437.101 438.626 437.508 438.586 437.9 438.48C438.471 438.312 438.985 437.99 439.385 437.549C439.785 437.108 440.057 436.566 440.17 435.982C440.206 435.783 440.227 435.582 440.233 435.38L440.243 434.672L440.284 431.839L440.315 426.172C440.361 418.616 440.413 411.06 440.355 403.504C440.307 395.949 440.167 388.393 440.017 380.837L439.617 358.17C439.448 343.058 439.54 327.946 439.7 312.835C439.907 297.723 440.144 282.612 440.68 267.5C440.682 267.462 440.697 267.427 440.725 267.401C440.752 267.374 440.788 267.36 440.825 267.36C440.863 267.36 440.899 267.374 440.926 267.401C440.953 267.427 440.969 267.462 440.971 267.5H440.97Z" fill="#3F5CEA"/>
<path d="M484.802 253.054H367.121C364.983 253.054 363.25 254.787 363.25 256.925V264.353C363.25 266.491 364.983 268.224 367.121 268.224H484.802C486.94 268.224 488.673 266.491 488.673 264.353V256.925C488.673 254.787 486.94 253.054 484.802 253.054Z" fill="#3F5CEA"/>
<path d="M323.678 142.052C323.677 142.688 323.439 143.301 323.013 143.772C322.586 144.243 322 144.54 321.367 144.604C321.02 144.638 320.67 144.6 320.338 144.493C320.007 144.386 319.701 144.211 319.439 143.98C319.167 143.738 318.949 143.441 318.799 143.109C318.65 142.777 318.573 142.416 318.573 142.052C318.572 141.688 318.649 141.327 318.799 140.995C318.948 140.662 319.166 140.365 319.438 140.123C319.699 139.892 320.005 139.717 320.337 139.609C320.669 139.502 321.02 139.464 321.367 139.498C322 139.563 322.586 139.86 323.013 140.332C323.439 140.804 323.677 141.416 323.678 142.052ZM323.678 142.052C323.677 141.752 323.611 141.455 323.486 141.182C323.361 140.908 323.179 140.664 322.953 140.466C322.737 140.28 322.484 140.141 322.211 140.058C321.938 139.975 321.651 139.95 321.367 139.984C320.863 140.047 320.398 140.292 320.062 140.673C319.725 141.054 319.539 141.545 319.539 142.054C319.539 142.562 319.725 143.053 320.062 143.434C320.398 143.815 320.863 144.06 321.367 144.123C321.651 144.157 321.938 144.132 322.212 144.048C322.485 143.965 322.738 143.826 322.954 143.639C323.18 143.441 323.361 143.197 323.486 142.923C323.611 142.65 323.677 142.353 323.678 142.052Z" fill="#3F5CEA"/>
<path d="M326.198 131.859C326.48 131.849 326.748 131.73 326.944 131.527C327.14 131.324 327.25 131.052 327.25 130.77C327.25 130.487 327.14 130.216 326.944 130.013C326.748 129.81 326.48 129.691 326.198 129.681C325.916 129.691 325.649 129.81 325.452 130.013C325.256 130.216 325.146 130.487 325.146 130.77C325.146 131.052 325.256 131.324 325.452 131.527C325.649 131.73 325.916 131.849 326.198 131.859Z" fill="#3F5CEA"/>
<path d="M325.333 126.337C325.851 126.318 326.369 126.395 326.859 126.564C327.35 126.721 327.816 126.944 328.247 127.226C328.687 127.515 329.074 127.875 329.394 128.293C329.727 128.714 329.926 129.226 329.963 129.762C329.27 129.114 328.516 128.535 327.712 128.032C326.887 127.514 326.092 126.948 325.333 126.337Z" fill="#3F5CEA"/>
<path d="M265.346 240.658L253.601 240.802L253.83 240.635C251.903 247.298 250.448 254.089 249.475 260.956C248.418 267.794 248.065 274.721 248.422 281.631C248.599 285.064 249.106 288.471 249.937 291.807C250.734 295.12 251.997 298.304 253.688 301.262C255.371 304.196 257.686 306.718 260.466 308.646C263.269 310.529 266.403 311.866 269.702 312.585L269.774 312.605L269.799 312.613C273.227 313.649 276.717 314.469 280.249 315.066C283.793 315.7 287.364 316.198 290.948 316.597C298.121 317.415 305.332 317.867 312.551 317.952C314.356 318.01 316.162 318.004 317.968 317.981L323.387 317.937L328.806 317.77L331.515 317.682L334.222 317.521L339.636 317.2C341.44 317.09 343.243 316.896 345.048 316.748L350.46 316.278L355.9 315.98L355.909 315.98C355.978 315.976 356.048 315.986 356.114 316.009C356.179 316.032 356.24 316.068 356.292 316.114C356.343 316.161 356.386 316.217 356.416 316.28C356.446 316.342 356.463 316.41 356.467 316.48C356.471 316.563 356.456 316.646 356.423 316.723C353.808 322.657 351.161 328.575 348.482 334.476C345.832 340.392 343.148 346.292 340.428 352.177C337.698 358.056 334.921 363.915 332.098 369.753C330.672 372.665 329.221 375.566 327.689 378.43C326.922 379.86 326.137 381.283 325.296 382.68C324.872 383.376 324.436 384.067 323.961 384.741C323.721 385.083 323.463 385.412 323.189 385.727C323.045 385.894 322.888 386.05 322.719 386.192C322.511 386.387 322.247 386.511 321.964 386.546L322.124 385.876C327.237 388.425 332.447 390.797 337.683 393.089C342.926 395.37 348.218 397.535 353.576 399.508C358.907 401.526 364.359 403.205 369.901 404.535C372.641 405.195 375.438 405.59 378.253 405.715C379.615 405.778 380.978 405.642 382.301 405.314C382.904 405.192 383.476 404.946 383.98 404.592C384.483 404.239 384.908 403.784 385.228 403.258L385.164 403.422L387.548 394.001C387.592 393.826 387.693 393.672 387.835 393.562C387.977 393.451 388.152 393.391 388.332 393.392L388.346 393.392C392.656 393.406 396.99 393.285 401.288 393.016C403.435 392.872 405.582 392.689 407.685 392.37C408.723 392.222 409.752 392.014 410.766 391.748C411.241 391.623 411.704 391.459 412.151 391.257C412.449 391.152 412.713 390.97 412.918 390.729L412.875 391.268L406.704 363.935L400.584 336.591C400.544 336.413 400.553 336.228 400.61 336.055L400.616 336.038C402.709 329.76 404.368 323.347 405.581 316.841C406.188 313.599 406.619 310.327 406.871 307.038C407.15 303.781 407.099 300.503 406.718 297.256C406.515 295.664 406.169 294.093 405.685 292.563C405.199 291.076 404.486 289.672 403.572 288.402C402.621 287.18 401.42 286.175 400.049 285.453C399.357 285.04 398.638 284.673 397.897 284.355L396.793 283.834L395.647 283.382C389.444 281.046 383.098 279.106 376.649 277.574C363.735 274.38 350.666 271.742 337.566 269.307L332.649 268.411C331.83 268.262 331.013 268.126 330.181 267.93L328.939 267.654L327.724 267.281C322.882 265.743 318.592 262.831 315.374 258.899C312.157 254.967 310.151 250.185 309.601 245.135C309.795 245.124 309.658 245.154 309.704 245.161L309.71 245.2L309.724 245.276L309.751 245.43L309.806 245.736L309.916 246.349C309.978 246.759 310.06 247.166 310.162 247.568C310.352 248.375 310.583 249.171 310.854 249.955L311.267 251.126C311.417 251.511 311.599 251.884 311.764 252.264C312.095 253.022 312.469 253.76 312.884 254.476C314.517 257.353 316.695 259.886 319.294 261.932C321.865 263.992 324.818 265.524 327.983 266.44L329.163 266.783L330.366 267.029C331.16 267.205 331.989 267.33 332.812 267.466L337.746 268.285C350.897 270.521 364.03 272.917 377.028 276.035C383.569 277.521 390.008 279.424 396.308 281.729L397.491 282.183L398.654 282.718C399.447 283.051 400.218 283.435 400.961 283.869C402.551 284.698 403.948 285.854 405.061 287.26C406.116 288.686 406.942 290.267 407.509 291.947C408.046 293.592 408.426 295.284 408.645 297C409.051 300.378 409.113 303.788 408.83 307.178C408.58 310.539 408.148 313.883 407.535 317.196C406.317 323.806 404.646 330.324 402.531 336.703L402.563 336.15L408.637 363.504L414.66 390.87L414.674 390.933C414.71 391.094 414.689 391.261 414.617 391.409C414.261 392.103 413.657 392.637 412.925 392.905C412.383 393.148 411.821 393.346 411.246 393.495C410.16 393.775 409.06 393.992 407.949 394.144C405.76 394.464 403.579 394.637 401.398 394.771C397.035 395.032 392.688 395.073 388.323 395.017L389.121 394.409L386.627 403.801L386.624 403.812C386.61 403.865 386.589 403.916 386.563 403.965C386.143 404.668 385.58 405.276 384.913 405.751C384.245 406.225 383.486 406.557 382.684 406.723C381.222 407.073 379.716 407.209 378.215 407.125C375.31 406.964 372.427 406.524 369.606 405.81C364.028 404.403 358.544 402.645 353.188 400.545C342.471 396.432 332.052 391.643 321.804 386.507C321.737 386.474 321.682 386.42 321.648 386.353C321.614 386.286 321.602 386.211 321.614 386.137C321.626 386.063 321.661 385.995 321.714 385.942C321.768 385.89 321.836 385.855 321.91 385.845L321.964 385.837C322.237 385.698 322.477 385.5 322.666 385.258C322.924 384.963 323.168 384.655 323.394 384.335C323.856 383.687 324.289 383.009 324.71 382.323C325.547 380.948 326.335 379.536 327.105 378.115C328.643 375.27 330.106 372.381 331.543 369.48C334.425 363.679 337.154 357.802 339.839 351.906C342.526 346.01 345.172 340.096 347.779 334.164C350.368 328.224 352.923 322.27 355.444 316.301L355.967 317.044L350.558 317.424L345.15 317.977C343.346 318.152 341.548 318.373 339.738 318.51L334.307 318.915L331.591 319.117L328.871 319.247L323.428 319.496C321.613 319.563 319.795 319.561 317.978 319.589C316.162 319.621 314.345 319.635 312.528 319.586C305.253 319.535 297.985 319.114 290.752 318.324C287.135 317.917 283.532 317.383 279.945 316.721C276.333 316.088 272.765 315.227 269.263 314.14L269.359 314.167C265.857 313.382 262.535 311.941 259.57 309.919C256.625 307.85 254.177 305.154 252.401 302.024C250.646 298.935 249.353 295.606 248.563 292.142C247.762 288.715 247.292 285.219 247.16 281.702C246.899 274.71 247.356 267.71 248.524 260.812C249.639 253.927 251.26 247.134 253.373 240.487C253.388 240.439 253.419 240.396 253.46 240.366C253.501 240.336 253.551 240.321 253.602 240.321L265.347 240.464C265.372 240.465 265.396 240.475 265.414 240.493C265.432 240.511 265.442 240.536 265.442 240.561C265.442 240.587 265.432 240.611 265.414 240.629C265.396 240.647 265.372 240.658 265.347 240.658L265.346 240.658Z" fill="#3F5CEA"/>
<path d="M309.271 222.767C309.7 219.777 310.075 216.823 310.345 213.852C310.627 210.883 310.803 207.91 311.049 204.932C311.321 201.956 311.632 198.96 311.666 195.958C311.671 192.956 311.486 189.955 311.111 186.976L310.02 178.044L308.878 169.131L308.356 164.667L308.097 162.434L307.972 161.315L307.823 160.254C307.643 158.875 307.082 157.574 306.202 156.497C305.732 155.995 305.146 155.616 304.496 155.394C303.802 155.18 303.073 155.105 302.35 155.173L302.311 154.983C303.076 154.719 303.894 154.653 304.691 154.79C305.488 154.927 306.238 155.264 306.87 155.768C308.082 156.872 308.935 158.314 309.32 159.908C310.04 162.948 310.477 165.859 310.93 168.864C311.341 171.853 311.602 174.86 311.827 177.868C312.075 180.875 312.163 183.895 312.16 186.913C312.172 189.931 312.176 192.94 312.295 195.949C312.416 198.958 312.662 201.976 312.662 205.005C312.622 208.036 312.344 211.06 311.831 214.047C311.357 217.048 310.561 219.989 309.458 222.819L309.271 222.767Z" fill="#3F5CEA"/>
<path d="M296.802 212.805L296.954 218.96H296.457L296.333 212.805L296.693 213.178C291.311 213.132 285.931 212.99 280.55 212.897C275.169 212.804 269.789 212.681 264.41 212.527L265.185 211.905C264.475 216.118 264.056 220.374 263.931 224.643C263.868 226.769 263.915 228.896 264.073 231.016C264.207 233.114 264.532 235.195 265.042 237.234C265.497 239.218 266.394 241.074 267.666 242.663C268.297 243.396 269.077 243.986 269.953 244.393C270.891 244.775 271.868 245.054 272.866 245.225C277.085 245.859 281.351 246.129 285.617 246.032C294.211 245.985 302.823 245.432 311.399 244.629C319.983 243.872 328.538 242.779 337.068 241.589C337.105 241.584 337.143 241.584 337.18 241.59L337.188 241.592C340.485 242.155 343.806 242.631 347.129 243.012C350.44 243.421 353.771 243.647 357.107 243.69C357.936 243.695 358.762 243.667 359.579 243.614C360.367 243.591 361.149 243.471 361.908 243.259C362.62 243.03 363.276 242.656 363.836 242.161C364.395 241.665 364.844 241.058 365.156 240.378C365.81 238.938 366.17 237.382 366.215 235.801C366.297 234.189 366.202 232.573 365.932 230.981L365.931 230.976C365.902 230.804 365.928 230.626 366.007 230.469C366.085 230.312 366.211 230.185 366.367 230.105L376.783 224.78L376.86 224.746L376.902 224.73C377.943 224.394 378.886 223.809 379.648 223.025C379.769 222.903 379.856 222.753 379.902 222.587C379.947 222.422 379.948 222.247 379.905 222.081C379.848 221.9 379.755 221.732 379.631 221.588C379.507 221.445 379.355 221.328 379.184 221.245C378.809 221.06 378.382 221.013 377.977 221.112L376.172 221.591L372.489 222.538C370.027 223.149 367.56 223.738 365.044 224.225C363.752 224.496 362.443 224.674 361.126 224.758C360.93 224.764 360.734 224.759 360.539 224.743C360.307 224.724 360.079 224.678 359.858 224.606C359.501 224.496 359.153 224.359 358.818 224.193C358.574 224.073 358.351 223.913 358.16 223.72C357.992 223.549 357.867 223.34 357.797 223.11C357.715 222.834 357.719 222.54 357.808 222.266C357.916 221.962 358.096 221.689 358.333 221.47C358.478 221.33 358.631 221.199 358.792 221.078C359.862 220.31 360.981 219.611 362.141 218.987C362.717 218.676 363.313 218.386 363.9 218.12C364.185 217.989 364.497 217.853 364.683 217.752C364.725 217.73 364.757 217.706 364.733 217.724C364.621 217.823 364.547 217.958 364.521 218.106C364.478 218.273 364.503 218.45 364.589 218.599C364.621 218.655 364.635 218.662 364.628 218.655C364.466 218.535 364.288 218.438 364.099 218.367C363.844 218.262 363.583 218.171 363.317 218.096C362.752 217.938 362.177 217.816 361.596 217.733C358.008 217.204 354.344 217.809 351.115 219.463C348.914 220.497 346.882 221.858 345.087 223.499L345.075 223.51C344.911 223.659 344.7 223.745 344.479 223.753C339.063 223.938 333.649 224.07 328.236 224.151C322.816 224.192 317.411 224.308 311.947 223.89C311.244 223.836 310.545 223.74 309.854 223.6C309.655 223.557 309.459 223.498 309.269 223.425C308.989 223.298 308.921 223.243 308.755 223.155L307.883 222.673C306.71 222.056 305.496 221.522 304.248 221.075C301.756 220.171 299.111 219.765 296.462 219.88C293.792 220.043 291.162 220.608 288.661 221.557C286.122 222.453 283.642 223.56 281.059 224.394C281.035 224.402 281.008 224.4 280.986 224.389C280.963 224.377 280.946 224.357 280.937 224.333C280.929 224.309 280.931 224.283 280.942 224.26C280.953 224.237 280.972 224.219 280.996 224.211C283.529 223.279 285.953 222.079 288.479 221.072C291.005 219.999 293.679 219.314 296.41 219.039C299.177 218.832 301.959 219.177 304.591 220.055C305.903 220.484 307.184 221.006 308.422 221.615L309.339 222.089C309.473 222.158 309.695 222.278 309.726 222.284C309.853 222.326 309.984 222.359 310.116 222.384C310.754 222.492 311.399 222.561 312.046 222.592C317.384 222.824 322.809 222.655 328.2 222.51C333.598 222.342 338.996 222.116 344.393 221.833L343.785 222.086C345.711 220.295 347.902 218.811 350.281 217.688C353.855 215.857 357.909 215.18 361.884 215.751C362.554 215.845 363.218 215.982 363.87 216.163C364.212 216.259 364.549 216.375 364.878 216.51C365.28 216.664 365.654 216.885 365.985 217.162C366.119 217.283 366.235 217.423 366.33 217.577C366.499 217.849 366.561 218.175 366.503 218.491C366.445 218.806 366.271 219.089 366.016 219.283C365.908 219.371 365.792 219.448 365.67 219.515C365.301 219.715 365.03 219.825 364.742 219.96C364.18 220.218 363.641 220.483 363.106 220.775C362.043 221.353 361.018 221.997 360.035 222.703C359.944 222.772 359.856 222.846 359.773 222.925C359.711 222.976 359.694 223.049 359.758 222.896C359.796 222.773 359.796 222.641 359.759 222.517C359.737 222.439 359.697 222.367 359.645 222.305C359.605 222.27 359.672 222.328 359.761 222.37C359.994 222.481 360.236 222.573 360.484 222.647L360.586 222.68L360.618 222.683C360.654 222.693 360.691 222.698 360.728 222.698C360.848 222.709 360.968 222.713 361.088 222.71C362.293 222.638 363.492 222.484 364.676 222.247C367.126 221.798 369.582 221.237 372.028 220.655L375.695 219.75L377.558 219.276C378.395 219.084 379.272 219.194 380.036 219.586C380.432 219.788 380.781 220.068 381.064 220.41C381.347 220.752 381.557 221.149 381.681 221.575C381.815 222.04 381.819 222.533 381.691 223C381.568 223.426 381.36 223.822 381.078 224.164C380.595 224.731 380.013 225.206 379.361 225.565C378.759 225.913 378.126 226.202 377.469 226.43L377.588 226.38L367.1 231.562L367.536 230.685C367.802 232.41 367.876 234.159 367.757 235.901C367.672 237.684 367.23 239.432 366.457 241.041C366.043 241.881 365.46 242.626 364.743 243.228C364.026 243.83 363.192 244.277 362.294 244.54C361.852 244.663 361.402 244.751 360.946 244.8L359.652 244.885C358.794 244.919 357.941 244.923 357.092 244.898C353.717 244.765 350.351 244.455 347.009 243.969C343.672 243.51 340.353 242.96 337.051 242.318L337.171 242.321C328.616 243.458 320.041 244.367 311.464 245.292C302.879 246.13 294.287 246.966 285.638 247.253C281.283 247.467 276.918 247.305 272.592 246.768C271.459 246.603 270.35 246.299 269.291 245.864C268.202 245.37 267.23 244.65 266.439 243.751C264.981 241.983 263.944 239.906 263.406 237.677C262.378 233.396 261.994 228.986 262.268 224.591C262.441 220.241 262.914 215.908 263.684 211.623C263.718 211.444 263.814 211.282 263.956 211.168C264.099 211.054 264.277 210.995 264.46 211.001C269.838 211.188 275.214 211.412 280.59 211.672C285.966 211.926 291.343 212.132 296.718 212.433L296.734 212.434C296.828 212.439 296.917 212.481 296.981 212.55C297.045 212.62 297.08 212.711 297.078 212.805L296.954 218.96L296.954 218.971C296.952 219.037 296.925 219.1 296.877 219.145C296.83 219.191 296.766 219.216 296.7 219.214C296.635 219.213 296.572 219.186 296.527 219.138C296.481 219.091 296.456 219.027 296.457 218.961V218.96L296.609 212.805C296.609 212.78 296.62 212.756 296.638 212.738C296.656 212.721 296.68 212.711 296.706 212.711C296.731 212.711 296.755 212.721 296.773 212.738C296.791 212.756 296.802 212.78 296.802 212.805H296.802Z" fill="#3F5CEA"/>
<path d="M395.423 394.047L388.334 394.205L387.152 398.765C386.593 410.061 373.52 405.928 373.52 405.928L374.154 413.51C374.367 416.293 374.421 419.086 374.316 421.875C374.211 425.305 374.854 430.731 379.661 432.418C386.871 434.948 406.801 433.996 406.801 433.996L408.836 423.673C406.449 423.547 404.126 422.85 402.064 421.64C400.003 420.43 398.261 418.743 396.986 416.721C395.608 414.517 394.926 411.948 395.029 409.35L395.423 394.047Z" stroke="#3F5CEA" stroke-width="0.96777" stroke-linecap="round" stroke-linejoin="round"/>
<path d="M252.448 289.743C252.824 289.73 253.181 289.572 253.443 289.301C253.704 289.03 253.85 288.668 253.85 288.292C253.85 287.915 253.704 287.553 253.443 287.282C253.181 287.011 252.824 286.853 252.448 286.84C252.072 286.853 251.715 287.011 251.454 287.282C251.192 287.553 251.046 287.915 251.046 288.292C251.046 288.668 251.192 289.03 251.454 289.301C251.715 289.572 252.072 289.73 252.448 289.743Z" fill="#3F5CEA"/>
<path d="M258.371 293.227C258.747 293.214 259.104 293.055 259.365 292.785C259.627 292.514 259.773 292.152 259.773 291.775C259.773 291.399 259.627 291.037 259.365 290.766C259.104 290.495 258.747 290.337 258.371 290.324C257.994 290.337 257.638 290.495 257.376 290.766C257.115 291.037 256.969 291.399 256.969 291.775C256.969 292.152 257.115 292.514 257.376 292.785C257.638 293.055 257.994 293.214 258.371 293.227Z" fill="#3F5CEA"/>
<path d="M265.339 296.015C265.715 296.002 266.072 295.843 266.333 295.572C266.595 295.301 266.741 294.94 266.741 294.563C266.741 294.186 266.595 293.825 266.333 293.554C266.072 293.283 265.715 293.124 265.339 293.111C264.963 293.124 264.606 293.283 264.344 293.554C264.083 293.825 263.937 294.186 263.937 294.563C263.937 294.94 264.083 295.301 264.344 295.572C264.606 295.843 264.963 296.002 265.339 296.015Z" fill="#3F5CEA"/>
<path d="M273.352 294.969C273.728 294.956 274.085 294.798 274.346 294.527C274.608 294.256 274.754 293.894 274.754 293.518C274.754 293.141 274.608 292.779 274.346 292.508C274.085 292.238 273.728 292.079 273.352 292.066C272.976 292.079 272.619 292.238 272.358 292.508C272.096 292.779 271.95 293.141 271.95 293.518C271.95 293.894 272.096 294.256 272.358 294.527C272.619 294.798 272.976 294.956 273.352 294.969Z" fill="#3F5CEA"/>
<path d="M281.017 289.395C281.393 289.382 281.75 289.223 282.011 288.953C282.273 288.682 282.419 288.32 282.419 287.943C282.419 287.567 282.273 287.205 282.011 286.934C281.75 286.663 281.393 286.505 281.017 286.492C280.64 286.505 280.284 286.663 280.022 286.934C279.76 287.205 279.614 287.567 279.614 287.943C279.614 288.32 279.76 288.682 280.022 288.953C280.284 289.223 280.64 289.382 281.017 289.395Z" fill="#3F5CEA"/>
<path d="M286.939 282.775C287.316 282.762 287.672 282.604 287.934 282.333C288.195 282.062 288.342 281.7 288.342 281.324C288.342 280.947 288.195 280.585 287.934 280.315C287.672 280.044 287.316 279.885 286.939 279.872C286.563 279.885 286.207 280.044 285.945 280.315C285.683 280.585 285.537 280.947 285.537 281.324C285.537 281.7 285.683 282.062 285.945 282.333C286.207 282.604 286.563 282.762 286.939 282.775Z" fill="#3F5CEA"/>
<path d="M290.772 276.156C291.148 276.143 291.505 275.984 291.766 275.713C292.028 275.442 292.174 275.081 292.174 274.704C292.174 274.328 292.028 273.966 291.766 273.695C291.505 273.424 291.148 273.265 290.772 273.252C290.396 273.265 290.039 273.424 289.777 273.695C289.516 273.966 289.37 274.328 289.37 274.704C289.37 275.081 289.516 275.442 289.777 275.713C290.039 275.984 290.396 276.143 290.772 276.156Z" fill="#3F5CEA"/>
<path d="M293.907 268.491C294.284 268.478 294.64 268.32 294.902 268.049C295.163 267.778 295.31 267.416 295.31 267.04C295.31 266.663 295.163 266.301 294.902 266.03C294.64 265.76 294.284 265.601 293.907 265.588C293.531 265.601 293.175 265.76 292.913 266.03C292.651 266.301 292.505 266.663 292.505 267.04C292.505 267.416 292.651 267.778 292.913 268.049C293.175 268.32 293.531 268.478 293.907 268.491Z" fill="#3F5CEA"/>
<path d="M297.74 260.826C298.116 260.813 298.473 260.655 298.734 260.384C298.996 260.113 299.142 259.751 299.142 259.375C299.142 258.998 298.996 258.636 298.734 258.365C298.473 258.095 298.116 257.936 297.74 257.923C297.364 257.936 297.007 258.095 296.745 258.365C296.484 258.636 296.338 258.998 296.338 259.375C296.338 259.751 296.484 260.113 296.745 260.384C297.007 260.655 297.364 260.813 297.74 260.826Z" fill="#3F5CEA"/>
<path d="M299.83 253.51C300.206 253.497 300.563 253.338 300.825 253.067C301.086 252.797 301.233 252.435 301.233 252.058C301.233 251.682 301.086 251.32 300.825 251.049C300.563 250.778 300.206 250.619 299.83 250.606C299.454 250.619 299.097 250.778 298.836 251.049C298.574 251.32 298.428 251.682 298.428 252.058C298.428 252.435 298.574 252.797 298.836 253.067C299.097 253.338 299.454 253.497 299.83 253.51Z" fill="#3F5CEA"/>
<path d="M305.753 167.456C306.129 167.443 306.486 167.284 306.748 167.013C307.009 166.742 307.155 166.38 307.155 166.004C307.155 165.627 307.009 165.266 306.748 164.995C306.486 164.724 306.129 164.565 305.753 164.552C305.377 164.565 305.02 164.724 304.759 164.995C304.497 165.266 304.351 165.627 304.351 166.004C304.351 166.38 304.497 166.742 304.759 167.013C305.02 167.284 305.377 167.443 305.753 167.456Z" fill="#3F5CEA"/>
<path d="M306.798 174.772C307.174 174.759 307.531 174.6 307.793 174.33C308.054 174.059 308.201 173.697 308.201 173.32C308.201 172.944 308.054 172.582 307.793 172.311C307.531 172.04 307.174 171.882 306.798 171.869C306.422 171.882 306.065 172.04 305.804 172.311C305.542 172.582 305.396 172.944 305.396 173.32C305.396 173.697 305.542 174.059 305.804 174.33C306.065 174.6 306.422 174.759 306.798 174.772Z" fill="#3F5CEA"/>
<path d="M307.843 182.437C308.22 182.424 308.576 182.265 308.838 181.994C309.099 181.723 309.246 181.361 309.246 180.985C309.246 180.608 309.099 180.246 308.838 179.976C308.576 179.705 308.22 179.546 307.843 179.533C307.467 179.546 307.11 179.705 306.849 179.976C306.587 180.246 306.441 180.608 306.441 180.985C306.441 181.361 306.587 181.723 306.849 181.994C307.11 182.265 307.467 182.424 307.843 182.437Z" fill="#3F5CEA"/>
<path d="M308.54 190.45C308.916 190.437 309.273 190.278 309.535 190.007C309.796 189.736 309.943 189.375 309.943 188.998C309.943 188.621 309.796 188.26 309.535 187.989C309.273 187.718 308.916 187.559 308.54 187.546C308.164 187.559 307.807 187.718 307.546 187.989C307.284 188.26 307.138 188.621 307.138 188.998C307.138 189.375 307.284 189.736 307.546 190.007C307.807 190.278 308.164 190.437 308.54 190.45Z" fill="#3F5CEA"/>
<path d="M308.888 197.069C309.265 197.056 309.621 196.898 309.883 196.627C310.145 196.356 310.291 195.994 310.291 195.618C310.291 195.241 310.145 194.879 309.883 194.608C309.621 194.338 309.265 194.179 308.888 194.166C308.512 194.179 308.156 194.338 307.894 194.608C307.632 194.879 307.486 195.241 307.486 195.618C307.486 195.994 307.632 196.356 307.894 196.627C308.156 196.898 308.512 197.056 308.888 197.069Z" fill="#3F5CEA"/>
<path d="M308.889 205.779C309.265 205.766 309.621 205.608 309.883 205.337C310.145 205.066 310.291 204.704 310.291 204.328C310.291 203.951 310.145 203.589 309.883 203.318C309.621 203.048 309.265 202.889 308.889 202.876C308.512 202.889 308.156 203.048 307.894 203.318C307.633 203.589 307.486 203.951 307.486 204.328C307.486 204.704 307.633 205.066 307.894 205.337C308.156 205.608 308.512 205.766 308.889 205.779Z" fill="#3F5CEA"/>
<path d="M307.495 215.535C307.871 215.522 308.228 215.363 308.489 215.092C308.751 214.821 308.897 214.46 308.897 214.083C308.897 213.706 308.751 213.345 308.489 213.074C308.228 212.803 307.871 212.644 307.495 212.631C307.119 212.644 306.762 212.803 306.5 213.074C306.239 213.345 306.093 213.706 306.093 214.083C306.093 214.46 306.239 214.821 306.5 215.092C306.762 215.363 307.119 215.522 307.495 215.535Z" fill="#3F5CEA"/>
<path d="M253.601 240.561H265.346C267.505 245.299 269.531 245.09 269.531 245.09C263.608 253.103 253.601 240.561 253.601 240.561Z" fill="#3F5CEA"/>
<path d="M307.854 157.294C307.854 157.294 316.459 195.506 309.364 222.793L311.427 223.461C311.427 223.461 314.42 209.864 315.867 207.463C325.249 191.902 319.7 186.559 319.7 186.559C313.08 181.333 307.854 157.294 307.854 157.294" fill="#3F5CEA"/>
<path d="M266.918 212.341C272.775 212.28 278.585 211.928 284.411 211.681L301.871 210.902L301.354 211.021C301.29 211.051 301.466 210.941 301.541 210.881C301.647 210.792 301.748 210.698 301.843 210.598C302.054 210.38 302.246 210.146 302.42 209.897C302.789 209.344 303.087 208.746 303.305 208.118C303.758 206.749 304.017 205.324 304.075 203.883C304.094 203.139 304.154 202.397 304.11 201.639L304.081 200.506L303.981 199.368C303.931 198.607 303.83 197.847 303.71 197.087L303.38 194.767C302.89 191.627 302.53 188.463 302.332 185.286C302.083 182.109 302.182 178.914 302.628 175.759C302.802 178.901 303.191 182.027 303.79 185.116C304.331 188.207 304.977 191.277 305.658 194.337C306.454 197.5 306.857 200.749 306.857 204.011C306.811 205.728 306.522 207.429 305.999 209.065C305.71 209.932 305.31 210.759 304.81 211.524C304.541 211.929 304.233 212.306 303.89 212.65C303.709 212.831 303.517 213.002 303.316 213.161C303.065 213.355 302.795 213.522 302.509 213.66C302.359 213.733 302.195 213.773 302.028 213.779L301.992 213.78C299.059 213.864 296.141 213.974 293.213 213.972C290.287 213.984 287.36 213.982 284.432 213.885C281.505 213.824 278.576 213.66 275.651 213.447C272.721 213.25 269.805 212.88 266.918 212.341Z" fill="#3F5CEA"/>
</svg>
