<svg width="700" height="550" viewBox="0 0 700 550" fill="none" xmlns="http://www.w3.org/2000/svg">
<path d="M567.752 297.79C567.102 296.939 566.532 296.04 565.962 295.129C554.972 277.85 506.952 286.04 506.952 286.04C501.522 327.699 492.072 322.79 490.322 320.169C488.572 317.55 485.412 291.82 483.322 288.32C477.282 287.79 464.942 287.879 464.942 287.879C453.032 288.16 441.832 298.64 430.812 315.709C419.792 332.77 400.362 347.209 400.362 347.209C400.362 347.209 406.132 347.739 408.232 360.34C409.522 360.739 413.392 359.03 416.212 357.649C418.728 356.419 421.534 355.903 424.322 356.16C428.862 356.58 435.392 358.03 440.612 362.969C441.254 363.568 441.936 364.123 442.652 364.629C443.312 364.26 443.682 364.01 443.682 364.01C454.442 359.55 460.742 344.06 460.742 344.06C459.87 342.112 459.361 340.021 459.242 337.89C459.072 335.768 459.102 333.635 459.332 331.52C459.562 329.449 459.722 327.399 459.782 325.34C459.887 323.262 459.797 321.18 459.513 319.12C460.37 321.077 460.858 323.175 460.952 325.31C461.099 327.429 461.056 329.558 460.822 331.669C460.592 333.73 460.462 335.78 460.412 337.85C460.338 339.925 460.449 342.003 460.743 344.06C461.346 349.587 462.653 355.014 464.632 360.21C467.475 361.152 470.407 361.798 473.382 362.14C474.846 362.306 476.321 362.353 477.792 362.28C479.3 362.196 480.801 362.035 482.292 361.8C480.947 362.606 479.466 363.161 477.922 363.439C477.15 363.589 476.368 363.682 475.582 363.719C474.795 363.73 474.007 363.7 473.222 363.629C471.661 363.46 470.129 363.09 468.662 362.53C467.2 361.985 465.838 361.201 464.632 360.209C465.475 362.522 466.593 364.725 467.962 366.77C475.38 367.197 482.65 369.019 489.392 372.14C491.102 372.93 492.672 373.99 494.252 374.77C495.861 375.572 497.546 376.212 499.282 376.68C502.778 377.631 506.38 378.141 510.002 378.199C511.842 378.26 513.592 378.16 515.492 378.1C517.36 378.079 519.226 378.169 521.082 378.37C524.763 378.75 528.432 379.169 532.072 379.81C533.462 380.05 534.842 380.31 536.222 380.58C535.583 379.711 535.033 378.78 534.582 377.8C533.88 376.323 533.353 374.769 533.013 373.169C532.663 371.571 532.452 369.945 532.382 368.31C532.292 366.661 532.355 365.007 532.572 363.37L532.582 363.32L532.602 363.25C533.151 361.475 533.49 359.643 533.612 357.79C533.767 355.91 533.787 354.022 533.672 352.14C533.542 350.255 533.312 348.379 532.982 346.52C532.622 344.689 532.142 342.78 531.882 340.85C531.358 337.003 531.238 333.112 531.523 329.24C531.622 327.31 531.822 325.379 532.112 323.48C532.379 321.572 532.743 319.68 533.202 317.81C532.728 321.612 532.468 325.438 532.422 329.27C532.367 333.073 532.645 336.874 533.253 340.629C533.382 341.57 533.612 342.49 533.802 343.41L534.422 346.25C534.791 348.168 535.035 350.109 535.152 352.06C535.448 355.969 534.997 359.899 533.822 363.64C533.574 365.177 533.447 366.732 533.442 368.29C533.431 369.874 533.555 371.456 533.812 373.02C534.064 374.588 534.466 376.128 535.013 377.62C535.398 378.667 535.883 379.675 536.463 380.629C538.632 381.07 540.782 381.57 542.912 382.16C546.494 383.096 549.936 384.498 553.152 386.33C549.829 384.766 546.331 383.605 542.733 382.87C540.882 382.439 539.019 382.066 537.142 381.75C537.137 381.744 537.13 381.741 537.122 381.74C535.393 381.44 533.652 381.18 531.902 380.95C528.263 380.48 524.612 380.07 520.963 379.78C519.154 379.61 517.338 379.54 515.523 379.57C513.753 379.629 511.813 379.76 509.973 379.7C506.223 379.623 502.5 379.065 498.893 378.04C497.082 377.51 495.327 376.807 493.652 375.939C492.812 375.53 491.993 374.979 491.223 374.53C490.453 374.06 489.683 373.57 488.872 373.169C485.639 371.472 482.233 370.124 478.713 369.149C475.192 368.095 471.599 367.299 467.963 366.77L459.693 367.56C459.948 367.911 460.135 368.308 460.243 368.73C462.372 375.62 459.303 402.61 459.303 402.61C471.112 411.27 536.483 424.66 536.483 424.66C578.622 431.75 579.013 394.33 579.013 394.33C586.552 327.18 571.732 302.949 567.752 297.79ZM515.022 366.24C514.25 366.389 513.468 366.482 512.682 366.52C511.895 366.53 511.107 366.5 510.322 366.43C508.761 366.26 507.229 365.89 505.762 365.33C504.3 364.785 502.938 364.001 501.732 363.01C504.575 363.952 507.507 364.598 510.482 364.939C511.946 365.106 513.421 365.153 514.892 365.08C516.399 364.996 517.901 364.835 519.392 364.6C518.047 365.406 516.566 365.961 515.022 366.24V366.24Z" fill="#DD1437"/>
<path d="M483.234 288.367C482.946 287.933 482.626 287.521 482.276 287.135C481.927 286.755 481.545 286.409 481.132 286.099C480.723 285.797 480.281 285.541 479.815 285.336C479.366 285.135 478.889 285.006 478.4 284.953L478.556 284.923C477.552 285.406 476.491 285.76 475.399 285.978C474.289 286.217 473.146 286.254 472.023 286.088C470.857 285.916 469.758 285.436 468.84 284.697C467.995 283.941 467.254 283.076 466.636 282.126C465.429 280.296 464.355 278.382 463.424 276.398C462.485 274.428 461.641 272.436 460.854 270.389L461.662 270.923C460.73 271.018 459.79 270.875 458.929 270.508C458.427 270.272 458.003 269.897 457.709 269.427C457.438 268.973 457.277 268.462 457.237 267.935C457.19 267.031 457.319 266.126 457.616 265.271C457.876 264.455 458.22 263.668 458.642 262.923C459.432 261.766 459.803 260.374 459.693 258.978C459.63 258.298 459.443 257.635 459.141 257.023L458.596 256.002C458.407 255.64 458.224 255.272 458.054 254.896C457.7 254.143 457.418 253.359 457.212 252.553C456.986 251.768 456.804 250.972 456.665 250.167C456.491 249.369 456.437 248.551 456.337 247.742C456.305 246.926 456.255 246.111 456.299 245.296C456.367 242.016 457.169 238.794 458.648 235.866C458.699 235.767 458.777 235.685 458.873 235.63C458.969 235.574 459.079 235.546 459.19 235.551C459.301 235.555 459.409 235.591 459.5 235.654C459.592 235.717 459.663 235.804 459.707 235.906L459.716 235.929C460.937 238.747 462.494 241.407 464.355 243.85C466.208 246.317 468.434 248.48 470.952 250.263C473.464 252.049 476.332 253.271 479.361 253.843C482.385 254.4 485.492 254.317 488.481 253.598L488.502 253.594C488.573 253.578 488.646 253.582 488.714 253.606C488.782 253.631 488.842 253.674 488.886 253.731C490.092 255.391 490.933 257.289 491.352 259.298C491.797 261.261 492.025 263.267 492.03 265.28C492.041 267.283 491.898 269.284 491.603 271.266C491.251 273.147 491.119 275.062 491.208 276.974C491.298 278.822 491.798 280.626 492.671 282.257C493.542 283.828 494.874 285.094 496.486 285.886C498.13 286.653 499.945 286.976 501.752 286.823C503.604 286.673 505.416 286.207 507.11 285.444C507.273 285.373 507.452 285.346 507.629 285.367C507.806 285.387 507.974 285.454 508.116 285.56C508.259 285.666 508.371 285.808 508.441 285.972C508.512 286.135 508.537 286.314 508.516 286.491L508.515 286.504C507.78 292.878 506.639 299.198 505.097 305.425C504.297 308.569 503.247 311.643 501.956 314.618C501.293 316.138 500.478 317.587 499.524 318.943C499.026 319.643 498.46 320.291 497.835 320.881C497.187 321.516 496.424 322.025 495.588 322.379C494.692 322.763 493.702 322.873 492.744 322.692C491.795 322.498 490.923 322.032 490.233 321.353C489.864 321.003 489.57 320.583 489.368 320.117C489.207 319.715 489.07 319.303 488.958 318.884C488.734 318.084 488.564 317.298 488.396 316.509C487.736 313.361 487.282 310.206 486.779 307.058L485.297 297.623C485.044 296.052 484.778 294.484 484.471 292.926C484.222 291.367 483.807 289.838 483.234 288.367L483.228 288.353C483.217 288.329 483.216 288.302 483.225 288.278C483.233 288.254 483.251 288.234 483.274 288.222C483.297 288.211 483.324 288.208 483.348 288.216C483.373 288.224 483.394 288.241 483.406 288.264C484.102 289.714 484.626 291.241 484.967 292.814C485.364 294.362 485.719 295.919 486.062 297.477C486.755 300.592 487.339 303.726 487.966 306.848C488.581 309.971 489.218 313.094 489.919 316.169C490.102 316.933 490.289 317.7 490.514 318.429C490.616 318.777 490.738 319.119 490.88 319.453C491.003 319.716 491.18 319.95 491.398 320.142C491.852 320.581 492.429 320.872 493.053 320.976C493.676 321.079 494.316 320.989 494.888 320.719C496.147 320.046 497.206 319.051 497.955 317.835C498.795 316.558 499.516 315.206 500.111 313.798C501.322 310.912 502.3 307.934 503.036 304.891C504.523 298.741 505.681 292.516 506.507 286.242L507.911 287.303C505.995 288.132 503.951 288.626 501.867 288.762C499.728 288.908 497.588 288.492 495.66 287.554C493.722 286.578 492.136 285.022 491.124 283.103C490.171 281.229 489.647 279.167 489.59 277.065C489.537 275.039 489.726 273.014 490.153 271.033C490.509 269.131 490.72 267.204 490.782 265.27C490.853 263.343 490.705 261.414 490.34 259.521C490.012 257.653 489.302 255.872 488.256 254.291L488.66 254.422C485.553 255.066 482.35 255.093 479.233 254.502C477.68 254.199 476.168 253.719 474.725 253.071C473.278 252.442 471.895 251.675 470.596 250.78C468.007 248.978 465.691 246.814 463.718 244.354C461.7 241.916 459.987 239.241 458.617 236.387L459.686 236.45C458.431 239.234 457.808 242.262 457.86 245.315C457.866 246.839 458.026 248.358 458.336 249.849C458.481 250.596 458.667 251.335 458.893 252.062C459.093 252.781 459.353 253.481 459.67 254.157C459.827 254.498 459.996 254.836 460.174 255.172C460.352 255.518 460.534 255.813 460.747 256.237C461.147 257.041 461.396 257.912 461.483 258.806C461.619 260.585 461.147 262.356 460.144 263.831C459.406 265.023 458.991 266.387 458.94 267.789C458.936 268.042 459.003 268.29 459.134 268.506C459.265 268.723 459.454 268.897 459.679 269.011C460.277 269.26 460.927 269.36 461.572 269.302L461.583 269.302C461.755 269.294 461.926 269.342 462.069 269.438C462.213 269.534 462.322 269.674 462.38 269.836C463.096 271.834 463.904 273.83 464.765 275.781C465.595 277.737 466.564 279.631 467.665 281.448C468.191 282.33 468.83 283.139 469.564 283.856C470.316 284.501 471.225 284.936 472.199 285.115C474.258 285.442 476.367 285.179 478.283 284.357L478.324 284.34C478.36 284.326 478.4 284.321 478.439 284.326C478.998 284.412 479.54 284.589 480.041 284.851C480.529 285.1 480.987 285.402 481.407 285.753C481.816 286.107 482.19 286.5 482.522 286.926C482.85 287.349 483.146 287.796 483.406 288.264C483.412 288.275 483.417 288.288 483.418 288.301C483.42 288.314 483.419 288.327 483.416 288.34C483.412 288.352 483.406 288.364 483.398 288.375C483.39 288.385 483.38 288.394 483.369 288.4C483.346 288.412 483.32 288.415 483.295 288.409C483.27 288.403 483.249 288.388 483.234 288.367Z" fill="#DD1437"/>
<path d="M459.566 269.876C459.362 271.467 459.149 273.045 458.983 274.625C458.826 276.205 458.675 277.782 458.626 279.359C458.549 280.926 458.614 282.498 458.82 284.053C458.923 284.824 459.13 285.577 459.436 286.291C459.723 287.025 460.201 287.668 460.82 288.155C460.087 287.778 459.482 287.192 459.082 286.471C458.686 285.75 458.392 284.977 458.21 284.174C457.867 282.584 457.736 280.955 457.818 279.33C457.883 277.72 458.068 276.118 458.369 274.535C458.651 272.954 459.051 271.397 459.566 269.876Z" fill="#DD1437"/>
<path d="M459.085 236.215C458.879 235.856 458.748 235.459 458.701 235.048C458.654 234.636 458.691 234.22 458.81 233.823L458.975 233.228L459.233 232.676C459.323 232.494 459.405 232.304 459.503 232.126L459.843 231.626C460.294 230.958 460.805 230.333 461.37 229.758C461.943 229.202 462.552 228.69 463.15 228.158C465.672 226.25 468.373 224.593 471.215 223.207C472.633 222.534 474.067 221.89 475.5 221.25C476.949 220.655 478.408 220.081 479.869 219.516C481.334 218.98 482.822 218.516 484.301 218.025C485.05 217.8 485.771 217.545 486.571 217.323C487.347 217.115 488.133 216.948 488.926 216.822C492.076 216.304 495.298 216.435 498.396 217.208C501.481 217.986 504.333 219.496 506.709 221.612C509.053 223.76 510.984 226.319 512.408 229.163C513.837 231.994 514.93 234.984 515.663 238.07L515.678 238.153C516.45 242.388 517.809 246.495 519.715 250.355C520.656 252.281 521.745 254.131 522.973 255.887C524.181 257.647 525.545 259.296 527.048 260.812L529.426 263.015C530.282 263.763 531.086 264.569 531.833 265.425C533.363 267.115 534.624 269.029 535.574 271.1C537.544 275.194 538.036 279.842 536.969 284.257C536.962 284.282 536.947 284.303 536.925 284.316C536.904 284.33 536.878 284.334 536.853 284.33C536.828 284.325 536.806 284.31 536.791 284.29C536.776 284.269 536.77 284.243 536.774 284.218L536.775 284.207C537.056 282.051 536.969 279.863 536.518 277.737C536.109 275.63 535.368 273.602 534.322 271.729C533.809 270.797 533.237 269.899 532.61 269.04C531.968 268.192 531.271 267.387 530.524 266.63C529.794 265.855 529.013 265.131 528.185 264.462L525.644 262.263C522.381 259.111 519.731 255.38 517.831 251.26C516.885 249.22 516.084 247.115 515.435 244.962C514.762 242.808 514.272 240.601 513.971 238.364L513.986 238.446C513.388 235.444 512.495 232.508 511.321 229.68C510.145 226.849 508.42 224.279 506.244 222.118C505.125 221.074 503.879 220.174 502.536 219.439C501.183 218.721 499.736 218.195 498.238 217.876C495.239 217.278 492.144 217.352 489.176 218.092C488.44 218.262 487.715 218.47 487.001 218.717C486.315 218.958 485.587 219.273 484.862 219.548L480.495 221.183C479.061 221.76 477.624 222.328 476.177 222.876L471.926 224.703C469.126 225.959 466.427 227.428 463.852 229.097C463.251 229.555 462.628 229.999 462.044 230.481C461.471 230.969 460.938 231.501 460.448 232.073L460.082 232.503C459.976 232.655 459.887 232.816 459.787 232.973L459.496 233.45L459.294 233.963C459.006 234.643 458.989 235.408 459.248 236.1L459.258 236.121C459.268 236.144 459.27 236.169 459.262 236.193C459.254 236.217 459.237 236.237 459.215 236.249C459.193 236.261 459.168 236.264 459.144 236.258C459.119 236.251 459.098 236.236 459.085 236.215V236.215Z" fill="#DD1437"/>
<path d="M461.559 255.537C462.942 254.543 464.451 253.736 466.047 253.139C466.845 252.833 467.664 252.587 468.499 252.403C469.338 252.191 470.213 252.15 471.068 252.285C470.251 252.462 469.449 252.704 468.671 253.011L466.336 253.895C464.772 254.482 463.212 255.087 461.559 255.537Z" fill="#DD1437"/>
<path d="M465.934 261.126C466.249 261.115 466.547 260.983 466.766 260.756C466.985 260.53 467.107 260.227 467.107 259.912C467.107 259.597 466.985 259.295 466.766 259.068C466.547 258.842 466.249 258.709 465.934 258.698C465.62 258.709 465.321 258.842 465.103 259.068C464.884 259.295 464.762 259.597 464.762 259.912C464.762 260.227 464.884 260.53 465.103 260.756C465.321 260.983 465.62 261.115 465.934 261.126Z" fill="#DD1437"/>
<path d="M463.976 275.833C464.585 275.852 465.194 275.836 465.801 275.783C466.393 275.729 466.976 275.657 467.555 275.547C468.133 275.435 468.71 275.305 469.288 275.147C469.868 274.991 470.45 274.818 471.068 274.664C470.608 275.1 470.083 275.463 469.511 275.738C468.937 276.018 468.329 276.221 467.702 276.343C466.439 276.615 465.12 276.435 463.976 275.833Z" fill="#DD1437"/>
<path d="M459.473 399.024C456.466 397.917 453.374 397.054 450.228 396.446C447.131 395.815 443.95 395.714 440.82 396.146L439.667 396.34L438.542 396.646C437.795 396.854 437.061 397.107 436.344 397.403C434.911 398.02 433.537 398.766 432.239 399.632C430.917 400.499 429.663 401.492 428.186 402.349C426.707 403.179 425.116 403.79 423.462 404.163C421.82 404.553 420.133 404.723 418.445 404.669C416.678 404.671 414.936 404.248 413.366 403.437C412.933 403.173 412.547 402.838 412.223 402.447C411.933 402.091 411.754 401.831 411.501 401.54C411.025 400.991 410.473 400.513 409.863 400.119C408.522 399.34 407.106 398.697 405.636 398.201C404.05 397.698 402.53 397.008 401.106 396.146C400.385 395.659 399.751 395.053 399.231 394.355C398.976 394.026 398.747 393.711 398.501 393.42C398.381 393.269 398.254 393.14 398.124 392.994C397.983 392.827 397.821 392.66 397.701 392.492C396.746 391.167 395.869 389.788 395.075 388.361C394.272 386.957 393.472 385.559 392.705 384.136L392.94 384.309L390.881 383.86C390.169 383.738 389.471 383.547 388.796 383.289C387.444 382.724 386.257 381.826 385.345 380.678C384.847 380.104 384.504 379.411 384.351 378.665C384.292 378.273 384.317 377.872 384.424 377.49C384.531 377.108 384.718 376.752 384.972 376.447C385.458 375.874 386.053 375.403 386.722 375.061C387.391 374.719 388.122 374.513 388.871 374.455C389.596 374.414 390.322 374.443 391.041 374.544L393.137 374.695C394.535 374.783 395.934 374.849 397.333 374.892C400.13 374.978 402.93 374.958 405.711 374.784C408.472 374.641 411.216 374.257 413.91 373.635C415.213 373.326 416.475 372.864 417.669 372.259C418.229 371.967 418.75 371.605 419.22 371.183C419.692 370.751 420.12 370.273 420.5 369.757C420.816 369.399 421.014 368.95 421.065 368.475C421.049 368.372 421.032 368.332 420.9 368.218C420.704 368.093 420.489 367.997 420.264 367.936C419.014 367.682 417.727 367.665 416.47 367.884C415.828 367.974 415.193 368.113 414.572 368.301C414.319 368.376 414.075 368.479 413.844 368.608L413.628 368.748C413.534 368.813 413.439 368.866 413.344 368.92C413.158 369.024 412.966 369.117 412.769 369.198C412.036 369.49 411.268 369.689 410.486 369.791C410.109 369.844 409.735 369.882 409.363 369.908C408.931 369.947 408.496 369.931 408.068 369.86C407.163 369.707 406.325 369.283 405.665 368.646C405.036 368.015 404.581 367.234 404.341 366.376C403.922 364.732 404.143 362.99 404.959 361.503C405.364 360.674 406.005 359.982 406.8 359.515C407.065 359.375 407.353 359.281 407.65 359.24C407.824 359.217 408 359.215 408.174 359.235C408.264 359.245 408.354 359.262 408.442 359.284L408.555 359.314L408.568 359.312C408.773 359.332 408.979 359.319 409.179 359.273C410.465 358.978 411.719 358.556 412.923 358.014C413.556 357.745 414.186 357.464 414.814 357.17L415.753 356.725C416.091 356.564 416.434 356.413 416.782 356.27C418.175 355.712 419.64 355.351 421.134 355.199C422.611 355.066 424.098 355.117 425.562 355.352C426.993 355.548 428.41 355.835 429.805 356.212C432.614 356.952 435.284 358.141 437.713 359.733C438.918 360.541 440.046 361.458 441.082 362.472C442.083 363.393 443.153 364.236 444.283 364.992C449.104 367.803 454.67 369.072 460.233 368.629L460.242 368.628C460.268 368.627 460.293 368.635 460.313 368.652C460.332 368.669 460.345 368.693 460.347 368.718C460.35 368.744 460.342 368.77 460.326 368.79C460.31 368.81 460.287 368.824 460.261 368.827C454.574 369.7 448.757 368.708 443.68 365.998C442.438 365.248 441.258 364.4 440.149 363.463C437.079 360.736 433.37 358.829 429.366 357.918C428.037 357.598 426.689 357.363 425.33 357.215C424.011 357.036 422.674 357.024 421.352 357.18C420.047 357.333 418.77 357.666 417.556 358.168C417.254 358.296 416.957 358.432 416.662 358.577L415.702 359.046C415.06 359.355 414.411 359.655 413.755 359.945C412.405 360.58 410.988 361.063 409.531 361.386C409.042 361.489 408.538 361.489 408.049 361.388L407.932 361.361C407.894 361.352 407.925 361.36 407.918 361.358L407.928 361.36C407.933 361.361 407.935 361.359 407.926 361.36C407.875 361.37 407.826 361.389 407.78 361.414C407.374 361.689 407.049 362.069 406.839 362.512C406.284 363.514 406.123 364.687 406.387 365.802C406.525 366.305 406.782 366.768 407.138 367.15C407.491 367.501 407.942 367.736 408.432 367.826C408.697 367.874 408.968 367.886 409.237 367.861C409.566 367.844 409.891 367.816 410.212 367.775C410.825 367.707 411.428 367.563 412.006 367.346C412.135 367.297 412.261 367.238 412.383 367.172C412.44 367.143 412.497 367.111 412.551 367.075L412.779 366.931C413.159 366.712 413.565 366.54 413.987 366.42C414.714 366.21 415.457 366.058 416.208 365.964C417.732 365.725 419.288 365.784 420.789 366.138C421.24 366.269 421.666 366.478 422.045 366.756C422.282 366.939 422.479 367.168 422.625 367.429C422.771 367.691 422.863 367.979 422.895 368.276C422.936 368.789 422.836 369.303 422.606 369.764C422.432 370.143 422.214 370.5 421.957 370.828C421.495 371.438 420.969 371.998 420.388 372.497C419.799 373.001 419.149 373.428 418.453 373.77C417.122 374.404 415.72 374.878 414.278 375.181C411.476 375.758 408.625 376.059 405.765 376.078C402.929 376.137 400.103 376.041 397.287 375.861C395.879 375.769 394.473 375.653 393.07 375.513L390.967 375.288C390.295 375.184 389.614 375.145 388.934 375.173C388.278 375.214 387.636 375.385 387.046 375.674C386.455 375.964 385.928 376.367 385.493 376.86C385.291 377.093 385.141 377.365 385.052 377.66C384.964 377.955 384.94 378.265 384.982 378.57C385.111 379.208 385.401 379.803 385.823 380.298C386.662 381.367 387.769 382.197 389.03 382.703C389.672 382.941 390.335 383.115 391.011 383.222L393.08 383.626C393.128 383.635 393.172 383.654 393.212 383.682C393.251 383.709 393.284 383.745 393.308 383.787L393.315 383.798C394.863 386.59 396.603 389.272 398.52 391.824C398.641 391.98 398.769 392.093 398.892 392.23C399.036 392.379 399.198 392.531 399.335 392.689C399.623 393.001 399.882 393.327 400.134 393.623C400.601 394.201 401.163 394.695 401.796 395.084C403.166 395.827 404.618 396.407 406.123 396.812C407.728 397.274 409.279 397.911 410.746 398.71C411.501 399.173 412.187 399.741 412.784 400.396C413.068 400.703 413.361 401.097 413.588 401.356C413.789 401.576 414.021 401.765 414.278 401.917C415.594 402.561 417.041 402.888 418.506 402.875C420.04 402.923 421.575 402.78 423.074 402.448C424.568 402.129 426.009 401.595 427.35 400.862C428.665 400.113 429.983 399.155 431.368 398.282C432.77 397.392 434.251 396.633 435.791 396.014C436.575 395.728 437.375 395.488 438.187 395.296L439.404 395.02L440.64 394.862C443.913 394.528 447.22 394.775 450.408 395.591C453.55 396.386 456.61 397.474 459.549 398.839C459.572 398.849 459.591 398.868 459.601 398.892C459.611 398.915 459.611 398.942 459.602 398.966C459.593 398.99 459.575 399.009 459.552 399.021C459.529 399.032 459.502 399.033 459.478 399.025L459.473 399.024Z" fill="#DD1437"/>
<path d="M393.007 383.967C394.955 383.8 396.902 383.721 398.849 383.657C400.797 383.583 402.744 383.572 404.691 383.562L407.612 383.583C408.616 383.583 409.615 383.721 410.581 383.993C412.431 384.65 414.234 385.43 415.979 386.329C415.039 386.06 414.118 385.742 413.187 385.45C412.289 385.104 411.369 384.82 410.432 384.597C409.505 384.406 408.559 384.323 407.612 384.35L404.691 384.371C402.744 384.361 400.797 384.35 398.849 384.276C396.902 384.212 394.955 384.133 393.007 383.967Z" fill="#DD1437"/>
<path d="M393.997 385.708C395.306 386.717 396.557 387.794 397.8 388.881C398.443 389.404 399.014 390.02 399.64 390.455C400.271 390.909 400.979 391.247 401.729 391.452C402.453 391.669 403.289 391.702 404.114 391.855C404.936 391.991 405.75 392.169 406.553 392.388C408.198 392.733 409.726 393.494 410.991 394.599C410.311 394.146 409.564 393.803 408.778 393.58C408.003 393.332 407.213 393.137 406.413 392.995C405.61 392.856 404.809 392.711 403.999 392.613C403.163 392.533 402.332 392.406 401.511 392.231C400.671 391.991 399.883 391.597 399.187 391.07C398.545 390.527 397.938 389.945 397.37 389.327C396.22 388.15 395.08 386.962 393.997 385.708Z" fill="#DD1437"/>
<path d="M375.594 359.818C374.949 358.51 374.16 357.279 373.244 356.145L373.398 356.246C371.864 356.004 370.434 355.319 369.286 354.273C368.688 353.668 368.319 352.873 368.244 352.025C368.206 351.604 368.225 351.18 368.3 350.764C368.402 350.368 368.526 349.978 368.671 349.595C369.371 348.104 370.604 346.928 372.127 346.3C372.89 345.938 373.719 345.739 374.562 345.717C375.471 345.712 376.358 345.991 377.101 346.515L375.785 346.935C375.986 346.39 376.261 345.876 376.603 345.406C376.927 344.946 377.306 344.528 377.732 344.16C378.593 343.425 379.614 342.902 380.714 342.635C381.776 342.38 382.876 342.323 383.959 342.467L384.732 342.566C385.033 342.611 385.33 342.684 385.617 342.785C386.151 342.967 386.663 343.209 387.143 343.506C388.955 344.677 390.404 346.331 391.328 348.281C392.234 350.127 392.893 352.085 393.29 354.103L391.403 354.219C391.566 352.935 391.953 351.689 392.545 350.538C393.135 349.352 394.015 348.334 395.102 347.578C396.214 346.85 397.507 346.449 398.834 346.421C399.152 346.408 399.469 346.417 399.785 346.449L400.258 346.479C400.443 346.487 400.626 346.517 400.804 346.568C401.443 346.758 402.045 347.052 402.588 347.438C404.536 348.968 405.975 351.051 406.718 353.414C407.503 355.651 408.012 357.975 408.233 360.335C407.714 358.06 406.969 355.842 406.011 353.713C405.138 351.638 403.7 349.85 401.861 348.552C401.426 348.285 400.955 348.084 400.461 347.956C400.356 347.93 400.247 347.92 400.139 347.926L399.731 347.922C398.428 347.857 397.14 348.225 396.068 348.969C395.266 349.637 394.608 350.46 394.133 351.39C393.658 352.319 393.377 353.336 393.306 354.377L393.306 354.384C393.281 354.609 393.178 354.819 393.014 354.975C392.849 355.131 392.635 355.224 392.409 355.237C392.182 355.251 391.959 355.183 391.778 355.046C391.596 354.91 391.47 354.714 391.42 354.493C391.037 352.654 390.418 350.872 389.578 349.192C388.793 347.577 387.6 346.195 386.116 345.184C385.762 344.959 385.384 344.774 384.989 344.634C384.814 344.568 384.632 344.52 384.448 344.49L383.76 344.394C382.891 344.269 382.007 344.297 381.148 344.479C380.325 344.65 379.554 345.013 378.897 345.538C378.255 346.06 377.746 346.726 377.41 347.482L377.369 347.578C377.283 347.78 377.121 347.939 376.917 348.021C376.714 348.103 376.486 348.101 376.284 348.015C376.216 347.986 376.152 347.948 376.094 347.902C375.602 347.568 375.03 347.372 374.436 347.335C373.843 347.297 373.25 347.42 372.72 347.69C371.486 348.126 370.451 348.995 369.808 350.136C369.474 350.67 369.313 351.294 369.344 351.923C369.376 352.552 369.599 353.156 369.984 353.655C370.932 354.675 372.152 355.402 373.5 355.75L373.534 355.76C373.584 355.774 373.627 355.806 373.655 355.85C374.479 357.078 375.132 358.413 375.594 359.818Z" fill="#DD1437"/>
<path d="M368.846 359.138C368.31 358.034 367.359 357.188 366.2 356.784C365.074 356.461 363.871 356.552 362.806 357.039C362.293 357.197 361.833 357.49 361.473 357.888C361.113 358.286 360.868 358.773 360.762 359.299C360.713 360.399 361.013 361.487 361.618 362.408C362.227 363.424 362.953 364.367 363.779 365.217C363.979 365.437 364.191 365.638 364.399 365.844L365.077 366.436C365.561 366.854 366.029 367.281 366.492 367.71C368.347 369.427 370.08 371.229 371.809 373.058C371.939 373.195 372.025 373.368 372.055 373.555L372.065 373.619C372.179 374.2 372.368 374.764 372.629 375.297C373.177 376.439 373.955 377.456 374.916 378.282C375.404 378.724 375.891 379.02 376.543 379.52C377.739 380.458 378.747 381.612 379.516 382.922C380.29 384.21 380.864 385.607 381.217 387.068L381.171 386.925C381.627 388.187 382.483 389.265 383.608 389.996C384.81 390.697 386.175 391.072 387.566 391.083C389.026 391.115 390.484 390.964 391.906 390.634C393.36 390.317 394.787 389.883 396.172 389.337C394.872 390.102 393.497 390.732 392.069 391.22C390.619 391.728 389.107 392.038 387.574 392.139C385.963 392.256 384.35 391.934 382.905 391.21C382.175 390.805 381.52 390.278 380.966 389.653C380.431 389.023 379.984 388.323 379.64 387.571L379.622 387.525L379.594 387.428C379.224 386.176 378.678 384.982 377.971 383.884C377.272 382.799 376.392 381.842 375.369 381.054C374.91 380.702 374.197 380.26 373.64 379.764C373.053 379.271 372.519 378.717 372.047 378.113C371.565 377.507 371.155 376.847 370.824 376.147C370.474 375.415 370.232 374.637 370.106 373.836L370.362 374.396C368.687 372.575 366.959 370.78 365.226 369.026C364.789 368.591 364.349 368.161 363.902 367.748L363.194 367.083C362.965 366.843 362.734 366.604 362.523 366.356C361.658 365.366 360.915 364.277 360.309 363.111C359.603 361.887 359.336 360.458 359.552 359.062C359.63 358.695 359.769 358.343 359.961 358.021C360.168 357.717 360.402 357.432 360.661 357.171L361.53 356.573L362.463 356.19C363.738 355.739 365.136 355.779 366.383 356.303C366.967 356.581 367.487 356.976 367.911 357.464C368.335 357.951 368.653 358.522 368.846 359.138Z" fill="#DD1437"/>
<path d="M371.085 373.728C370.78 372.621 370.802 371.449 371.147 370.354C371.312 369.783 371.606 369.256 372.005 368.815C372.201 368.589 372.443 368.407 372.714 368.281C372.986 368.155 373.28 368.087 373.58 368.083C373.135 368.361 372.767 368.745 372.506 369.2C372.253 369.64 372.056 370.11 371.918 370.599C371.597 371.588 371.402 372.635 371.085 373.728Z" fill="#DD1437"/>
<path d="M373.448 356C374.136 355.831 374.697 355.713 375.293 355.596C375.916 355.456 376.551 355.374 377.189 355.35C376.756 355.899 376.136 356.269 375.447 356.39C375.105 356.47 374.75 356.477 374.406 356.41C374.061 356.342 373.735 356.203 373.448 356Z" fill="#DD1437"/>
<path d="M377.099 347.207C377.087 348.076 377.201 348.942 377.438 349.777C377.647 350.612 378.092 351.368 378.72 351.957C379.052 352.236 379.437 352.446 379.853 352.571C380.268 352.697 380.705 352.736 381.136 352.687C381.585 352.65 382.03 352.577 382.467 352.467L383.753 352.003L382.506 352.586C382.068 352.739 381.618 352.856 381.161 352.936C380.688 353.029 380.2 353.026 379.727 352.926C379.255 352.825 378.808 352.63 378.413 352.352C377.639 351.753 377.055 350.944 376.729 350.021C376.382 349.122 376.17 348.177 376.099 347.215C376.093 347.149 376.1 347.083 376.12 347.019C376.14 346.956 376.172 346.897 376.215 346.847C376.258 346.796 376.31 346.754 376.369 346.724C376.428 346.694 376.493 346.676 376.559 346.67C376.625 346.665 376.692 346.673 376.755 346.694C376.818 346.715 376.876 346.748 376.926 346.791C376.976 346.835 377.017 346.888 377.047 346.947C377.076 347.007 377.093 347.071 377.098 347.138C377.099 347.153 377.099 347.168 377.099 347.183L377.099 347.207Z" fill="#DD1437"/>
<path d="M381.128 352.856C381.822 353.913 382.435 355.021 382.962 356.171C383.551 357.328 383.955 358.571 384.157 359.854C384.214 360.093 384.328 360.314 384.489 360.499C384.65 360.684 384.853 360.828 385.081 360.917C385.605 361.18 386.165 361.359 386.744 361.449C387.335 361.557 387.941 361.563 388.534 361.465C389.145 361.413 389.713 361.127 390.119 360.666C389.967 360.956 389.755 361.211 389.498 361.415C389.242 361.619 388.945 361.767 388.628 361.85C387.996 362.037 387.336 362.111 386.678 362.068C386.007 362.039 385.347 361.88 384.735 361.601C384.379 361.461 384.064 361.232 383.821 360.935C383.579 360.639 383.416 360.285 383.35 359.907C383.149 358.71 382.826 357.536 382.387 356.404L381.128 352.856Z" fill="#DD1437"/>
<path d="M393.338 354.137C393.559 355.699 394.055 357.209 394.802 358.597C394.989 358.929 395.202 359.246 395.438 359.546C395.739 359.906 396.005 360.293 396.232 360.703C396.462 361.118 396.645 361.556 396.78 362.011C396.917 362.49 396.981 362.887 397.077 363.283C397.125 363.636 397.221 363.981 397.364 364.307C397.559 364.601 397.806 364.858 398.092 365.066C398.374 365.287 398.697 365.45 399.043 365.545C399.389 365.64 399.75 365.665 400.105 365.62C400.854 365.464 401.528 365.058 402.015 364.467C402.562 363.86 403.029 363.184 403.402 362.456L403.381 362.52C403.63 361.343 403.797 360.15 403.878 358.95C403.987 357.744 403.907 356.53 403.64 355.349C403.994 356.518 404.163 357.735 404.142 358.957C404.148 360.181 404.067 361.405 403.899 362.618C403.897 362.636 403.892 362.654 403.884 362.671L403.878 362.683C403.536 363.489 403.089 364.247 402.549 364.937C401.994 365.7 401.195 366.25 400.285 366.497C399.806 366.597 399.311 366.601 398.831 366.509C398.35 366.416 397.892 366.229 397.484 365.959C397.064 365.697 396.695 365.362 396.396 364.968C396.232 364.75 396.112 364.502 396.044 364.238L395.857 363.614C395.688 362.847 395.394 362.113 394.987 361.441C394.779 361.125 394.542 360.83 394.279 360.559C393.964 360.216 393.676 359.849 393.418 359.462C392.438 357.933 391.742 356.239 391.364 354.462C391.335 354.333 391.331 354.201 391.353 354.071C391.375 353.941 391.422 353.817 391.491 353.706C391.561 353.594 391.652 353.498 391.759 353.421C391.866 353.345 391.988 353.291 392.116 353.261C392.244 353.232 392.377 353.228 392.506 353.25C392.636 353.272 392.76 353.319 392.871 353.388C392.983 353.458 393.08 353.549 393.156 353.656C393.232 353.764 393.286 353.885 393.316 354.013C393.321 354.036 393.326 354.06 393.33 354.084L393.338 354.137Z" fill="#DD1437"/>
<path d="M391.492 371.66C391.532 371.66 391.562 371.669 391.602 371.669L391.692 371.73L391.492 371.66Z" fill="#DD1437"/>
<path d="M411.782 370.309C394.602 367.699 378.412 361.039 374.392 359.309C373.696 359.004 372.951 358.825 372.192 358.779C368.532 358.589 367.272 359.779 366.932 361.009C366.78 361.603 366.823 362.231 367.055 362.798C367.288 363.366 367.697 363.843 368.222 364.159L386.092 375.399L386.102 375.389C387.002 374.307 388.045 373.352 389.202 372.549C388.78 373.438 388.26 374.276 387.652 375.049C389.316 374.593 391.073 374.6 392.732 375.069C413.422 377.029 418.622 372.709 418.622 372.709C416.402 370.639 411.782 370.309 411.782 370.309ZM396.692 368.599L400.892 371.659L391.262 370.219L382.592 364.409L396.692 368.599ZM402.092 373.789C398.512 373.459 394.942 373.049 391.372 372.649C391.302 372.637 391.235 372.613 391.172 372.579C387.872 370.589 384.582 368.579 381.322 366.519L376.432 363.41C374.832 362.339 373.202 361.309 371.612 360.209C373.322 361.109 375.002 362.059 376.692 362.979L381.722 365.849C385.042 367.739 388.322 369.699 391.602 371.669C395.122 372.099 398.662 372.539 402.182 373.039C405.732 373.539 409.292 374.059 412.832 374.68C409.242 374.459 405.662 374.129 402.092 373.789H402.092Z" fill="#DD1437"/>
<path d="M391.692 371.73L391.492 371.66C391.532 371.66 391.562 371.669 391.602 371.669L391.692 371.73Z" fill="white"/>
<path d="M269.871 228.279C269.871 228.279 267.304 226.738 264.907 229.477C264.907 229.477 260.627 223.396 242.482 228.662C242.482 228.662 244.879 233.243 246.59 233.243C248.302 233.243 243.338 241.118 238.716 240.776C238.716 240.776 230.841 252.245 236.833 263.372C242.738 274.339 246.98 277.822 252.838 270.709C253.017 270.488 253.218 270.285 253.436 270.103C255.121 268.714 262.578 262.938 265.221 267.245C265.784 268.201 265.945 269.342 265.669 270.417C264.463 275.47 258.822 294.08 242.482 286.653C242.482 286.653 223.44 279.512 227.931 262.596C228.412 260.875 229.108 259.223 230.004 257.677C230.868 256.099 231.401 254.36 231.569 252.569C231.737 250.777 231.538 248.97 230.983 247.258C230.295 244.817 228.742 242.711 226.614 241.331C224.552 240.044 221.833 239.469 219.773 243.067C218.92 244.563 218.471 246.256 218.469 247.978C218.465 249.555 218.758 251.488 220.057 252.416L218.469 255.497C217.605 253.74 216.5 252.111 215.187 250.659C212.987 248.431 211.574 245.547 211.162 242.443C210.581 237.52 211.281 230.169 217.147 221.603C217.147 221.603 225.021 205.854 239.743 206.196C254.465 206.539 267.132 210.476 269.871 228.279Z" fill="#DD1437"/>
<path d="M245.221 248.821C247.778 248.236 250.406 248.02 253.024 248.178C254.343 248.244 255.652 248.442 256.931 248.771C258.236 249.051 259.449 249.657 260.456 250.533C259.293 249.993 258.051 249.643 256.777 249.497C255.519 249.316 254.249 249.184 252.968 249.127C250.408 248.968 247.835 248.956 245.221 248.821Z" fill="#DD1437"/>
<path d="M269.871 248.577C268.935 248.861 268.068 249.339 267.328 249.978C266.976 250.268 266.69 250.629 266.488 251.036C266.286 251.444 266.171 251.89 266.153 252.345C266.222 253.278 266.467 254.19 266.874 255.032L267.994 257.784C268.829 259.647 269.314 261.646 269.425 263.684C269.423 264.221 269.325 264.753 269.134 265.255C268.929 265.763 268.594 266.208 268.163 266.546C267.287 267.097 266.252 267.343 265.221 267.245C266.188 267.162 267.108 266.794 267.865 266.187C268.175 265.856 268.409 265.461 268.551 265.029C268.692 264.598 268.737 264.141 268.683 263.69C268.609 262.737 268.416 261.797 268.107 260.892C267.819 259.965 267.475 259.047 267.109 258.132C266.757 257.21 266.377 256.294 266.034 255.35C265.87 254.873 265.704 254.398 265.575 253.896C265.415 253.376 265.361 252.83 265.416 252.289C265.473 251.752 265.648 251.233 265.929 250.771C266.21 250.308 266.589 249.914 267.04 249.615C267.887 249.048 268.858 248.692 269.871 248.577Z" fill="#DD1437"/>
<path d="M269.871 228.279C270.192 230.198 270.431 232.127 270.587 234.067C270.765 236.003 270.875 237.945 270.917 239.893C270.948 241.84 270.919 243.792 270.766 245.744C270.677 247.734 270.233 249.693 269.454 251.527C269.442 251.549 269.428 251.57 269.411 251.589C268.81 252.236 268.246 252.916 267.722 253.626C267.461 253.982 267.23 254.358 267.029 254.75C266.806 255.133 266.717 255.578 266.775 256.017C266.638 255.576 266.663 255.1 266.846 254.675C267.003 254.247 267.194 253.832 267.418 253.434C267.865 252.642 268.382 251.89 268.962 251.189L268.92 251.251C269.251 250.376 269.472 249.462 269.577 248.531C269.726 247.592 269.786 246.634 269.856 245.678C269.969 243.761 269.989 241.831 270 239.901C270 236.038 269.915 232.167 269.871 228.279Z" fill="#DD1437"/>
<path d="M259.6 261.831C259.42 262.203 259.274 262.59 259.164 262.989C259.053 263.357 259.028 263.745 259.093 264.125C259.146 264.5 259.31 264.851 259.564 265.133C259.833 265.444 260.132 265.728 260.456 265.981C260.249 265.919 260.045 265.846 259.846 265.762C259.652 265.655 259.469 265.529 259.301 265.386C258.947 265.08 258.709 264.663 258.625 264.204C258.565 263.748 258.633 263.285 258.821 262.867C258.997 262.466 259.264 262.111 259.6 261.831Z" fill="#DD1437"/>
<path d="M220.057 252.416C220.649 253.16 221.122 253.991 221.458 254.881C221.638 255.335 221.768 255.807 221.846 256.289C221.888 256.542 221.905 256.798 221.896 257.054L221.891 257.251L221.903 257.358C221.899 257.428 221.914 257.497 221.947 257.559C222.094 257.872 222.353 258.118 222.673 258.249C223.053 258.443 223.454 258.595 223.867 258.701C224.747 258.938 225.651 259.07 226.562 259.092C225.662 259.445 224.688 259.561 223.731 259.431C223.231 259.38 222.742 259.255 222.28 259.059C222.008 258.954 221.759 258.795 221.549 258.593C221.338 258.391 221.17 258.149 221.053 257.882C220.992 257.731 220.962 257.57 220.965 257.407L220.961 257.167L220.969 257.017C220.979 256.81 220.975 256.602 220.955 256.396C220.917 255.957 220.848 255.522 220.75 255.093C220.556 254.213 220.3 253.329 220.057 252.416Z" fill="#DD1437"/>
<path d="M218.469 255.498C218.087 256.882 217.548 258.219 216.863 259.481C216.193 260.762 215.384 261.966 214.45 263.07C213.516 264.195 212.408 265.164 211.169 265.939C209.926 266.71 208.503 267.142 207.042 267.194C208.379 266.792 209.636 266.159 210.755 265.323C211.849 264.481 212.846 263.518 213.726 262.454C214.63 261.391 215.466 260.271 216.228 259.103C216.996 257.928 217.758 256.738 218.469 255.498Z" fill="#DD1437"/>
<path d="M231.013 295.554C232.094 295.08 233.117 294.481 234.06 293.771C234.996 293.072 235.884 292.311 236.718 291.492C237.578 290.698 238.349 289.811 239.149 288.942L240.315 287.596C240.695 287.137 241.073 286.674 241.491 286.231C241.252 286.786 240.975 287.323 240.699 287.862C240.386 288.377 240.078 288.901 239.734 289.399C239.04 290.399 238.25 291.329 237.377 292.177C236.5 293.032 235.521 293.776 234.462 294.391C233.412 295.029 232.234 295.426 231.013 295.554Z" fill="#DD1437"/>
<path d="M213.887 262.761C213.035 261.499 211.981 260.385 210.768 259.465C210.515 259.242 210.209 259.088 209.88 259.018C209.55 258.948 209.208 258.964 208.887 259.066C208.319 259.451 207.911 260.031 207.74 260.696C207.507 261.405 207.338 262.134 207.237 262.873C207.186 263.241 207.141 263.624 207.108 263.978C207.11 264.315 207.139 264.71 207.173 265.078C207.32 266.588 207.6 268.082 208.009 269.542C208.763 272.514 209.933 275.364 211.486 278.008C213.059 280.651 214.941 283.097 217.092 285.295C218.17 286.386 219.291 287.436 220.429 288.459C221.61 289.434 222.739 290.481 223.969 291.376C224.562 291.855 225.216 292.244 225.836 292.683C226.492 293.06 227.121 293.488 227.805 293.808C229.125 294.526 230.529 295.076 231.985 295.447C234.893 296.218 237.983 295.894 240.668 294.536C243.365 293.096 245.631 290.964 247.233 288.359C247.239 288.348 247.249 288.339 247.261 288.335C247.273 288.332 247.286 288.333 247.297 288.339C247.307 288.345 247.315 288.355 247.319 288.367C247.323 288.378 247.322 288.391 247.317 288.402C245.924 291.231 243.735 293.59 241.019 295.191C239.627 295.98 238.097 296.493 236.511 296.703C234.92 296.89 233.309 296.788 231.755 296.4C230.212 296.033 228.726 295.456 227.341 294.684C226.634 294.333 225.991 293.878 225.32 293.472C224.69 293.008 224.024 292.59 223.426 292.087C222.174 291.146 221.077 290.047 219.918 289.015C219.326 288.512 218.825 287.911 218.283 287.358C217.76 286.785 217.194 286.253 216.708 285.647C214.681 283.304 212.841 280.807 211.203 278.177C209.536 275.548 208.208 272.719 207.251 269.756C206.784 268.257 206.479 266.713 206.341 265.149C206.315 264.748 206.291 264.374 206.3 263.94C206.346 263.528 206.401 263.145 206.464 262.751C206.59 261.964 206.789 261.191 207.057 260.441C207.177 260.027 207.379 259.642 207.65 259.307C207.922 258.972 208.257 258.694 208.637 258.49C209.063 258.322 209.536 258.313 209.969 258.463C210.363 258.598 210.731 258.799 211.057 259.058C212.253 260.078 213.242 261.318 213.968 262.712C213.971 262.717 213.973 262.723 213.974 262.729C213.975 262.736 213.974 262.742 213.973 262.748C213.971 262.754 213.968 262.759 213.964 262.764C213.961 262.769 213.956 262.773 213.95 262.776C213.94 262.782 213.927 262.783 213.916 262.781C213.904 262.778 213.894 262.771 213.887 262.761Z" fill="#DD1437"/>
<path d="M216.779 258.73C215.25 257.789 213.546 257.171 211.769 256.913C210.019 256.594 208.213 256.917 206.683 257.824C205.961 258.326 205.354 258.975 204.903 259.728L203.35 261.959C202.322 263.475 201.171 264.904 199.908 266.231C199.879 266.26 199.844 266.283 199.805 266.297C199.766 266.312 199.725 266.318 199.684 266.316L199.661 266.315C193.263 265.936 186.844 265.784 180.442 265.827C177.24 265.854 174.042 265.982 170.862 266.232C167.706 266.406 164.582 266.949 161.552 267.848L161.498 267.862L161.425 267.878C159.748 268.307 158.151 269.003 156.694 269.937C155.936 270.397 155.207 270.901 154.51 271.449L153.455 272.261C153.114 272.546 152.793 272.857 152.462 273.154C149.818 275.57 147.47 278.289 145.465 281.257C141.442 287.241 138.154 293.687 135.671 300.457C135.057 302.156 134.385 303.833 133.819 305.549L132.199 310.724C131.65 312.428 131.16 314.234 130.521 315.96C129.9 317.703 129.174 319.388 128.478 321.061L126.337 326.089L125.221 328.594C124.841 329.461 124.418 330.308 123.952 331.131C123.858 331.285 123.75 331.431 123.631 331.566C123.699 331.569 123.705 331.413 123.709 331.476C123.698 331.573 123.702 331.672 123.721 331.769C123.792 332.122 123.914 332.464 124.083 332.783C124.457 333.497 124.956 334.137 125.556 334.675C126.782 335.776 128.316 336.477 129.951 336.684L129.308 338.244C128.3 337.456 127.345 336.602 126.451 335.686C125.961 335.192 125.533 334.64 125.178 334.042C125.071 333.848 124.986 333.642 124.925 333.428C124.893 333.287 124.871 333.145 124.86 333.001C124.86 332.812 124.892 332.625 124.955 332.447C125.026 332.256 125.142 332.084 125.291 331.946C125.361 331.881 125.434 331.82 125.51 331.764C125.577 331.725 125.641 331.695 125.708 331.663C125.933 331.56 126.174 331.493 126.42 331.465C127.123 331.415 127.831 331.465 128.52 331.613C129.164 331.73 129.781 331.886 130.395 332.048L132.227 332.63L133.998 333.341C138.626 335.428 142.729 338.2 147.001 340.639C151.246 343.118 155.635 345.339 160.146 347.29C164.673 349.217 169.298 350.901 174.004 352.335L174.01 352.336C174.139 352.376 174.251 352.459 174.326 352.571C174.402 352.683 174.437 352.817 174.426 352.952C174.018 357.55 173.853 362.166 173.931 366.782C173.963 369.077 174.159 371.367 174.518 373.634C174.689 374.74 175.006 375.819 175.463 376.841C175.675 377.301 175.993 377.704 176.391 378.019C176.493 378.063 176.592 378.11 176.69 378.163C176.794 378.195 176.905 378.193 177.011 378.217C177.25 378.246 177.577 378.229 177.855 378.236L205.675 378.312C214.948 378.358 224.221 378.307 233.494 378.297L261.312 378.203L260.992 378.344C262.886 376.349 264.959 374.532 267.185 372.916C269.406 371.276 271.819 369.913 274.37 368.856C276.949 367.771 279.719 367.215 282.516 367.221C283.935 367.247 285.346 367.451 286.714 367.83L290.568 369.122C291.856 369.54 293.148 369.947 294.442 370.324C295.687 370.744 296.975 371.022 298.281 371.153C299.733 371.317 301.136 371.772 302.406 372.492C303.075 372.849 303.679 373.315 304.193 373.872C304.481 374.18 304.704 374.542 304.848 374.938C304.993 375.334 305.056 375.754 305.035 376.175C305.071 376.892 305.046 377.611 304.962 378.324C304.873 379.151 304.524 379.93 303.964 380.546C303.36 381.141 302.565 381.503 301.72 381.569C300.977 381.649 300.226 381.625 299.489 381.499C298.786 381.389 298.091 381.23 297.41 381.025L295.465 380.437C294.843 380.259 294.211 380.121 293.572 380.024C293.042 379.915 292.496 379.921 291.968 380.04L292.161 378.716C294.734 380.518 297.756 381.573 300.892 381.763C302.477 381.847 304.066 381.756 305.631 381.491C307.247 381.27 308.85 380.999 310.479 380.727C311.299 380.598 312.113 380.455 313.014 380.397C313.508 380.356 314.006 380.385 314.492 380.484C315.078 380.609 315.608 380.922 316.002 381.374C316.341 381.777 316.6 382.24 316.767 382.74C317.245 384.08 317.316 385.531 316.972 386.912C316.73 387.829 316.299 388.684 315.706 389.425C315.114 390.165 314.374 390.773 313.532 391.21C311.956 392.02 310.24 392.523 308.476 392.693L309.246 392.114C308.834 393.053 308.323 393.947 307.722 394.778C307.124 395.617 306.428 396.382 305.649 397.057C304.83 397.742 303.898 398.281 302.895 398.649C301.863 398.997 300.773 399.135 299.687 399.056L300.509 398.718C298.838 400.665 297.198 402.576 295.316 404.417C295.076 404.646 294.822 404.876 294.539 405.105C294.248 405.326 293.944 405.529 293.627 405.712C293.033 406.047 292.416 406.338 291.78 406.585C290.54 407.067 289.259 407.434 287.952 407.682C285.364 408.165 282.721 408.286 280.1 408.043C279.446 407.998 278.801 407.892 278.151 407.818L276.225 407.481L274.42 407.185L272.582 406.994C267.581 406.736 262.567 406.898 257.592 407.478C252.583 407.986 247.588 408.741 242.618 409.622C240.152 410.06 237.71 410.639 235.222 411.187C232.744 411.738 230.258 412.274 227.766 412.777C222.778 413.773 217.769 414.681 212.73 415.402C202.654 416.898 192.487 417.702 182.302 417.809C181.029 417.814 179.756 417.861 178.483 417.831L174.665 417.745C172.118 417.727 169.577 417.546 167.035 417.395C164.49 417.287 161.959 416.992 159.425 416.745C158.152 416.604 156.906 416.527 155.608 416.325C154.322 416.126 153.05 415.851 151.797 415.503C146.736 414.137 142.146 411.413 138.523 407.625C134.895 403.816 132.601 398.932 131.985 393.708C130.87 383.583 130.422 373.444 130.169 363.3C129.947 353.156 129.919 343.013 130.085 332.871C130.086 332.845 130.096 332.82 130.115 332.801C130.134 332.782 130.16 332.772 130.186 332.772C130.213 332.773 130.238 332.784 130.257 332.802C130.275 332.821 130.286 332.847 130.285 332.873C130.328 343.011 130.561 353.144 130.986 363.273C131.434 373.391 131.988 383.527 133.245 393.545C133.891 398.47 136.12 403.052 139.596 406.6C143.059 410.151 147.427 412.689 152.226 413.94C153.419 414.261 154.629 414.511 155.851 414.69C157.06 414.869 158.347 414.942 159.595 415.068C162.108 415.291 164.618 415.562 167.141 415.648C169.662 415.775 172.18 415.934 174.705 415.929L178.49 415.982C179.752 416.001 181.013 415.943 182.275 415.927L186.059 415.85L189.84 415.655C192.362 415.555 194.877 415.334 197.393 415.131C199.912 414.968 202.416 414.632 204.928 414.388C207.433 414.076 209.939 413.767 212.435 413.393C217.433 412.668 222.403 411.759 227.355 410.76C229.831 410.255 232.3 409.718 234.771 409.164C237.232 408.617 239.724 408.021 242.25 407.568C247.261 406.671 252.297 405.899 257.376 405.374C262.477 404.769 267.622 404.618 272.75 404.922L274.693 405.134L276.638 405.463L278.456 405.79C279.065 405.861 279.671 405.965 280.282 406.01C282.715 406.248 285.169 406.147 287.575 405.712C288.76 405.493 289.924 405.167 291.051 404.737C291.598 404.528 292.13 404.281 292.642 403.996C292.875 403.863 293.1 403.716 293.315 403.557C293.526 403.388 293.743 403.194 293.963 402.987C295.716 401.291 297.397 399.361 299.034 397.469C299.13 397.359 299.249 397.271 299.383 397.212C299.516 397.153 299.662 397.125 299.808 397.129L299.856 397.131C300.671 397.191 301.49 397.091 302.266 396.836C303.051 396.549 303.782 396.129 304.426 395.596C305.087 395.026 305.678 394.381 306.187 393.672C306.704 392.964 307.146 392.205 307.507 391.406L307.509 391.401C307.577 391.247 307.683 391.113 307.817 391.013C307.952 390.912 308.11 390.848 308.277 390.826C309.791 390.689 311.265 390.27 312.626 389.593C313.252 389.282 313.804 388.842 314.248 388.302C314.691 387.762 315.015 387.134 315.198 386.459C315.378 385.779 315.416 385.069 315.309 384.373C315.242 383.73 315.017 383.113 314.653 382.577C314.51 382.398 314.307 382.277 314.081 382.237C313.76 382.176 313.432 382.158 313.107 382.184C312.367 382.222 311.558 382.349 310.755 382.469C309.139 382.721 307.499 382.981 305.857 383.188C304.176 383.451 302.471 383.529 300.773 383.419C297.31 383.177 293.985 381.966 291.177 379.925L291.162 379.914C291.052 379.832 290.966 379.722 290.914 379.595C290.862 379.469 290.846 379.33 290.867 379.195C290.889 379.059 290.947 378.932 291.035 378.828C291.124 378.723 291.239 378.645 291.369 378.601C292.158 378.365 292.993 378.332 293.798 378.504C294.501 378.618 295.197 378.776 295.879 378.979L297.829 379.591C298.447 379.784 299.077 379.935 299.715 380.043C300.945 380.253 302.284 380.23 302.941 379.544C303.635 378.867 303.678 377.53 303.646 376.194C303.652 376.042 303.646 375.889 303.628 375.738C303.626 375.628 303.602 375.519 303.556 375.418C303.468 375.178 303.333 374.957 303.16 374.768C302.751 374.324 302.272 373.951 301.743 373.663C300.647 373.03 299.438 372.619 298.183 372.454C296.786 372.302 295.411 371.994 294.083 371.534C292.773 371.137 291.477 370.713 290.185 370.279L286.324 368.94C285.074 368.589 283.786 368.392 282.489 368.355C279.84 368.326 277.211 368.826 274.759 369.828C269.804 371.925 265.335 375.023 261.633 378.927L261.619 378.941C261.579 378.981 261.531 379.014 261.478 379.036C261.425 379.058 261.369 379.069 261.312 379.069L233.495 378.975C224.223 378.964 214.951 378.914 205.679 378.959L177.864 379.035C177.563 379.03 177.308 379.053 176.971 379.027C176.791 379.011 176.613 378.981 176.438 378.939L175.95 378.713C175.42 378.326 174.994 377.815 174.709 377.224C174.199 376.136 173.839 374.983 173.639 373.798C173.24 371.489 173.007 369.155 172.942 366.813C172.798 362.157 172.901 357.496 173.249 352.85L173.67 353.468C168.898 352.085 164.204 350.447 159.609 348.56C155.018 346.647 150.547 344.459 146.22 342.009C141.873 339.621 137.736 336.846 133.328 334.888L131.656 334.226L129.953 333.692C129.372 333.542 128.789 333.397 128.216 333.297C127.696 333.185 127.164 333.142 126.633 333.17C126.562 333.188 126.437 333.203 126.455 333.213L126.443 333.21C126.461 333.205 126.477 333.196 126.489 333.182C126.497 333.155 126.555 333.115 126.566 333.055C126.596 332.818 126.565 333.04 126.697 333.222C126.982 333.681 127.321 334.106 127.704 334.488C128.542 335.337 129.435 336.129 130.377 336.859L130.385 336.865C130.536 336.984 130.643 337.148 130.691 337.333C130.739 337.518 130.725 337.714 130.651 337.89C130.577 338.067 130.448 338.214 130.282 338.31C130.116 338.405 129.924 338.444 129.734 338.42C127.737 338.175 125.861 337.325 124.361 335.983C123.602 335.307 122.97 334.499 122.497 333.599C122.239 333.115 122.056 332.594 121.954 332.054C121.888 331.704 121.897 331.344 121.981 330.997C122.05 330.739 122.179 330.502 122.357 330.303C122.377 330.247 122.364 330.298 122.428 330.182C122.821 329.504 123.219 328.645 123.595 327.844L124.709 325.374L126.867 320.382C127.575 318.703 128.297 317.052 128.904 315.373C129.536 313.691 130.007 311.988 130.579 310.235L132.244 305.014C132.826 303.282 133.515 301.585 134.146 299.869C136.71 292.992 140.093 286.448 144.222 280.38C145.275 278.868 146.403 277.41 147.603 276.013C148.826 274.625 150.135 273.316 151.522 272.093C151.871 271.788 152.208 271.471 152.567 271.178L153.683 270.341C154.423 269.775 155.196 269.255 155.999 268.782C157.618 267.77 159.395 267.036 161.256 266.611L161.13 266.642C164.272 265.744 167.508 265.22 170.773 265.081C173.996 264.869 177.219 264.782 180.437 264.796C186.876 264.81 193.298 265.136 199.711 265.647L199.464 265.73C200.719 264.46 201.869 263.09 202.904 261.634L204.498 259.447C204.999 258.656 205.662 257.98 206.442 257.462C207.231 256.953 208.13 256.639 209.064 256.545C209.979 256.436 210.905 256.454 211.815 256.599C213.624 256.9 215.351 257.569 216.891 258.565C216.913 258.579 216.929 258.601 216.935 258.627C216.941 258.653 216.936 258.679 216.922 258.702C216.908 258.724 216.886 258.74 216.86 258.746C216.835 258.752 216.808 258.748 216.785 258.734L216.779 258.73Z" fill="#DD1437"/>
<path d="M169.818 275.697C171.064 276.051 172.196 276.727 173.097 277.658C174.026 278.574 174.769 279.661 175.286 280.86C175.803 282.051 176.094 283.329 176.143 284.627C176.168 285.266 176.135 285.905 176.045 286.538C175.936 287.166 175.77 287.783 175.549 288.381C175.327 287.762 175.227 287.166 175.064 286.582C174.889 286.002 174.784 285.425 174.59 284.873C174.28 283.778 173.899 282.703 173.451 281.656C173.002 280.615 172.477 279.608 171.879 278.644C171.254 277.62 170.565 276.636 169.818 275.697Z" fill="#DD1437"/>
<path d="M174.18 299.663C174.565 304.102 174.753 308.54 174.871 312.978C175.002 317.415 175.016 321.852 175.008 326.289C174.962 330.725 174.891 335.161 174.703 339.597C174.528 344.032 174.282 348.467 173.837 352.901C173.45 348.462 173.26 344.024 173.143 339.587C173.012 335.149 172.998 330.712 173.009 326.276C173.058 321.839 173.129 317.403 173.317 312.968C173.492 308.532 173.737 304.097 174.18 299.663Z" fill="#DD1437"/>
<path d="M265.728 270.337C269.391 272.628 272.986 275.015 276.514 277.497C278.28 278.736 280.031 279.998 281.768 281.282L284.353 283.256C284.806 283.596 285.233 283.969 285.63 284.374L286.244 285.015L286.761 285.671C288.101 287.398 289.323 289.214 290.419 291.106C291.524 292.969 292.599 294.845 293.644 296.734C295.71 300.527 297.838 304.279 300.027 307.988C301.122 309.844 302.238 311.688 303.375 313.519L305.075 316.265C305.579 317.163 306.178 318.004 306.862 318.774C307.587 319.484 308.449 320.189 309.2 321.073C310.089 322 310.624 323.209 310.712 324.49C310.645 325.803 310.073 327.039 309.116 327.941C308.706 328.354 308.276 328.746 307.827 329.116C307.424 329.44 307.033 329.781 306.65 330.132C305.881 330.839 305.173 331.581 304.453 332.38C303.72 333.19 302.961 333.976 302.19 334.753C300.635 336.305 298.984 337.759 297.247 339.104C295.476 340.476 293.547 341.632 291.503 342.547C290.43 343.001 289.303 343.313 288.15 343.475C286.939 343.655 285.703 343.547 284.541 343.161C284.356 343.106 284.198 342.983 284.098 342.817L284.092 342.807C283.341 341.563 282.519 340.323 281.688 339.11C280.858 337.891 279.988 336.701 279.079 335.54C278.166 334.389 277.191 333.288 276.158 332.244C275.163 331.169 273.944 330.326 272.588 329.774L272.58 329.772C272.556 329.763 272.537 329.746 272.525 329.724C272.513 329.702 272.511 329.676 272.517 329.651C272.524 329.627 272.54 329.606 272.561 329.593C272.583 329.579 272.608 329.575 272.633 329.58C274.115 329.962 275.485 330.69 276.631 331.705C277.807 332.655 278.909 333.694 279.926 334.812C281.972 337.027 283.852 339.391 285.551 341.882L285.102 341.528C287.006 341.916 288.986 341.628 290.701 340.713C292.573 339.821 294.332 338.71 295.943 337.403C297.612 336.108 299.208 334.721 300.723 333.249C301.489 332.516 302.248 331.772 302.981 331.003C303.725 330.221 304.526 329.423 305.364 328.695C305.785 328.329 306.217 327.973 306.662 327.633C307.066 327.296 307.449 327.008 307.787 326.665C308.442 326.101 308.87 325.318 308.991 324.462C308.939 323.574 308.585 322.73 307.987 322.071C307.375 321.283 306.602 320.569 305.85 319.712C305.652 319.488 305.467 319.253 305.295 319.008L304.862 318.275L304.082 316.843L302.557 313.988C301.551 312.08 300.524 310.186 299.475 308.306C297.371 304.547 295.153 300.851 292.75 297.276C290.369 293.707 287.953 290.093 285.372 286.795L284.885 286.185L284.376 285.665C284.027 285.292 283.649 284.947 283.244 284.635L280.73 282.638L275.654 278.652C272.263 275.998 268.915 273.28 265.611 270.498C265.591 270.482 265.579 270.459 265.576 270.434C265.572 270.409 265.579 270.383 265.594 270.363C265.609 270.342 265.631 270.328 265.656 270.323C265.681 270.318 265.707 270.323 265.728 270.337L265.728 270.337Z" fill="#DD1437"/>
<path d="M279.115 302.63C277.365 309.209 275.712 315.803 274.331 322.424C273.621 325.705 273.125 329.03 272.846 332.376C272.752 333.985 272.742 335.761 272.601 337.483C272.463 339.239 272.169 340.979 271.723 342.683C270.672 346.05 268.988 349.186 266.762 351.923C265.733 353.295 264.643 354.622 263.622 355.955C263.131 356.616 262.633 357.273 262.192 357.982C261.719 358.665 261.292 359.384 260.867 360.104C259.192 363.031 257.695 366.056 256.383 369.163C254.999 372.257 253.805 375.436 252.639 378.635C254.124 371.948 256.429 365.469 259.502 359.347C260.296 357.799 261.205 356.313 262.221 354.902C263.229 353.508 264.263 352.177 265.236 350.801C267.284 348.227 268.831 345.291 269.797 342.146C270.226 340.563 270.514 338.945 270.656 337.311C270.815 335.645 270.81 334.018 270.963 332.235C271.32 328.809 271.939 325.414 272.814 322.082C274.493 315.469 276.598 308.971 279.115 302.63Z" fill="#DD1437"/>
<path d="M308.377 327.395C310.577 329.104 312.662 330.924 314.78 332.619C315.315 333.032 315.849 333.438 316.372 333.794L317.244 334.313C317.564 334.516 317.87 334.729 318.16 334.952C319.283 335.857 320.316 336.868 321.245 337.971C323.09 340.155 324.541 342.643 325.532 345.324C326.571 347.98 326.864 350.869 326.381 353.679C326.089 350.98 325.318 348.354 324.104 345.926C322.921 343.531 321.448 341.292 319.718 339.258C318.885 338.236 317.963 337.291 316.962 336.433C316.72 336.218 316.471 336.02 316.221 335.837L315.354 335.235C314.784 334.793 314.244 334.315 313.737 333.802C311.756 331.836 309.962 329.691 308.377 327.395Z" fill="#DD1437"/>
<path d="M286.298 342.643C288.265 345.28 289.609 348.329 290.229 351.56C290.299 351.972 290.358 352.388 290.413 352.805C290.452 353.209 290.456 353.686 290.507 354.033C290.584 354.74 290.753 355.434 291.008 356.097C291.566 357.515 292.281 358.865 293.139 360.124C293.99 361.426 294.926 362.671 295.94 363.851C296.43 364.458 296.972 365.023 297.493 365.607C298.058 366.144 298.573 366.742 299.155 367.263C301.373 369.516 304.03 371.289 306.961 372.473C305.329 372.307 303.74 371.844 302.274 371.107C300.809 370.361 299.423 369.469 298.136 368.446C295.546 366.404 293.295 363.964 291.467 361.218C290.539 359.813 289.785 358.299 289.223 356.712C288.951 355.861 288.795 354.978 288.76 354.086C288.734 353.635 288.745 353.31 288.745 352.914L288.688 351.768C288.33 348.628 287.525 345.555 286.298 342.643Z" fill="#DD1437"/>
<path d="M308.377 368.307C308.576 367.019 309.023 365.781 309.692 364.662C310.348 363.531 311.145 362.487 312.064 361.556C312.994 360.642 314.026 359.838 315.139 359.159C315.692 358.822 316.263 358.516 316.85 358.243C317.449 357.997 318.048 357.758 318.659 357.558C317.598 358.294 316.552 359.001 315.559 359.771C314.569 360.531 313.626 361.352 312.737 362.228C311.86 363.111 311.05 364.058 310.314 365.062C309.562 366.077 308.914 367.164 308.377 368.307Z" fill="#DD1437"/>
<path d="M311.986 370.59C314.208 367.038 316.642 363.623 319.274 360.364C320.591 358.73 321.959 357.135 323.379 355.577C324.823 354.028 326.353 352.561 327.961 351.182C329.6 349.743 331.444 348.556 333.433 347.661C334.508 347.208 335.667 346.986 336.833 347.01C338.029 347.041 339.197 347.375 340.228 347.981C342.148 349.218 343.617 351.042 344.418 353.181C344.834 354.199 345.136 355.26 345.316 356.346C345.538 357.469 345.516 358.626 345.249 359.74L344.929 359.039C347.179 360.186 349.345 361.43 351.494 362.723C353.638 364.018 355.754 365.361 357.793 366.821C359.876 368.24 361.807 369.873 363.553 371.691C364.436 372.629 365.185 373.685 365.78 374.828C366.433 376.046 366.587 377.47 366.211 378.799L366.222 378.763C365.939 379.863 365.33 380.853 364.475 381.603C364.011 381.975 363.47 382.241 362.892 382.382C362.313 382.523 361.711 382.535 361.127 382.419C360.044 382.198 359.015 381.768 358.096 381.154C357.213 380.577 356.38 379.928 355.603 379.215L356.943 378.636C356.906 380.007 356.612 381.359 356.078 382.622C355.554 383.898 354.77 385.051 353.776 386.007C352.78 386.948 351.614 387.69 350.339 388.194C349.8 388.427 349.274 388.691 348.765 388.984C348.531 389.118 348.306 389.268 348.092 389.431C348.011 389.493 347.936 389.561 347.866 389.635C347.812 389.681 347.827 389.736 347.875 389.557L347.535 388.6C348.159 389.141 348.674 389.795 349.054 390.527C349.46 391.279 349.672 392.12 349.672 392.975C349.672 393.829 349.46 394.67 349.054 395.422C348.686 396.137 348.2 396.784 347.618 397.339C346.448 398.44 344.962 399.147 343.37 399.36C342.631 399.449 341.886 399.484 341.141 399.464C340.34 399.463 339.544 399.336 338.782 399.089L339.49 399.091C337.161 399.812 334.767 400.306 332.343 400.564C329.924 400.811 327.486 400.798 325.07 400.525C323.813 400.405 322.578 400.114 321.4 399.658C320.745 399.405 320.153 399.014 319.663 398.511C319.173 398.008 318.797 397.405 318.562 396.744C318.216 395.419 318.375 394.014 319.009 392.801C319.292 392.213 319.658 391.67 320.096 391.187C320.564 390.604 321.235 390.219 321.974 390.11L321.891 390.119C322.24 390.067 322.592 390.038 322.944 390.031C323.291 390.024 323.638 390.036 323.983 390.069C324.688 390.126 325.378 390.31 326.018 390.613L325.502 391.215C325.184 390.651 324.936 390.05 324.762 389.426C324.584 388.805 324.504 388.16 324.525 387.514C324.548 386.862 324.733 386.226 325.062 385.662C325.396 385.119 325.85 384.659 326.389 384.317C326.411 384.303 326.438 384.298 326.464 384.303C326.49 384.308 326.513 384.323 326.528 384.346C326.541 384.367 326.546 384.392 326.542 384.417C326.538 384.442 326.525 384.464 326.506 384.48C326.037 384.844 325.658 385.31 325.398 385.842C325.151 386.366 325.034 386.942 325.058 387.52C325.086 388.102 325.204 388.675 325.41 389.219C325.609 389.763 325.872 390.282 326.194 390.764C326.243 390.836 326.268 390.921 326.265 391.008C326.262 391.095 326.231 391.179 326.177 391.247C326.123 391.316 326.049 391.365 325.965 391.389C325.882 391.412 325.793 391.409 325.711 391.378L325.679 391.366C325.113 391.159 324.518 391.045 323.916 391.028C323.609 391.017 323.302 391.024 322.996 391.049C322.695 391.072 322.397 391.114 322.102 391.174L322.062 391.181L322.019 391.184C321.6 391.33 321.237 391.603 320.982 391.966C320.65 392.379 320.379 392.838 320.177 393.329C319.75 394.253 319.678 395.301 319.974 396.275C320.161 396.719 320.441 397.118 320.795 397.444C321.15 397.771 321.57 398.017 322.028 398.166C323.071 398.517 324.155 398.727 325.253 398.789C327.54 398.964 329.839 398.893 332.111 398.579C334.379 398.298 336.615 397.801 338.789 397.096C339.01 397.022 339.249 397.02 339.472 397.09L339.497 397.098C340.672 397.357 341.883 397.406 343.075 397.243C344.226 397.095 345.301 396.59 346.15 395.799C346.983 395.074 347.506 394.056 347.609 392.956C347.614 392.43 347.491 391.911 347.251 391.442C347.005 390.95 346.673 390.504 346.273 390.126L346.201 390.06C346.081 389.949 345.992 389.808 345.945 389.651C345.898 389.494 345.893 389.328 345.933 389.169C346.012 388.838 346.181 388.535 346.421 388.294C346.568 388.141 346.728 388.001 346.898 387.875C347.186 387.662 347.488 387.469 347.801 387.297C348.386 386.976 348.988 386.688 349.606 386.435C350.682 386.042 351.672 385.444 352.521 384.674C353.355 383.9 354.028 382.967 354.501 381.932C354.981 380.893 355.27 379.777 355.353 378.636L355.357 378.576C355.366 378.426 355.418 378.281 355.507 378.159C355.596 378.037 355.718 377.944 355.858 377.889C355.999 377.834 356.152 377.821 356.3 377.851C356.448 377.88 356.584 377.952 356.693 378.057C357.384 378.735 358.126 379.358 358.913 379.921C359.65 380.477 360.486 380.886 361.377 381.125C361.782 381.234 362.206 381.252 362.618 381.178C363.031 381.103 363.421 380.937 363.761 380.692C364.462 380.128 364.979 379.368 365.246 378.509L365.257 378.472C365.608 377.383 365.522 376.201 365.018 375.174C364.518 374.072 363.843 373.058 363.019 372.17C361.341 370.355 359.471 368.727 357.441 367.315C353.349 364.496 348.99 362.085 344.428 360.115C344.305 360.06 344.205 359.965 344.145 359.844C344.085 359.724 344.068 359.587 344.098 359.455L344.108 359.414C344.259 358.476 344.214 357.518 343.977 356.598C343.761 355.632 343.438 354.694 343.013 353.8C342.25 352.035 340.972 350.542 339.345 349.518C338.542 349.082 337.649 348.837 336.736 348.801C335.823 348.766 334.914 348.941 334.08 349.314C332.251 350.121 330.549 351.188 329.025 352.482C327.425 353.775 325.897 355.154 324.449 356.615C322.974 358.064 321.547 359.57 320.16 361.117C317.405 364.225 314.723 367.418 312.15 370.704C312.143 370.714 312.133 370.723 312.121 370.73C312.11 370.736 312.097 370.741 312.084 370.743C312.071 370.744 312.058 370.744 312.045 370.74C312.033 370.737 312.021 370.731 312.01 370.723C311.991 370.708 311.977 370.686 311.973 370.662C311.968 370.637 311.973 370.612 311.986 370.59Z" fill="#DD1437"/>
<path d="M332.068 355.354C332.079 357.206 332.315 359.049 332.77 360.843C333.006 361.692 333.382 362.495 333.882 363.22C334.354 363.902 335.065 364.381 335.874 364.564C336.709 364.764 337.58 364.754 338.41 364.536C339.271 364.336 340.088 363.977 340.817 363.476C342.332 362.424 343.641 361.102 344.679 359.577C343.944 361.352 342.771 362.912 341.27 364.111C340.497 364.755 339.589 365.218 338.613 365.464C337.637 365.71 336.619 365.734 335.633 365.534C334.602 365.283 333.704 364.654 333.115 363.771C332.579 362.934 332.205 362.003 332.014 361.027C331.673 359.15 331.691 357.225 332.068 355.354Z" fill="#DD1437"/>
<path d="M346.79 373.043C348.691 373.112 350.54 373.682 352.15 374.696C352.961 375.187 353.713 375.77 354.391 376.434C355.069 377.089 355.66 377.829 356.148 378.635C355.437 378.019 354.753 377.408 354.025 376.853C353.309 376.292 352.56 375.775 351.781 375.306C351.005 374.831 350.2 374.406 349.37 374.034C348.532 373.65 347.67 373.319 346.79 373.043Z" fill="#DD1437"/>
<path d="M325.849 390.989C326.29 391.435 326.798 391.809 327.355 392.097C327.896 392.411 328.446 392.706 329.002 392.994C330.113 393.566 331.242 394.113 332.377 394.651C334.638 395.749 336.928 396.798 339.139 398.094C336.654 397.515 334.24 396.662 331.943 395.552C330.787 395.002 329.671 394.37 328.604 393.662C327.483 393.007 326.538 392.09 325.849 390.989Z" fill="#DD1437"/>
<path d="M343.48 377.38C343.872 377.594 344.214 377.888 344.484 378.243C344.64 378.432 344.752 378.653 344.813 378.89C344.874 379.127 344.882 379.374 344.836 379.615C344.694 380.092 344.397 380.508 343.992 380.798C343.626 381.079 343.226 381.312 342.801 381.491C342.606 381.573 342.417 381.669 342.236 381.778C342.064 381.862 341.899 381.958 341.74 382.065L341.309 382.443C341.179 382.584 341.059 382.735 340.951 382.894C340.495 383.528 340.222 384.276 340.162 385.055C340.048 385.824 340.163 386.61 340.494 387.313C340.825 388.017 341.356 388.607 342.02 389.01C342.184 389.121 342.365 389.204 342.556 389.255C342.745 389.316 342.929 389.401 343.125 389.452C343.529 389.53 343.939 389.58 344.351 389.6C344.775 389.612 345.198 389.597 345.62 389.556C346.041 389.482 346.468 389.419 346.904 389.363C346.502 389.522 346.09 389.675 345.672 389.816C345.244 389.934 344.809 390.026 344.369 390.09C343.916 390.129 343.461 390.131 343.008 390.097C342.779 390.058 342.553 390.005 342.33 389.94C342.098 389.896 341.875 389.817 341.667 389.706C340.784 389.305 340.068 388.608 339.645 387.736C339.236 386.87 339.07 385.909 339.167 384.956C339.264 384.003 339.619 383.094 340.195 382.328C340.341 382.138 340.502 381.958 340.675 381.791L341.245 381.344C341.647 381.113 342.07 380.921 342.508 380.771C343.272 380.596 343.939 380.133 344.369 379.477C344.433 379.298 344.456 379.107 344.438 378.918C344.419 378.729 344.359 378.546 344.261 378.383C344.057 378.009 343.793 377.67 343.48 377.38Z" fill="#DD1437"/>
<path d="M335.378 358.208C335.494 358.733 335.655 359.248 335.858 359.747C336.026 360.221 336.325 360.637 336.721 360.947C336.918 361.088 337.144 361.184 337.382 361.229C337.62 361.274 337.865 361.267 338.1 361.208C338.358 361.161 338.612 361.096 338.861 361.013C339.111 360.917 339.357 360.806 339.623 360.718C339.415 360.897 339.185 361.052 338.961 361.223C338.71 361.357 338.45 361.471 338.182 361.565C337.894 361.663 337.587 361.693 337.286 361.653C336.984 361.612 336.696 361.503 336.444 361.333C335.984 360.957 335.658 360.443 335.514 359.867C335.362 359.328 335.316 358.764 335.378 358.208Z" fill="#DD1437"/>
<path d="M336.291 357.558C336.827 357.406 337.383 357.331 337.941 357.337C338.509 357.339 339.073 357.429 339.614 357.603C340.178 357.788 340.669 358.144 341.02 358.622C341.323 359.118 341.428 359.711 341.312 360.281C341.248 359.758 341.046 359.261 340.728 358.842C340.385 358.466 339.944 358.192 339.455 358.051C338.428 357.741 337.363 357.575 336.291 357.558Z" fill="#DD1437"/>
<path d="M343.937 387.651C344.135 387.245 344.436 386.898 344.811 386.647C345.011 386.508 345.237 386.411 345.474 386.362C345.712 386.313 345.958 386.312 346.196 386.36C346.651 386.506 347.05 386.788 347.339 387.169C347.458 387.362 347.583 387.548 347.685 387.744C347.761 387.954 347.85 388.155 347.909 388.366C347.616 388.033 347.358 387.701 347.065 387.411C346.794 387.134 346.457 386.932 346.086 386.822C345.715 386.735 345.325 386.785 344.989 386.964C344.611 387.148 344.257 387.379 343.937 387.651Z" fill="#DD1437"/>
<path d="M326.381 389.867C326.407 389.084 326.607 388.316 326.966 387.62C327.061 387.424 327.195 387.251 327.359 387.109C327.524 386.967 327.716 386.86 327.923 386.796C328.142 386.754 328.368 386.762 328.583 386.819C328.799 386.876 328.998 386.981 329.167 387.126C329.497 387.375 329.776 387.683 329.992 388.035C330.212 388.408 330.286 388.849 330.2 389.273C330.083 389.656 329.882 390.008 329.613 390.304C329.344 390.601 329.014 390.834 328.645 390.989C329.241 390.557 329.665 389.926 329.84 389.21C329.871 388.876 329.794 388.542 329.619 388.255C329.423 387.965 329.175 387.712 328.888 387.51C328.775 387.399 328.638 387.314 328.488 387.263C328.338 387.213 328.179 387.196 328.021 387.216C327.709 387.32 327.444 387.532 327.274 387.814C326.881 388.453 326.58 389.144 326.381 389.867Z" fill="#DD1437"/>
<path d="M314.182 384.073C314.136 384.856 313.916 385.618 313.539 386.304C313.439 386.497 313.3 386.668 313.132 386.805C312.964 386.942 312.769 387.044 312.56 387.103C312.34 387.14 312.115 387.126 311.901 387.063C311.687 387 311.49 386.89 311.325 386.74C311.002 386.483 310.731 386.168 310.524 385.811C310.314 385.432 310.251 384.989 310.348 384.567C310.476 384.188 310.686 383.841 310.962 383.552C311.239 383.263 311.576 383.038 311.949 382.893C311.341 383.309 310.901 383.928 310.707 384.64C310.667 384.973 310.736 385.309 310.903 385.6C311.092 385.896 311.333 386.155 311.615 386.364C311.725 386.478 311.859 386.566 312.008 386.621C312.156 386.676 312.315 386.696 312.473 386.68C312.788 386.585 313.059 386.38 313.236 386.103C313.645 385.474 313.964 384.791 314.182 384.073Z" fill="#DD1437"/>
<path d="M321.341 397.009C321.545 396.469 321.832 395.965 322.192 395.513C322.375 395.274 322.596 395.065 322.844 394.894C322.987 394.787 323.153 394.717 323.329 394.69C323.505 394.662 323.685 394.678 323.854 394.736C324.152 394.906 324.376 395.18 324.482 395.506C324.589 395.785 324.657 396.077 324.683 396.374C324.753 396.947 324.728 397.528 324.607 398.094C324.546 397.537 324.451 396.984 324.323 396.439C324.262 396.179 324.182 395.924 324.084 395.676C323.97 395.458 323.834 395.222 323.662 395.171C323.337 394.993 322.831 395.395 322.461 395.758C322.067 396.156 321.693 396.574 321.341 397.009Z" fill="#DD1437"/>
<path d="M308.372 370.649L304.332 375.1C304.332 375.1 304.362 380.79 301.482 381.03C301.482 381.03 300.022 382.35 301.062 382.62C301.992 382.85 305.342 382.02 306.792 382.19C306.792 382.19 313.662 380.83 314.832 381.57C315.184 381.808 315.48 382.12 315.7 382.485C315.919 382.849 316.056 383.257 316.102 383.68L316.662 383.62L338.332 384.91L347.732 370.649L308.372 370.649ZM336.292 380.629L305.882 380.12L309.852 373.73H340.322L336.292 380.629Z" fill="#DD1437"/>
<path d="M283.452 381.032C284.624 380.178 285.949 379.557 287.356 379.204C288.785 378.836 290.266 378.708 291.737 378.825C291.869 378.836 291.992 378.898 292.078 378.999C292.164 379.099 292.206 379.23 292.197 379.362C292.187 379.494 292.125 379.617 292.025 379.703C291.924 379.79 291.794 379.833 291.662 379.824C291.641 379.822 291.621 379.82 291.6 379.816C290.235 379.546 288.834 379.505 287.455 379.694C286.047 379.879 284.688 380.333 283.452 381.032Z" fill="#DD1437"/>
<path d="M291.669 391.362C294.483 391.414 297.296 391.512 300.11 391.779C300.806 391.842 301.534 391.955 302.207 392.034C302.886 392.107 303.571 392.121 304.252 392.074C305.602 391.982 306.927 391.664 308.172 391.134L308.205 391.119C308.326 391.066 308.464 391.063 308.588 391.111C308.712 391.159 308.811 391.254 308.865 391.375C308.918 391.497 308.921 391.634 308.874 391.758C308.826 391.882 308.73 391.981 308.609 392.035L308.581 392.046C307.203 392.549 305.749 392.812 304.282 392.824C303.557 392.83 302.834 392.773 302.12 392.652C301.401 392.524 300.746 392.381 300.046 392.275C297.278 391.845 294.472 391.58 291.669 391.362Z" fill="#DD1437"/>
<path d="M293.837 399.122C294.791 398.779 295.755 398.458 296.729 398.162C297.714 397.851 298.719 397.605 299.736 397.425C299.868 397.404 300.002 397.436 300.11 397.514C300.218 397.592 300.291 397.71 300.312 397.841C300.333 397.972 300.301 398.107 300.223 398.215C300.145 398.323 300.028 398.395 299.896 398.417C299.87 398.421 299.843 398.423 299.816 398.423H299.807C298.812 398.434 297.819 398.511 296.834 398.651C295.834 398.78 294.834 398.94 293.837 399.122Z" fill="#DD1437"/>
<path d="M297.603 373.854C298.115 374.385 298.717 374.821 299.38 375.143C300.053 375.453 300.758 375.687 301.483 375.84C301.1 375.929 300.704 375.949 300.314 375.9C299.919 375.847 299.533 375.736 299.171 375.569C298.815 375.385 298.491 375.146 298.211 374.86C297.931 374.578 297.722 374.233 297.603 373.854Z" fill="#DD1437"/>
<path d="M312.867 391.538C312.602 391.539 312.347 391.435 312.159 391.248C311.97 391.061 311.864 390.807 311.863 390.542C311.861 390.277 311.966 390.022 312.152 389.834C312.339 389.645 312.593 389.539 312.858 389.538L325.526 389.418C325.658 389.414 325.789 389.437 325.912 389.485C326.035 389.534 326.147 389.606 326.241 389.699C326.335 389.791 326.41 389.902 326.46 390.024C326.511 390.146 326.536 390.277 326.535 390.409C326.536 390.54 326.512 390.67 326.462 390.792C326.413 390.914 326.341 391.025 326.249 391.119C326.157 391.213 326.047 391.287 325.926 391.339C325.805 391.39 325.675 391.417 325.544 391.418L312.877 391.538H312.867Z" fill="#DD1437"/>
<path d="M347.676 391.213C347.411 391.214 347.156 391.108 346.969 390.921C346.781 390.734 346.675 390.479 346.675 390.214C346.675 389.949 346.78 389.694 346.967 389.507C347.155 389.319 347.409 389.214 347.674 389.213L382.592 389.167H382.594C382.859 389.167 383.114 389.272 383.301 389.46C383.489 389.647 383.594 389.902 383.595 390.167C383.595 390.432 383.49 390.686 383.302 390.874C383.115 391.062 382.861 391.167 382.595 391.167L347.677 391.213H347.676Z" fill="#DD1437"/>
<path d="M579.488 390.905C579.223 390.905 578.969 390.8 578.781 390.612C578.593 390.425 578.488 390.17 578.488 389.905C578.488 389.64 578.593 389.386 578.78 389.198C578.968 389.01 579.222 388.905 579.487 388.905L611.583 388.866H611.583C611.849 388.866 612.103 388.971 612.291 389.158C612.478 389.346 612.584 389.6 612.584 389.865C612.584 390.13 612.479 390.385 612.292 390.572C612.104 390.76 611.85 390.866 611.585 390.866L579.49 390.905H579.488Z" fill="#DD1437"/>
<path d="M396.692 390.389H394.318C394.255 390.389 394.194 390.365 394.149 390.32C394.104 390.276 394.078 390.215 394.077 390.152C394.076 390.121 394.082 390.09 394.094 390.061C394.105 390.033 394.122 390.006 394.144 389.984C394.166 389.962 394.192 389.945 394.22 389.933C394.249 389.921 394.28 389.915 394.311 389.915H396.692C396.724 389.914 396.755 389.92 396.784 389.932C396.813 389.944 396.839 389.961 396.861 389.983C396.883 390.006 396.901 390.032 396.913 390.061C396.925 390.09 396.931 390.121 396.931 390.152C396.931 390.183 396.925 390.214 396.913 390.243C396.901 390.272 396.883 390.298 396.861 390.32C396.839 390.342 396.813 390.36 396.784 390.372C396.755 390.383 396.724 390.389 396.692 390.389Z" fill="#DD1437"/>
<path d="M88.4166 393.63C88.1514 393.632 87.8965 393.527 87.7081 393.341C87.5197 393.154 87.4132 392.9 87.4119 392.635C87.4107 392.37 87.5149 392.115 87.7015 391.927C87.8882 391.738 88.1421 391.632 88.4073 391.63L132.435 391.221C132.698 391.226 132.949 391.331 133.137 391.515C133.324 391.699 133.434 391.949 133.444 392.211C133.445 392.343 133.421 392.473 133.371 392.595C133.322 392.717 133.25 392.828 133.158 392.922C133.066 393.015 132.956 393.09 132.835 393.141C132.714 393.193 132.585 393.22 132.453 393.221L88.4259 393.63H88.4166Z" fill="#DD1437"/>
<path d="M254.465 255.212C254.835 255.199 255.185 255.043 255.442 254.777C255.699 254.511 255.843 254.155 255.843 253.785C255.843 253.415 255.699 253.06 255.442 252.794C255.185 252.528 254.835 252.372 254.465 252.359C254.095 252.372 253.745 252.528 253.488 252.794C253.23 253.06 253.087 253.415 253.087 253.785C253.087 254.155 253.23 254.511 253.488 254.777C253.745 255.043 254.095 255.199 254.465 255.212Z" fill="#DD1437"/>
<path d="M326.577 227.542L314.899 227.977C311.068 228.093 307.279 228.186 303.512 228.256C299.751 228.309 296.002 228.368 292.269 228.326C288.533 228.298 284.798 228.131 281.026 228.027L281.581 227.471C281.521 229.626 281.424 231.782 281.395 233.937C281.342 236.092 281.34 238.247 281.327 240.402C281.324 244.712 281.415 249.022 281.536 253.333L281.026 252.822L290.346 252.563C290.441 252.561 290.535 252.577 290.624 252.611C290.713 252.645 290.794 252.697 290.862 252.762L290.89 252.789L294.449 256.212H293.225L296.667 252.671C296.75 252.586 296.849 252.518 296.958 252.471C297.068 252.424 297.186 252.399 297.305 252.398L297.328 252.397C302.215 252.357 307.102 252.257 311.988 252.266C314.432 252.254 316.875 252.264 319.318 252.296L326.648 252.389L325.704 253.333C325.771 249.132 325.892 244.931 326.066 240.643L326.577 227.542ZM326.719 227.401L327.23 240.161C327.404 244.493 327.525 248.913 327.592 253.333C327.596 253.579 327.502 253.817 327.33 253.994C327.158 254.171 326.923 254.273 326.677 254.276H326.674L326.648 254.277L319.318 254.369C316.875 254.399 314.432 254.409 311.988 254.399C307.102 254.408 302.215 254.308 297.328 254.268L297.99 253.994L294.449 257.436L294.428 257.456C294.348 257.534 294.254 257.595 294.151 257.636C294.047 257.677 293.936 257.698 293.825 257.696C293.713 257.695 293.603 257.671 293.501 257.627C293.399 257.583 293.306 257.519 293.228 257.439L293.225 257.436L289.802 253.877L290.346 254.102L281.026 253.843L280.998 253.842C280.866 253.839 280.742 253.783 280.651 253.687C280.561 253.592 280.512 253.464 280.516 253.333V253.333C280.638 249.022 280.728 244.712 280.725 240.402C280.712 238.247 280.71 236.092 280.657 233.937C280.628 231.782 280.531 229.627 280.471 227.471C280.469 227.401 280.481 227.33 280.506 227.264C280.531 227.198 280.569 227.137 280.618 227.085C280.667 227.034 280.725 226.993 280.79 226.964C280.855 226.935 280.924 226.919 280.995 226.917H280.996L281.026 226.916C284.858 226.812 288.726 226.645 292.595 226.617C296.465 226.575 300.32 226.634 304.162 226.687C307.999 226.757 311.814 226.85 315.586 226.966L326.719 227.401Z" fill="#DD1437"/>
<path d="M460.748 179.704L443.559 180.001L426.517 180.216L392.667 180.454L375.828 180.395L358.997 180.182C347.766 180.01 336.479 179.927 325.196 179.956L325.519 179.634L325.578 192.564L325.727 205.495L325.196 204.964C335.14 204.828 345.083 204.7 355.026 204.631L384.856 204.467C394.799 204.39 404.743 204.478 414.686 204.476C424.629 204.464 434.573 204.595 444.516 204.674L444.53 204.674C444.743 204.676 444.947 204.763 445.096 204.915L448.556 208.437H447.458L450.988 204.985L451.002 204.972C451.067 204.908 451.145 204.857 451.23 204.823C451.316 204.789 451.407 204.772 451.499 204.773L460.818 204.909L460.233 205.495C460.301 201.251 460.356 197.007 460.474 192.707L460.748 179.704ZM460.889 179.563L461.163 192.421C461.28 196.741 461.336 201.118 461.404 205.495C461.407 205.648 461.348 205.795 461.242 205.905C461.135 206.015 460.989 206.078 460.836 206.08H460.836L460.818 206.081L451.499 206.216L452.009 206.005L448.557 209.535C448.414 209.68 448.22 209.764 448.016 209.766C447.812 209.768 447.616 209.689 447.471 209.547L447.469 209.546L447.458 209.535L443.936 206.075L444.516 206.315C434.573 206.395 424.629 206.525 414.686 206.513C404.743 206.511 394.799 206.599 384.856 206.522L355.026 206.358C345.083 206.289 335.14 206.161 325.196 206.025H325.183C325.114 206.025 325.046 206.01 324.983 205.983C324.919 205.956 324.862 205.917 324.814 205.867C324.766 205.818 324.728 205.76 324.703 205.696C324.677 205.632 324.664 205.563 324.665 205.495L324.814 192.564L324.874 179.634C324.874 179.548 324.908 179.466 324.968 179.406C325.029 179.345 325.111 179.311 325.196 179.311C336.518 179.34 347.834 179.257 359.206 179.085L376.281 178.872L393.347 178.812L427.309 179.051L444.172 179.265L460.889 179.563Z" fill="#DD1437"/>
<path d="M366.577 124.517C359.244 124.726 352.036 124.871 344.869 124.996C337.687 125.146 330.591 125.212 323.497 125.267C316.406 125.323 309.362 125.278 302.303 125.12C295.241 124.999 288.145 124.802 281.026 124.767L281.346 124.447C281.343 126.602 281.313 128.757 281.337 130.912L281.376 137.377C281.381 141.688 281.486 145.998 281.549 150.308L281.026 149.785L290.346 149.61C290.433 149.608 290.52 149.624 290.602 149.656C290.683 149.688 290.758 149.735 290.821 149.796L290.84 149.815L294.386 153.25H293.288L296.735 149.715C296.81 149.638 296.899 149.577 296.997 149.535C297.095 149.492 297.201 149.47 297.308 149.469L297.328 149.469L314.658 149.318C320.435 149.272 326.212 149.23 331.988 149.239C343.541 149.234 355.095 149.403 366.648 149.556L365.897 150.308L366.204 137.561L366.577 124.517ZM366.719 124.376L367.092 137.193L367.4 150.308C367.404 150.503 367.331 150.691 367.197 150.832C367.062 150.973 366.878 151.054 366.683 151.059L366.675 151.059L366.648 151.059C355.095 151.213 343.541 151.382 331.988 151.377C326.212 151.386 320.435 151.344 314.658 151.298L297.328 151.147L297.922 150.901L294.387 154.348L294.371 154.364C294.226 154.505 294.03 154.584 293.827 154.581C293.625 154.579 293.431 154.496 293.289 154.35L293.288 154.348L289.852 150.802L290.346 151.006L281.026 150.831L281.009 150.831C280.941 150.83 280.874 150.816 280.812 150.789C280.75 150.762 280.694 150.723 280.647 150.675C280.6 150.626 280.563 150.569 280.538 150.506C280.513 150.443 280.501 150.376 280.502 150.308C280.565 145.998 280.671 141.688 280.676 137.377L280.715 130.912C280.739 128.757 280.709 126.602 280.706 124.447C280.706 124.362 280.74 124.28 280.8 124.22C280.86 124.16 280.941 124.126 281.026 124.126C288.177 124.091 295.352 123.894 302.56 123.773C309.772 123.615 316.998 123.571 324.177 123.626C331.354 123.681 338.528 123.748 345.616 123.897C352.719 124.022 359.782 124.167 366.719 124.376V124.376Z" fill="#DD1437"/>
</svg>
